<?xml version="1.0" encoding="UTF-8" standalone="no"?>
<svg
   xmlns:dc="http://purl.org/dc/elements/1.1/"
   xmlns:cc="http://creativecommons.org/ns#"
   xmlns:rdf="http://www.w3.org/1999/02/22-rdf-syntax-ns#"
   xmlns:svg="http://www.w3.org/2000/svg"
   xmlns="http://www.w3.org/2000/svg"
   id="svg8"
   version="1.1"
   viewBox="0 0 169.33333 79.375"
   height="300"
   width="640">
  <defs
     id="defs2">
    <clipPath
       clipPathUnits="userSpaceOnUse"
       id="clipPath839">
      <path
         d="M 0.32,0 V 971.35998 H 1375.6801 V 0 Z"
         id="path837"
         style="clip-rule:evenodd" />
    </clipPath>
    <clipPath
       clipPathUnits="userSpaceOnUse"
       id="clipPath871">
      <path
         d="M 72.160004,271.51999 72,271.67999 61.759998,281.92001 v 0.31998 h 0.16 l 0.640003,0.64001 0.32,0.16001 2.240002,2.23999 0.319999,0.16 0.32,0.32001 0.32,0.16 0.159996,0.15998 0.32,0.16 0.319999,0.32001 0.32,0.16 0.32,0.32001 0.319999,0.16 0.320008,0.31998 0.319999,0.16 0.159996,0.16001 0.32,0.16 0.32,0.32001 0.959999,0.47998 0.160004,0.16 0.639999,0.32001 0.159996,0.16 0.639999,0.32001 0.160004,0.16 0.639999,0.31998 0.160004,0.16 4.799995,2.4 0.96,0.32001 0.319999,0.16 1.920006,0.64001 0.32,0.15998 1.439995,0.48001 1.920005,0.48001 0.479996,0.16 1.919998,0.47998 1.920006,0.32001 2.239998,0.32001 0.959999,0.16 3.199997,0.16 503.680003,0.15998 v -0.15998 l 3.03998,-0.16 2.23999,-0.32001 0.96003,-0.16 1.11999,-0.16 0.79999,-0.16001 4.48004,-1.11999 1.44,-0.48001 0.32001,-0.15998 1.43994,-0.48001 0.32001,-0.16 L 616,292.95999 617.91998,292 l 0.48004,-0.16 2.56,-1.28 0.15998,-0.16001 0.64001,-0.32 0.15997,-0.15998 0.64002,-0.32 0.15997,-0.16001 0.64001,-0.32 0.16004,-0.16001 0.63995,-0.31998 0.16004,-0.16 0.64001,-0.32001 0.32001,-0.32 0.31995,-0.16001 0.16003,-0.16 0.32001,-0.16 0.32,-0.31998 0.31995,-0.16001 0.32001,-0.32 0.32,-0.16001 0.16004,-0.16 0.32001,-0.16 0.31994,-0.31998 0.32001,-0.16 0.96002,-0.96 0.32001,-0.16 2.56,-2.56 -10.40003,-10.40002 h -0.32 l -1.27997,1.28 -0.32001,0.16 -0.79999,0.80002 -0.32001,0.16 -0.32,0.31998 -0.32001,0.16 -0.32001,0.32001 -0.32,0.16 -0.31995,0.32001 -0.32001,0.15998 -0.32001,0.32 L 616,276 l -0.15997,0.16 -0.64002,0.32001 -0.16003,0.16 -0.63996,0.31998 -0.16003,0.16001 -2.23999,1.11999 -0.47998,0.16 -0.96002,0.48001 -0.47998,0.16001 -0.32001,0.16 -0.47998,0.15998 -0.32001,0.16 L 608,279.84 l -0.32001,0.16 -0.47998,0.16 -1.91998,0.48001 -0.48004,0.15998 -0.64002,0.16 -0.95996,0.16001 -1.11999,0.16 -0.96002,0.16 -2.40003,0.16001 -503.359969,0.16 v -0.16 l -2.400002,-0.16001 -1.120003,-0.16 -1.919998,-0.32001 -2.559997,-0.63998 -1.440003,-0.48001 -0.32,-0.16001 -0.959999,-0.32 -0.319999,-0.15998 -0.480004,-0.16 -0.639999,-0.32001 -0.479996,-0.16 -1.279999,-0.63999 -0.480003,-0.16 L 80.32,277.44 l -0.159996,-0.16 -0.640007,-0.32001 -0.159996,-0.16 -0.64,-0.31998 -0.160003,-0.16 -0.64,-0.32001 -0.159996,-0.16 -0.32,-0.16001 -0.160003,-0.16 -0.32,-0.16 -0.32,-0.31998 L 76.32,274.88 76,274.56 l -0.32,-0.16001 -0.319999,-0.32 -0.32,-0.15998 -0.480003,-0.48001 -0.32,-0.16 -1.439995,-1.44 -0.32,-0.16001 -0.160003,-0.16 z"
         id="path869"
         style="clip-rule:evenodd" />
    </clipPath>
    <clipPath
       clipPathUnits="userSpaceOnUse"
       id="clipPath881">
      <path
         d="m 632,46.560001 -0.15997,202.400009 -0.16004,1.91999 -0.32001,2.23999 -0.15997,0.80001 -0.79999,3.2 -0.96002,2.88 -1.76001,3.51999 -0.15997,0.16 -0.32001,0.64002 -0.16003,0.16 -0.15998,0.31998 -0.16003,0.16 -0.31995,0.64002 -0.16003,0.16 -0.32001,0.63998 -0.32,0.32001 -0.15998,0.32001 -0.32,0.31998 -0.15998,0.32 -0.32001,0.32001 -0.16003,0.32001 -0.32001,0.32 -0.15997,0.31998 -0.96002,0.96002 -0.15998,0.31998 -1.11999,1.12 10.39996,10.40002 0.32001,0.16 v -0.16 l 2.08002,-2.08002 0.15997,-0.32 1.12006,-1.12 0.15997,-0.31998 0.15997,-0.16 0.16004,-0.32001 0.32,-0.32 0.15998,-0.32001 0.32001,-0.31998 0.16003,-0.32001 0.31995,-0.32 0.16003,-0.32001 0.15997,-0.16 0.16004,-0.31998 0.32,-0.32001 0.15998,-0.32001 0.15997,-0.16 0.16003,-0.31998 0.15998,-0.16 0.16003,-0.32001 0.15997,-0.16 0.16004,-0.32001 0.15997,-0.16 0.47998,-0.95999 0.16004,-0.16001 0.47998,-0.95999 0.16003,-0.16 0.32001,-0.63999 0.15997,-0.48001 1.12,-2.23999 0.15997,-0.48001 0.48004,-0.95999 0.32001,-0.96002 0.15997,-0.31998 0.64002,-1.92001 0.15997,-0.32001 0.32001,-0.95999 1.11999,-4.48001 0.16004,-0.79999 0.15997,-0.96001 0.32001,-2.23999 0.15997,-0.96 0.16003,-3.04 0.15998,-202.239999 z"
         id="path879"
         style="clip-rule:evenodd" />
    </clipPath>
    <clipPath
       clipPathUnits="userSpaceOnUse"
       id="clipPath891">
      <path
         d="M 46.880001,46.560001 V 246.72 h 0.16 v 3.2 h 0.16 v 2.24 h 0.16 v 1.12 H 47.52 v 0.96 h 0.16 v 1.12 h 0.16 v 1.12001 H 48 V 257.12 h 0.16 v 0.64001 h 0.16 v 0.63998 h 0.16 v 0.64002 h 0.159999 v 0.63998 h 0.16 v 0.64002 h 0.16 v 0.63998 h 0.16 V 261.44 h 0.16 v 0.48001 h 0.16 v 0.47998 h 0.159999 V 262.72 h 0.16 v 0.48001 h 0.16 v 0.47998 h 0.160004 V 264.16 h 0.16 v 0.32001 h 0.16 v 0.47998 h 0.159999 V 265.44 h 0.16 v 0.48001 h 0.16 v 0.31998 h 0.16 V 266.56 h 0.16 v 0.32 h 0.16 v 0.32001 H 51.52 v 0.31998 h 0.16 V 267.84 h 0.16 v 0.32 H 52 v 0.32001 h 0.16 v 0.31998 h 0.16 V 269.12 h 0.16 v 0.48001 h 0.159999 v 0.32 h 0.16 v 0.31998 h 0.16 V 270.56 h 0.16 l 0.16,0.16 v 0.32001 h 0.16 v 0.31998 h 0.159999 l 0.16,0.16 V 271.84 h 0.16 v 0.32 h 0.160004 l 0.16,0.16001 v 0.32 h 0.16 v 0.31998 h 0.159999 l 0.16,0.16001 v 0.32 h 0.16 v 0.32001 h 0.16 l 0.16,0.16 v 0.31998 h 0.16 V 274.56 H 55.52 l 0.16,0.16 v 0.32001 h 0.16 l 0.32,0.31998 v 0.32 h 0.16 L 56.639999,276 v 0.32001 h 0.16 l 0.16,0.16 v 0.31998 h 0.16 l 0.32,0.32001 v 0.32 h 0.159999 l 0.32,0.32001 v 0.31998 h 0.160004 l 0.32,0.32 V 278.72 h 0.159999 l 2.239998,2.23999 V 281.28 h 0.16 l 0.799999,0.79999 v -0.15998 L 72,271.67999 l 0.160004,-0.32 L 72,271.20001 H 71.839996 V 270.88 l -1.279998,-1.27999 H 70.400002 V 269.28 l -0.64,-0.63999 h -0.160004 v -0.32 L 69.279999,268 h -0.159996 v -0.32001 l -0.160004,-0.16 h -0.159996 v -0.31998 l -0.32,-0.32001 H 68.32 v -0.32 L 68,266.23999 h -0.160004 v -0.31998 H 67.68 v -0.32 L 67.519997,265.44 h -0.159996 v -0.32 h -0.160004 v -0.32001 l -0.159996,-0.15998 h -0.160004 v -0.32 H 66.720001 V 264 l -0.160003,-0.16 h -0.159996 v -0.32001 h -0.160004 v -0.31998 H 66.080002 V 262.88 h -0.160004 v -0.32 h -0.159996 v -0.32001 h -0.160004 v -0.31998 H 65.440002 V 261.44 h -0.160003 v -0.32 h -0.159996 v -0.32001 h -0.160004 v -0.31998 H 64.800003 V 260.16 h -0.160004 v -0.48001 h -0.159996 v -0.47998 H 64.32 V 258.88 h -0.159996 v -0.48001 H 64 v -0.47998 h -0.16 v -0.32 H 63.68 V 257.12 h -0.16 v -0.47999 H 63.360001 V 256 h -0.16 v -0.64 h -0.16 v -0.64 h -0.16 v -0.64 h -0.16 v -0.64 h -0.16 v -1.11999 h -0.159999 v -1.28002 h -0.16 V 249.28 h -0.16 V 46.560001 Z"
         id="path889"
         style="clip-rule:evenodd" />
    </clipPath>
  </defs>
  <metadata
     id="metadata5">
    <rdf:RDF>
      <cc:Work
         rdf:about="">
        <dc:format>image/svg+xml</dc:format>
        <dc:type
           rdf:resource="http://purl.org/dc/dcmitype/StillImage" />
        <dc:title></dc:title>
      </cc:Work>
    </rdf:RDF>
  </metadata>
  <g
     transform="translate(0,-217.62498)"
     id="layer1">
    <g
       id="g823"
       transform="matrix(0.26458333,0,0,0.26458333,173.76624,173.64067)">
      <g
         transform="translate(-680.84282,151.52289)"
         id="g829">
        <path
           d="M 61.919998,181.60001 H 632.15997 v 100 H 61.919998 Z"
           style="fill:#87ceeb;fill-opacity:1;fill-rule:nonzero;stroke:none"
           id="path831" />
      </g>
      <g
         transform="translate(-680.84282,151.52289)"
         id="g833">
        <g
           id="g835"
           clip-path="url(#clipPath839)">
          <g
             id="g841"
             transform="translate(581.48999,103.57)">
            <path
               d="m 0,0 c 0,0.97 0,1.77 -0.16,2.57 -0.16,0.8 -0.16,1.6 -0.32,2.4 -0.16,0.96 -0.48,1.76 -0.64,2.56 -0.32,0.8 -0.48,1.6 -0.8,2.24 -0.32,0.81 -0.8,1.61 -1.12,2.25 -0.48,0.8 -0.8,1.6 -1.28,2.24 -0.48,0.64 -0.96,1.28 -1.44,1.92 -0.64,0.64 -1.12,1.279999 -1.76,1.92 -0.64,0.64 -1.12,1.119999 -1.76,1.600001 -0.8,0.649999 -1.44,1.129999 -2.08,1.609998 -0.65,0.480002 -1.45,0.800002 -2.09,1.280001 -0.8,0.32 -1.6,0.799999 -2.4,1.119999 -0.64,0.320002 -1.440001,0.480002 -2.24,0.800001 -0.799999,0.16 -1.600001,0.48 -2.4,0.64 -0.960001,0.159999 -1.76,0.159999 -2.559999,0.319999 -0.800001,0 -1.600001,0.16 -2.560002,0.16 -0.809999,0 -1.609998,-0.16 -2.409999,-0.16 -0.8,-0.16 -1.600001,-0.16 -2.56,-0.319999 -0.799999,-0.16 -1.6,-0.48 -2.4,-0.64 -0.799999,-0.319999 -1.600002,-0.479999 -2.240001,-0.800001 C -36.02,23.389999 -36.82,22.91 -37.619999,22.59 -38.259998,22.110001 -39.060001,21.790001 -39.700001,21.309999 -40.34,20.83 -41.150002,20.35 -41.790001,19.700001 -42.43,19.219999 -42.91,18.74 -43.549999,18.1 c -0.64,-0.640001 -1.119999,-1.28 -1.760002,-1.92 -0.48,-0.64 -0.959999,-1.28 -1.439999,-1.92 -0.48,-0.64 -0.959999,-1.44 -1.279999,-2.24 -0.319999,-0.64 -0.800003,-1.44 -1.120003,-2.25 -0.319999,-0.64 -0.479999,-1.44 -0.799999,-2.24 -0.16,-0.8 -0.479999,-1.6 -0.639999,-2.56 -0.16,-0.8 -0.16,-1.6 -0.32,-2.4 -0.16,-0.8 -0.16,-1.6 -0.16,-2.57 0,-0.8 0,-1.6 0.16,-2.4 0.16,-0.8 0.16,-1.76 0.32,-2.56 0.16,-0.8 0.479999,-1.6 0.639999,-2.4 0.32,-0.8 0.48,-1.6 0.799999,-2.41 0.32,-0.64 0.800004,-1.44 1.120003,-2.24 0.32,-0.64 0.799999,-1.44 1.279999,-2.08 0.48,-0.64 0.959999,-1.44 1.439999,-2.08 0.640003,-0.639999 1.120002,-1.280001 1.760002,-1.76 0.639999,-0.64 1.119999,-1.119999 1.759998,-1.770001 0.639999,-0.479999 1.450001,-0.959999 2.09,-1.439998 0.64,-0.480002 1.440003,-0.960001 2.080002,-1.280001 0.799999,-0.48 1.599999,-0.799999 2.399998,-1.120001 0.639999,-0.32 1.440002,-0.479999 2.240001,-0.799999 0.8,-0.32 1.600001,-0.48 2.4,-0.64 0.959999,-0.159999 1.76,-0.319999 2.56,-0.319999 0.800001,-0.16 1.6,-0.16 2.409999,-0.16 0.960001,0 1.760001,0 2.560002,0.16 0.799999,0 1.599998,0.16 2.559999,0.319999 0.799999,0.16 1.600001,0.32 2.4,0.64 0.799999,0.32 1.6,0.479999 2.24,0.799999 0.8,0.320002 1.6,0.640001 2.4,1.120001 0.64,0.32 1.44,0.799999 2.09,1.280001 0.64,0.479999 1.28,0.959999 2.08,1.439998 0.64,0.650002 1.12,1.130001 1.76,1.770001 0.64,0.479999 1.12,1.120001 1.76,1.76 0.48,0.64 0.96,1.44 1.44,2.08 0.48,0.64 0.8,1.44 1.28,2.08 0.32,0.8 0.8,1.6 1.12,2.24 0.32,0.81 0.48,1.61 0.8,2.41 0.16,0.8 0.48,1.6 0.64,2.4 0.16,0.8 0.16,1.76 0.32,2.56 C 0,-1.6 0,-0.8 0,0 Z"
               style="fill:#ffff00;fill-opacity:1;fill-rule:nonzero;stroke:none"
               id="path843" />
          </g>
          <g
             id="g845"
             transform="translate(581.48999,103.57)">
            <path
               d="m 0,0 c 0,0.97 0,1.77 -0.16,2.57 -0.16,0.8 -0.16,1.6 -0.32,2.4 -0.16,0.96 -0.48,1.76 -0.64,2.56 -0.32,0.8 -0.48,1.6 -0.8,2.24 -0.32,0.81 -0.8,1.61 -1.12,2.25 -0.48,0.8 -0.8,1.6 -1.28,2.24 -0.48,0.64 -0.96,1.28 -1.44,1.92 -0.64,0.64 -1.12,1.279999 -1.76,1.92 -0.64,0.64 -1.12,1.119999 -1.76,1.600001 -0.8,0.649999 -1.44,1.129999 -2.08,1.609998 -0.65,0.480002 -1.45,0.800002 -2.09,1.280001 -0.8,0.32 -1.6,0.799999 -2.4,1.119999 -0.64,0.320002 -1.440001,0.480002 -2.24,0.800001 -0.799999,0.16 -1.600001,0.48 -2.4,0.64 -0.960001,0.159999 -1.76,0.159999 -2.559999,0.319999 -0.800001,0 -1.600001,0.16 -2.560002,0.16 -0.809999,0 -1.609998,-0.16 -2.409999,-0.16 -0.8,-0.16 -1.600001,-0.16 -2.56,-0.319999 -0.799999,-0.16 -1.6,-0.48 -2.4,-0.64 -0.799999,-0.319999 -1.600002,-0.479999 -2.240001,-0.800001 C -36.02,23.389999 -36.82,22.91 -37.619999,22.59 -38.259998,22.110001 -39.060001,21.790001 -39.700001,21.309999 -40.34,20.83 -41.150002,20.35 -41.790001,19.700001 -42.43,19.219999 -42.91,18.74 -43.549999,18.1 c -0.64,-0.640001 -1.119999,-1.28 -1.760002,-1.92 -0.48,-0.64 -0.959999,-1.28 -1.439999,-1.92 -0.48,-0.64 -0.959999,-1.44 -1.279999,-2.24 -0.319999,-0.64 -0.800003,-1.44 -1.120003,-2.25 -0.319999,-0.64 -0.479999,-1.44 -0.799999,-2.24 -0.16,-0.8 -0.479999,-1.6 -0.639999,-2.56 -0.16,-0.8 -0.16,-1.6 -0.32,-2.4 -0.16,-0.8 -0.16,-1.6 -0.16,-2.57 0,-0.8 0,-1.6 0.16,-2.4 0.16,-0.8 0.16,-1.76 0.32,-2.56 0.16,-0.8 0.479999,-1.6 0.639999,-2.4 0.32,-0.8 0.48,-1.6 0.799999,-2.41 0.32,-0.64 0.800004,-1.44 1.120003,-2.24 0.32,-0.64 0.799999,-1.44 1.279999,-2.08 0.48,-0.64 0.959999,-1.44 1.439999,-2.08 0.640003,-0.639999 1.120002,-1.280001 1.760002,-1.76 0.639999,-0.64 1.119999,-1.119999 1.759998,-1.770001 0.639999,-0.479999 1.450001,-0.959999 2.09,-1.439998 0.64,-0.480002 1.440003,-0.960001 2.080002,-1.280001 0.799999,-0.48 1.599999,-0.799999 2.399998,-1.120001 0.639999,-0.32 1.440002,-0.479999 2.240001,-0.799999 0.8,-0.32 1.600001,-0.48 2.4,-0.64 0.959999,-0.159999 1.76,-0.319999 2.56,-0.319999 0.800001,-0.16 1.6,-0.16 2.409999,-0.16 0.960001,0 1.760001,0 2.560002,0.16 0.799999,0 1.599998,0.16 2.559999,0.319999 0.799999,0.16 1.600001,0.32 2.4,0.64 0.799999,0.32 1.6,0.479999 2.24,0.799999 0.8,0.320002 1.6,0.640001 2.4,1.120001 0.64,0.32 1.44,0.799999 2.09,1.280001 0.64,0.479999 1.28,0.959999 2.08,1.439998 0.64,0.650002 1.12,1.130001 1.76,1.770001 0.64,0.479999 1.12,1.120001 1.76,1.76 0.48,0.64 0.96,1.44 1.44,2.08 0.48,0.64 0.8,1.44 1.28,2.08 0.32,0.8 0.8,1.6 1.12,2.24 0.32,0.81 0.48,1.61 0.8,2.41 0.16,0.8 0.48,1.6 0.64,2.4 0.16,0.8 0.16,1.76 0.32,2.56 C 0,-1.6 0,-0.8 0,0 Z"
               style="fill:none;stroke:#ff4500;stroke-width:1.12100005;stroke-linecap:butt;stroke-linejoin:miter;stroke-miterlimit:4;stroke-dasharray:none;stroke-opacity:1"
               id="path847" />
          </g>
          <g
             id="g849"
             transform="translate(540.97998,104.22)">
            <path
               d="M 0,0 C 0,0.48 -0.16,0.96 -0.32,1.44 -0.48,1.92 -0.8,2.4 -1.12,2.72 -1.6,3.2 -2.08,3.68 -2.56,4.16 -3.04,4.48 -3.68,4.8 -4.48,5.28 c -0.64,0.32 -1.44,0.64 -2.24,0.8 -0.8,0.32 -1.6,0.64 -2.56,0.8 -0.96,0.16 -1.92,0.32 -2.88,0.32 -0.96,0.16 -1.92,0.16 -2.89,0.16 -0.96,0 -1.919999,0 -2.88,-0.16 -0.959999,0 -1.92,-0.16 -2.879999,-0.32 C -21.610001,6.72 -22.57,6.4 -23.370001,6.08 -24.17,5.92 -24.969999,5.6 -25.610001,5.28 -26.25,4.8 -26.889999,4.48 -27.530001,4.16 -28.01,3.68 -28.49,3.2 -28.809999,2.72 -29.299999,2.4 -29.620001,1.92 -29.780001,1.44 -29.940001,0.96 -30.1,0.48 -30.1,0 c 0,-0.65 0.159999,-1.13 0.319999,-1.61 0.16,-0.48 0.480002,-0.96 0.970002,-1.28 0.319999,-0.48 0.799999,-0.96 1.279998,-1.44 0.640002,-0.32 1.280001,-0.64 1.92,-1.12 0.640002,-0.32 1.440001,-0.64 2.24,-0.8 0.800001,-0.32 1.76,-0.64 2.560002,-0.8 0.959999,-0.16 1.92,-0.32 2.879999,-0.32 0.960001,-0.16 1.92,-0.16 2.88,-0.16 0.97,0 1.93,0 2.89,0.16 0.96,0 1.92,0.16 2.88,0.32 0.96,0.16 1.76,0.48 2.56,0.8 0.8,0.16 1.6,0.48 2.24,0.8 0.8,0.48 1.44,0.8 1.92,1.12 0.48,0.48 0.96,0.96 1.44,1.44 0.32,0.32 0.64,0.8 0.8,1.28 C -0.16,-1.13 0,-0.65 0,0 Z"
               style="fill:#ff4500;fill-opacity:1;fill-rule:nonzero;stroke:none"
               id="path851" />
          </g>
          <g
             id="g853"
             transform="translate(631.45001,155.63)">
            <path
               d="m 0,0 c 0,0.8 0,1.76 -0.16,2.56 -0.16,0.8 -0.48,1.6 -0.8,2.4 -0.32,0.8 -0.8,1.6 -1.28,2.4 -0.48,0.81 -0.96,1.61 -1.6,2.41 -0.65,0.8 -1.29,1.6 -2.09,2.24 -0.8,0.8 -1.6,1.44 -2.56,2.24 -0.96,0.64 -1.92,1.28 -3.04,1.92 -0.96,0.639999 -2.08,1.280001 -3.2,1.93 -1.28,0.48 -2.399999,1.119999 -3.69,1.600001 -1.280001,0.639999 -2.719999,1.119999 -4,1.599998 -1.440001,0.320002 -2.879999,0.800001 -4.32,1.280001 -1.44,0.32 -2.880001,0.639999 -4.479999,0.960001 -1.440001,0.32 -3.050001,0.639999 -4.65,0.959999 -1.600002,0.16 -3.200001,0.32 -4.799999,0.48 -1.600002,0.159999 -3.200001,0.319999 -4.800003,0.479999 -1.770001,0 -3.369999,0 -4.969998,0 -1.760002,0 -3.36,0 -4.960003,0 -1.759998,-0.16 -3.359996,-0.32 -4.959999,-0.479999 -1.61,-0.16 -3.209999,-0.32 -4.809997,-0.48 -1.599999,-0.32 -3.200005,-0.639999 -4.64,-0.959999 C -71.410004,23.219999 -72.849998,22.9 -74.290001,22.58 -75.730003,22.1 -77.18,21.620001 -78.620003,21.299999 -79.900002,20.82 -81.18,20.34 -82.459999,19.700001 -83.739998,19.219999 -85.019997,18.58 -86.139999,18.1 -87.419998,17.450001 -88.540001,16.809999 -89.5,16.17 c -1.129997,-0.64 -2.089996,-1.28 -3.050003,-1.92 -0.799995,-0.8 -1.759995,-1.44 -2.559998,-2.24 -0.639999,-0.64 -1.440002,-1.44 -2.080001,-2.24 -0.64,-0.8 -1.119996,-1.6 -1.599999,-2.41 -0.479996,-0.8 -0.959999,-1.6 -1.279999,-2.4 -0.32,-0.8 -0.48,-1.6 -0.64,-2.4 -0.16,-0.8 -0.32,-1.76 -0.32,-2.56 0,-0.8 0.16,-1.6 0.32,-2.41 0.16,-0.96 0.32,-1.76 0.64,-2.56 0.32,-0.8 0.800003,-1.6 1.279999,-2.4 0.480003,-0.8 0.959999,-1.6 1.599999,-2.4 0.639999,-0.8 1.440002,-1.44 2.080001,-2.24 0.800003,-0.81 1.760003,-1.45 2.559998,-2.09 0.960007,-0.8 1.920006,-1.44 3.050003,-2.08 0.959999,-0.64 2.080002,-1.279999 3.360001,-1.760001 1.120002,-0.639999 2.400001,-1.279998 3.68,-1.76 1.279999,-0.479999 2.559997,-0.959999 3.839996,-1.439998 1.440003,-0.480002 2.89,-0.970002 4.330002,-1.290001 1.440003,-0.48 2.879997,-0.8 4.480003,-1.119999 1.439995,-0.320002 3.040001,-0.640002 4.64,-0.800001 1.599998,-0.32 3.199997,-0.48 4.809997,-0.64 1.600003,-0.16 3.200001,-0.319999 4.959999,-0.319999 1.600003,-0.16 3.200001,-0.16 4.960003,-0.16 1.599999,0 3.199997,0 4.969998,0.16 1.600002,0 3.200001,0.159999 4.800003,0.319999 1.599998,0.16 3.199997,0.32 4.799999,0.64 1.599999,0.159999 3.209999,0.479999 4.65,0.800001 C -29.620001,-23.23 -28.18,-22.91 -26.74,-22.43 c 1.440001,0.319999 2.879999,0.809999 4.32,1.290001 1.280001,0.479999 2.719999,0.959999 4,1.439998 1.290001,0.480002 2.41,1.120001 3.69,1.76 1.12,0.480002 2.24,1.120001 3.2,1.760001 1.12,0.64 2.08,1.28 3.04,2.08 0.96,0.64 1.76,1.28 2.56,2.09 0.8,0.8 1.44,1.44 2.09,2.24 0.64,0.8 1.12,1.6 1.6,2.4 0.48,0.8 0.96,1.6 1.28,2.4 0.32,0.8 0.64,1.6 0.8,2.56 C 0,-1.6 0,-0.8 0,0 Z"
               style="fill:#ffff00;fill-opacity:1;fill-rule:nonzero;stroke:none"
               id="path855" />
          </g>
          <g
             id="g857">
            <path
               d="m 529.94,155.63 c 0,-0.8 0.15998,-1.76001 0.32001,-2.57 0.15997,-0.80001 0.32001,-1.59999 0.64001,-2.56 0.31995,-0.8 0.79999,-1.60001 1.27997,-2.39999 0.47998,-0.80001 0.96002,-1.60001 1.60004,-2.40001 0.63995,-0.80001 1.43994,-1.59999 2.23999,-2.25 0.79999,-0.80001 1.59998,-1.59999 2.56,-2.23999 0.95996,-0.80001 1.91998,-1.44001 2.88995,-2.08001 1.12006,-0.64 2.24005,-1.27999 3.36005,-1.91999 1.27997,-0.48001 2.39996,-1.12001 3.83996,-1.60001 1.28003,-0.64 2.56,-1.12 4,-1.60001 1.28003,-0.48999 2.72003,-0.97 4.17005,-1.28999 1.59997,-0.48 3.03997,-0.8 4.63995,-1.11999 1.44,-0.32001 3.04004,-0.64 4.64002,-0.80001 1.59997,-0.32 3.20001,-0.47999 4.80999,-0.64 1.76001,-0.16 3.35999,-0.32 4.96002,-0.32 1.76001,-0.16001 3.35999,-0.16001 5.12,-0.16001 1.59998,0 3.20001,0 4.96997,0.16001 1.60004,0 3.36005,0.16 4.96002,0.32 1.59998,0.16001 3.20001,0.32 4.79999,0.64 1.60004,0.16001 3.21002,0.48 4.81,0.80001 1.44,0.31999 3.04004,0.63999 4.48004,1.11999 1.43994,0.31999 2.87994,0.8 4.31995,1.28999 1.28002,0.48001 2.72003,0.96001 4.01,1.60001 1.28003,0.48 2.40003,1.12 3.68,1.60001 1.11999,0.64 2.24005,1.27999 3.36004,1.91999 0.95996,0.64 2.07996,1.28 2.88001,2.08001 0.95996,0.64 1.91998,1.43998 2.71997,2.23999 0.64001,0.65001 1.44,1.44999 2.09003,2.25 0.63995,0.8 1.11999,1.6 1.59997,2.40001 0.47998,0.79998 0.96002,1.59999 1.27997,2.39999 0.32001,0.96001 0.64002,1.75999 0.80005,2.56 0.15997,0.80999 0.15997,1.77 0.15997,2.57 0,0.79999 0,1.76 -0.15997,2.56 -0.16003,0.8 -0.48004,1.76 -0.80005,2.56 -0.31995,0.8 -0.79999,1.60001 -1.27997,2.39999 -0.47998,0.81002 -0.96002,1.61 -1.59997,2.41001 -0.65003,0.8 -1.45002,1.6 -2.09003,2.40001 -0.79999,0.64 -1.76001,1.43998 -2.71997,2.07998 -0.80005,0.80001 -1.92005,1.44001 -2.88001,2.08 -1.11999,0.64 -2.24005,1.29001 -3.36004,1.93001 -1.27997,0.64 -2.39997,1.12 -3.68,1.76 -1.28997,0.47999 -2.72998,0.96 -4.01,1.44 -1.44001,0.48 -2.88001,0.96001 -4.31995,1.28 -1.44,0.47999 -3.04004,0.8 -4.48004,1.11999 -1.59998,0.32001 -3.20996,0.64 -4.81,0.80001 -1.59998,0.32 -3.20001,0.47999 -4.79999,0.64 -1.59997,0.16 -3.35998,0.32 -4.96002,0.48001 -1.76996,0 -3.36999,0 -4.96997,0 -1.76001,0 -3.35999,0 -5.12,0 C 574.28998,181.41 572.69,181.25 570.92999,181.09 c -1.60998,-0.16001 -3.21002,-0.32 -4.80999,-0.64 -1.59998,-0.16001 -3.20002,-0.48 -4.64002,-0.80001 -1.59998,-0.31999 -3.03998,-0.64 -4.63995,-1.11999 -1.45002,-0.31999 -2.89002,-0.8 -4.17005,-1.28 -1.44,-0.48 -2.71997,-0.96001 -4,-1.44 -1.44,-0.64 -2.55999,-1.12 -3.83996,-1.76 -1.12,-0.64 -2.23999,-1.29001 -3.36005,-1.93001 -0.96997,-0.63999 -1.92999,-1.27999 -2.88995,-2.08 -0.96002,-0.64 -1.76001,-1.43998 -2.56,-2.07998 -0.80005,-0.80001 -1.60004,-1.60001 -2.23999,-2.40001 -0.64002,-0.80001 -1.12006,-1.59999 -1.60004,-2.41001 -0.47998,-0.79998 -0.96002,-1.59999 -1.27997,-2.39999 -0.32,-0.8 -0.48004,-1.76 -0.64001,-2.56 -0.16003,-0.8 -0.32001,-1.76001 -0.32001,-2.56 z m 0.96002,0 c 0,-0.8 0.15998,-1.6 0.31995,-2.41 0.16003,-0.8 0.32001,-1.60001 0.64001,-2.39999 0.32001,-0.80001 0.79999,-1.60001 1.28003,-2.40001 0.47999,-0.80001 0.95997,-1.59999 1.59998,-2.4 0.64001,-0.64 1.28003,-1.44 2.08002,-2.08 0.79999,-0.81 1.59997,-1.45 2.55999,-2.25 0.96003,-0.64 1.93,-1.28 2.89002,-1.92 1.11999,-0.64 2.23999,-1.28 3.35998,-1.76001 1.12,-0.64 2.40003,-1.11999 3.68,-1.75999 1.11999,-0.48 2.55999,-0.96001 3.84002,-1.44 1.44001,-0.48 2.72998,-0.80001 4.16999,-1.29 1.44,-0.32 3.03997,-0.64 4.47998,-0.96 1.60003,-0.32 3.04004,-0.64 4.64001,-0.80001 1.59998,-0.31999 3.20001,-0.47999 4.81,-0.64 1.59998,-0.15998 3.20001,-0.31999 4.79999,-0.31999 1.60003,-0.16 3.20001,-0.16 4.96002,-0.16 1.59998,0 3.20001,0 4.81,0.16 1.59997,0 3.35998,0.16001 4.96002,0.31999 1.59997,0.16001 3.03998,0.32001 4.63995,0.64 1.60004,0.16001 3.20002,0.48001 4.65003,0.80001 1.59997,0.32 3.03998,0.64 4.47998,0.96 1.44,0.48999 2.88,0.81 4.16003,1.29 1.44,0.47999 2.71997,0.96 4,1.44 1.28998,0.64 2.40998,1.11999 3.52997,1.75999 1.28003,0.48001 2.40002,1.12001 3.35999,1.76001 1.11999,0.64 2.08001,1.28 2.88,1.92 0.96002,0.8 1.76001,1.44 2.56,2.25 0.80005,0.64 1.44,1.44 2.08002,2.08 0.65002,0.80001 1.28997,1.59999 1.60998,2.4 0.48004,0.8 0.96002,1.6 1.28003,2.40001 0.32001,0.79998 0.47998,1.59999 0.64001,2.39999 0.15998,0.81 0.31995,1.61 0.31995,2.41 0,0.79999 -0.15997,1.6 -0.31995,2.4 -0.16003,0.96 -0.32,1.75999 -0.64001,2.56 -0.32001,0.8 -0.79999,1.6 -1.28003,2.24 -0.32001,0.81 -0.95996,1.61 -1.60998,2.41 -0.64002,0.79999 -1.27997,1.43999 -2.08002,2.24 -0.79999,0.63999 -1.59998,1.44 -2.56,2.08 -0.79999,0.64 -1.76001,1.28 -2.88,1.92 -0.95997,0.63999 -2.07996,1.27999 -3.35999,1.93 -1.11999,0.48 -2.23999,1.12 -3.52997,1.59999 -1.28003,0.48001 -2.56,0.96001 -4,1.44001 -1.28003,0.47999 -2.72003,0.8 -4.16003,1.28 -1.44,0.32 -2.88001,0.63999 -4.47998,0.96 -1.45001,0.31999 -3.04999,0.64 -4.65003,0.95999 -1.59997,0.16001 -3.03998,0.32001 -4.63995,0.48001 -1.60004,0.15999 -3.36005,0.32 -4.96002,0.32 -1.60999,0.16 -3.21002,0.16 -4.81,0.16 -1.76001,0 -3.35999,0 -4.96002,-0.16 -1.59998,0 -3.20001,-0.16001 -4.79999,-0.32 -1.60999,-0.16 -3.21002,-0.32 -4.81,-0.48001 -1.59997,-0.31999 -3.03998,-0.64 -4.64001,-0.95999 -1.44001,-0.32001 -3.03998,-0.64 -4.47998,-0.96 -1.44001,-0.48 -2.72998,-0.80001 -4.16999,-1.28 -1.28003,-0.48 -2.72003,-0.96 -3.84002,-1.44001 -1.27997,-0.47999 -2.56,-1.11999 -3.68,-1.59999 -1.11999,-0.65001 -2.23999,-1.29001 -3.35998,-1.93 -0.96002,-0.64 -1.92999,-1.28 -2.89002,-1.92 -0.96002,-0.64 -1.76,-1.44001 -2.55999,-2.08 -0.79999,-0.80001 -1.44001,-1.44001 -2.08002,-2.24 -0.64001,-0.8 -1.11999,-1.6 -1.59998,-2.41 -0.48004,-0.64 -0.96002,-1.44 -1.28003,-2.24 -0.32,-0.80001 -0.47998,-1.6 -0.64001,-2.56 -0.15997,-0.8 -0.31995,-1.60001 -0.31995,-2.4 z"
               style="fill:#ff4500;fill-opacity:1;fill-rule:evenodd;stroke:none"
               id="path859" />
          </g>
          <g
             id="g861"
             transform="translate(556.03998,85.32)">
            <path
               d="M 0,0 C 0.48,0 0.96,0.32 1.28,0.64 1.76,0.96 1.92,1.44 1.92,2.08 1.92,2.56 1.76,3.04 1.28,3.36 0.96,3.84 0.48,4 0,4 -0.65,4 -1.13,3.84 -1.45,3.36 -1.77,3.04 -2.09,2.56 -2.09,2.08 -2.09,1.44 -1.77,0.96 -1.45,0.64 -1.13,0.32 -0.65,0 0,0 Z"
               style="fill:#000000;fill-opacity:1;fill-rule:nonzero;stroke:none"
               id="path863" />
          </g>
        </g>
      </g>
      <g
         transform="translate(-680.84282,151.52289)"
         id="g865">
        <g
           id="g867"
           clip-path="url(#clipPath871)">
          <path
             d="M 61.759998,271.51999 H 632.32001 v 25.28 H 61.759998 Z"
             style="fill:#808080;fill-opacity:1;fill-rule:nonzero;stroke:none"
             id="path873" />
        </g>
      </g>
      <g
         transform="translate(-680.84282,151.52289)"
         id="g875">
        <g
           id="g877"
           clip-path="url(#clipPath881)">
          <path
             d="m 621.76001,46.560001 h 25.27997 V 281.92001 h -25.27997 z"
             style="fill:#808080;fill-opacity:1;fill-rule:nonzero;stroke:none"
             id="path883" />
        </g>
      </g>
      <g
         transform="translate(-680.84282,151.52289)"
         id="g885">
        <g
           id="g887"
           clip-path="url(#clipPath891)">
          <path
             d="M 46.880001,46.560001 H 72.160004 V 282.07999 H 46.880001 Z"
             style="fill:#808080;fill-opacity:1;fill-rule:nonzero;stroke:none"
             id="path893" />
        </g>
      </g>
    </g>
  </g>
</svg>
