<?xml version="1.0" encoding="UTF-8" standalone="no"?>
<svg
   xmlns:dc="http://purl.org/dc/elements/1.1/"
   xmlns:cc="http://creativecommons.org/ns#"
   xmlns:rdf="http://www.w3.org/1999/02/22-rdf-syntax-ns#"
   xmlns:svg="http://www.w3.org/2000/svg"
   xmlns="http://www.w3.org/2000/svg"
   id="svg8"
   version="1.1"
   viewBox="0 0 105.83334 92.604173"
   height="350"
   width="400">
  <defs
     id="defs2">
    <clipPath
       clipPathUnits="userSpaceOnUse"
       id="clipPath839">
      <path
         d="M 0.32,0 V 971.35998 H 1375.6801 V 0 Z"
         id="path837"
         style="clip-rule:evenodd" />
    </clipPath>
    <clipPath
       clipPathUnits="userSpaceOnUse"
       id="clipPath879">
      <path
         d="m 179.03999,183.67999 -0.15999,0.64002 -0.16,0.79998 -0.16,0.96001 -0.16001,0.8 -0.31999,1.92 -0.16,0.80001 -0.31999,1.91999 -0.16001,0.80001 -0.16,0.95999 v 0.47999 h 0.96 l 1.92,0.32001 0.80001,0.16 1.91999,0.32 0.79999,0.16 1.92002,0.31999 0.79998,0.16001 1.92002,0.32 0.79998,0.15999 L 192,196.16 l 0.8,0.16001 1.92,0.31999 0.8,0.16 1.92,0.31999 0.8,0.16001 2.87999,0.47999 0.80001,0.16001 1.92,0.32 0.8,0.15999 1.92,0.32001 0.8,0.16 2.88,0.48 0.79999,0.16 1.92002,0.32 0.79998,0.16 1.92,0.32001 0.80001,0.15999 1.91999,0.32 0.80001,0.16001 2.88,0.47999 0.8,0.16001 1.92,0.31999 0.80001,0.16 1.91999,0.31999 0.80001,0.16001 2.87999,0.47999 0.8,0.16001 1.92,0.32 0.8,0.15999 1.92,0.32001 0.8,0.16 2.88001,0.48 0.79998,0.16 1.92,0.31999 0.80001,0.16001 1.91999,0.32001 0.80001,0.15998 2.88,0.48001 0.8,0.15999 1.92,0.32001 0.80001,0.16 1.91999,0.32 0.79999,0.16 1.92002,0.31999 0.79998,0.16001 2.88001,0.48001 0.79999,0.15999 1.92001,0.32 0.79999,0.16001 1.92001,0.31999 0.79999,0.16 2.88,0.48 0.80002,0.16 1.91999,0.31999 0.80001,0.16001 1.91999,0.32 0.80001,0.15999 2.87998,0.48001 0.80002,0.15999 1.91998,0.32001 0.80002,0.16 1.91998,0.32 0.80002,0.16 1.91998,0.32001 0.80002,0.15998 2.87998,0.48002 0.80001,0.15998 1.91999,0.32001 0.80001,0.16 1.91999,0.32 0.80002,0.16 2.88,0.48 0.79999,0.16 1.92001,0.31999 L 304,215.84 l 1.92001,0.32 0.79999,0.16001 2.88001,0.47999 0.79998,0.16001 1.92002,0.31999 0.79999,0.16 1.92001,0.31999 0.79999,0.16001 2.88,0.47999 0.79999,0.16001 1.92001,0.32 0.79999,0.15999 1.92001,0.32001 0.79999,0.16 0.16001,0.15999 V 218.88 l 0.16,-0.8 0.16,-0.96001 0.16001,-0.79998 0.16,-0.96001 0.16,-0.8 0.15998,-0.95999 0.16,-0.80001 0.32001,-1.92 0.16,-0.8 0.16,-0.32001 L 324.95999,209.44 324.16,209.28 322.23999,208.96001 321.44,208.8 319.51999,208.48 318.72,208.32001 316.79999,208 316,207.84 314.07999,207.52 313.28,207.36 311.35999,207.03999 310.56,206.88 l -0.95999,-0.16 -0.80002,-0.16 -1.91999,-0.32 -0.80001,-0.16 -1.91999,-0.32001 -0.80001,-0.15998 L 301.44,205.28 300.64001,205.11999 298.72,204.8 297.92001,204.64 296,204.32001 295.20001,204.16 293.28,203.84 292.48001,203.67999 290.56,203.36 289.76001,203.2 287.84,202.88 287.04001,202.72 285.12,202.39999 284.32001,202.24 282.39999,201.92 281.60001,201.75999 279.67999,201.44 278.88,201.28 276.95999,200.96001 276.16,200.8 274.23999,200.48 273.44,200.32001 271.51999,200 270.72,199.84 268.79999,199.52 268,199.36 266.07999,199.03999 265.28,198.88 263.35999,198.56 262.56,198.39999 260.64001,198.08 259.84,197.92 257.92001,197.60001 257.12,197.44 255.2,197.11999 254.39999,196.96001 252.48,196.64 l -0.80001,-0.16 -1.92,-0.32 -0.79998,-0.16 -1.92002,-0.32001 L 246.24,195.52 244.32001,195.2 243.52,195.03999 241.60001,194.72 240.8,194.56 l -1.92,-0.32 -0.8,-0.16 -0.96001,-0.16 -0.79998,-0.16001 -1.92002,-0.31999 -0.79998,-0.16 -1.92002,-0.31999 L 230.88,192.8 228.96001,192.48 228.16,192.32001 226.24,192 l -0.8,-0.16 -1.92,-0.32 -0.8,-0.16 -1.92,-0.32001 -0.8,-0.15999 -1.92,-0.32 -0.8,-0.16001 -1.92,-0.31999 -0.8,-0.16 -1.92,-0.31999 -0.8,-0.16001 -1.92,-0.32001 -0.80001,-0.15998 L 207.2,188.64 l -0.80001,-0.16 -1.91999,-0.32 -0.80001,-0.16 -1.92,-0.32001 -0.79998,-0.15999 -1.92002,-0.32 -0.79999,-0.16001 -1.91999,-0.31999 -0.80001,-0.16 -1.91999,-0.32 -0.80001,-0.16 -1.92,-0.32001 -0.8,-0.15998 -1.92,-0.32001 -0.8,-0.16001 -1.92,-0.31999 -0.8,-0.16 -1.92,-0.31999 -0.8,-0.16001 -1.92,-0.32 -0.8,-0.16001 z"
         id="path877"
         style="clip-rule:evenodd" />
    </clipPath>
    <clipPath
       clipPathUnits="userSpaceOnUse"
       id="clipPath889">
      <path
         d="m 159.2,226.24 -0.16001,0.48 -0.47999,2.88001 -0.16001,1.11999 -0.64,3.84 -0.15998,1.11999 V 236.16 h 0.79998 l 0.80001,0.16001 1.91999,0.31999 0.80001,0.16 1.92,0.31999 0.8,0.16001 1.92,0.32001 0.8,0.15998 1.92,0.32001 0.8,0.16 1.92,0.32 0.8,0.16 1.92,0.31999 0.8,0.16001 1.92,0.32 0.8,0.15999 1.92,0.32001 0.80001,0.16 2.87999,0.48 0.8,0.16 1.92,0.31999 0.8,0.16001 1.92,0.32001 0.8,0.15998 1.92,0.32001 0.8,0.16 1.92,0.32 0.8,0.16 1.92,0.31999 0.8,0.16001 1.92,0.32 0.80001,0.15999 L 202.88,244 l 0.79999,0.16 1.92002,0.32 0.79998,0.16 1.92002,0.32001 0.79998,0.15998 1.92,0.32001 0.80001,0.16001 1.91999,0.31999 0.80001,0.16 2.88,0.48 0.8,0.16 1.92,0.31999 0.80001,0.16001 1.91999,0.32 0.79999,0.15999 1.92002,0.32001 0.79998,0.16 1.92002,0.32 0.79998,0.16 1.92,0.32001 0.80001,0.15998 1.91999,0.32001 0.80001,0.16001 1.92,0.31999 0.8,0.16 1.92,0.31999 0.8,0.16001 1.92,0.32 0.8,0.15999 1.92,0.32001 0.8,0.16 1.92,0.32 0.8,0.16 1.92,0.32001 0.8,0.15999 2.87999,0.48001 0.80001,0.15998 1.92001,0.32001 0.79999,0.16001 1.92001,0.31999 0.79999,0.16 1.92001,0.31999 0.79999,0.16001 1.92001,0.32 0.79999,0.15999 1.91999,0.32001 0.80001,0.16 1.91999,0.32 0.80001,0.16 1.91999,0.32001 0.80002,0.16 1.91998,0.31998 0.80002,0.16 1.91998,0.32001 0.80002,0.16 1.91998,0.32001 0.80002,0.16 1.91998,0.31998 0.80002,0.16 2.87998,0.48001 0.80001,0.16001 1.91999,0.31998 0.80001,0.16 1.91999,0.32001 0.80002,0.16 1.91998,0.32001 0.80002,0.16 1.91998,0.31998 0.80002,0.16 1.91998,0.32001 0.80002,0.16 1.91998,0.32001 0.80002,0.16 1.91998,0.31998 0.80002,0.16 1.91999,0.32001 0.80001,0.16 1.91999,0.32001 0.80001,0.15998 1.91999,0.32 0.79999,0.16001 1.92001,0.32 0.79999,0.16001 1.92001,0.32 0.79999,0.15998 2.88,0.48001 0.80002,0.16 1.91998,0.32001 0.80002,0.16 1.91999,0.31998 0.80001,0.16 1.91999,0.32001 0.80001,0.16 1.91999,0.32001 0.32,0.15998 V 266.72 l 0.32001,-1.92001 0.15998,-0.79999 0.32,-1.92001 0.16001,-0.79999 0.16,-0.95999 0.16,-0.80002 0.32001,-1.91998 0.16,-0.16001 -0.32,-0.16 -0.96002,-0.16 -0.79999,-0.16001 -1.91999,-0.31998 -0.80001,-0.16 L 329.92001,256.16 329.12,256 326.23999,255.52 325.44,255.36 323.51999,255.03999 322.72,254.88 320.79999,254.56 320,254.39999 318.07999,254.08 317.28,253.92 315.35999,253.60001 314.56,253.44 312.64001,253.11999 311.84,252.96001 309.92001,252.64 309.12,252.48 l -1.91999,-0.32 -0.80002,-0.16 -2.88,-0.48 -0.79999,-0.16 -1.92001,-0.32001 L 300,250.88 298.07999,250.56 297.28,250.39999 295.35999,250.08 294.56,249.92 292.64001,249.60001 291.84,249.44 l -1.91999,-0.32001 -0.80001,-0.15998 -1.91999,-0.32001 -0.80002,-0.16 -1.91998,-0.32 -0.80002,-0.16 -2.88,-0.48 L 280,247.36 278.07999,247.03999 277.28,246.88 275.35999,246.56 274.56,246.39999 272.64001,246.08 271.84,245.92 269.92001,245.60001 269.12,245.44 l -1.91999,-0.32001 -0.80002,-0.15998 -1.91998,-0.32001 -0.80002,-0.16 -2.88,-0.48 -0.79999,-0.16 -1.92001,-0.32 -0.79999,-0.16 -1.92,-0.32001 -0.8,-0.15999 -1.92,-0.32 -0.8,-0.16001 -1.92,-0.31999 -0.80001,-0.16 -1.91999,-0.31999 -0.80001,-0.16001 -1.91999,-0.32001 -0.80001,-0.15998 -1.92,-0.32001 -0.79998,-0.16 -2.88001,-0.48 -0.8,-0.16 -1.92,-0.32 -0.8,-0.16 -1.92,-0.32001 -0.8,-0.15999 -1.92,-0.32 -0.80001,-0.16001 L 227.2,238.08 l -0.80001,-0.16 -1.91999,-0.31999 -0.80001,-0.16001 -1.92,-0.32001 -0.79998,-0.15998 -1.92002,-0.32001 -0.79999,-0.16 -2.88,-0.48 -0.8,-0.16 -1.92,-0.32 -0.8,-0.16 -1.92,-0.32001 L 209.11999,234.88 207.2,234.56 206.39999,234.39999 204.48,234.08 l -0.80001,-0.16 -1.92,-0.31999 -0.79998,-0.16001 -1.92002,-0.32001 -0.79999,-0.15998 -1.91999,-0.32001 -0.80001,-0.16 -2.88,-0.48 -0.8,-0.16 -1.92,-0.32 -0.80001,-0.16 -1.91999,-0.32001 -0.80001,-0.15999 -1.91999,-0.32 -0.80001,-0.16001 -1.92,-0.31999 -0.79998,-0.16 -1.92002,-0.31999 L 178.24,229.44 176.32001,229.11999 175.52,228.96001 172.64,228.48 171.84,228.32001 169.92,228 l -0.80001,-0.16 -1.91999,-0.32 -0.80001,-0.16 -1.91999,-0.32001 -0.80001,-0.15999 -1.92,-0.32 -0.79998,-0.16001 L 160,226.24 Z"
         id="path887"
         style="clip-rule:evenodd" />
    </clipPath>
    <clipPath
       clipPathUnits="userSpaceOnUse"
       id="clipPath899">
      <path
         d="m 129.75999,320.16 -0.15998,0.32001 -0.16001,1.12 -1.28,7.67999 v 0.64001 h 0.16001 l 1.91999,0.31998 0.79999,0.16 1.92002,0.32001 0.79998,0.16 1.92,0.32001 0.80001,0.15998 1.91999,0.32 0.80001,0.16001 1.91999,0.32 0.80001,0.16001 1.92,0.32 0.8,0.15998 1.92,0.32001 0.8,0.16 1.92,0.32001 0.8,0.16 1.92,0.31998 0.8,0.16 1.92,0.32001 0.8,0.16 1.92,0.32001 0.8,0.16 1.92,0.31998 0.80001,0.16 L 162.88,336 l 0.79999,0.16 1.92002,0.32001 0.79998,0.16 1.92002,0.31998 0.79998,0.16001 1.92,0.32 0.80001,0.16001 1.91999,0.32 0.80001,0.15998 1.92,0.32 0.8,0.16001 1.92,0.32 0.8,0.16001 1.92,0.31998 0.8,0.16 1.92,0.32001 0.8,0.16 1.92,0.32001 0.8,0.16 1.92,0.31998 0.8,0.16 1.92,0.32001 0.80001,0.16 1.91999,0.32001 0.80001,0.16 1.91999,0.31998 0.79999,0.16 1.92002,0.32001 0.79998,0.16 1.92,0.32001 0.80001,0.15998 1.91999,0.32 0.80001,0.16001 1.91999,0.32 0.80001,0.16001 2.88,0.47998 0.80001,0.16 1.91999,0.32001 0.80001,0.16 1.91999,0.32001 0.79999,0.16 1.92002,0.31998 0.79998,0.16 1.92,0.32001 0.80001,0.16 1.91999,0.32001 0.80001,0.15998 1.91999,0.32 0.80001,0.16001 1.92,0.32 0.8,0.16001 1.92,0.32 0.8,0.15998 1.92,0.32001 0.8,0.16 1.92,0.32001 0.8,0.16 1.92,0.31998 0.8,0.16 1.92,0.32001 0.8,0.16 1.92,0.32001 0.80001,0.16 1.91999,0.31998 0.79999,0.16 1.92002,0.32001 0.79998,0.16 1.92002,0.32001 0.79999,0.16 1.92001,0.31998 0.79999,0.16001 1.92001,0.32 0.79999,0.16001 1.92001,0.32 0.79999,0.15998 1.92001,0.32 L 268,354.56 l 1.92001,0.32 0.79999,0.16001 1.92001,0.31998 0.79999,0.16 1.91999,0.32001 0.80001,0.16 1.91999,0.32001 0.80001,0.16 1.91999,0.31998 0.80002,0.16 1.91998,0.32001 0.80002,0.16 1.91998,0.32001 0.80002,0.16 1.91998,0.31998 0.80002,0.16 1.91998,0.32001 0.80002,0.16 1.91998,0.32001 0.80002,0.15998 1.91999,0.32 0.80001,0.16001 1.91999,0.32 0.80001,0.16001 1.91999,0.32 0.79999,0.15998 1.92001,0.32001 0.79999,0.16 1.92001,0.32001 0.79999,0.16 1.92001,0.31998 0.79999,0.16 1.92001,0.32001 0.79999,0.16 1.92001,0.32001 0.79999,0.16 1.92001,0.31998 0.79999,0.16 1.92002,0.32001 0.79998,0.16 1.92002,0.32001 0.79999,0.16 1.92001,0.31998 0.79999,0.16001 1.92001,0.32 0.79999,0.16001 1.92001,0.32 0.79999,0.15998 1.92001,0.32 L 336,366.56 l 1.92001,0.32 0.79999,0.16001 2.88001,0.47998 0.79998,0.16 1.92002,0.32001 0.79999,0.16 1.92001,0.32001 0.79999,0.16 1.92001,0.31998 0.79999,0.16001 1.92001,0.32 0.79999,0.16001 1.92001,0.32 0.79999,0.15998 1.92001,0.32 0.79999,0.16001 1.92001,0.32 0.79999,0.16001 1.91999,0.31998 0.80001,0.16 1.91999,0.32001 0.80001,0.16 1.91999,0.32001 0.80002,0.16 1.91998,0.31998 0.80002,0.16 1.91998,0.32001 v -0.48001 l 0.16,-0.79999 0.16001,-0.95999 0.16,-0.80002 0.16,-0.95999 0.16001,-0.79999 0.16,-0.96002 0.15998,-0.79999 0.32,-1.92001 L 375.84,364 l 0.16,-0.48001 -0.95999,-0.16 -0.80002,-0.15998 -1.91998,-0.32001 -0.80002,-0.16 -1.91998,-0.32001 -0.80002,-0.16 -1.91999,-0.31998 -0.80001,-0.16 -1.91999,-0.32001 -0.80001,-0.16 -1.91999,-0.32001 -0.79999,-0.16 -2.88,-0.47998 -0.80002,-0.16001 -1.91998,-0.32 -0.80002,-0.16001 -1.91998,-0.32 -0.80002,-0.15998 -1.91998,-0.32001 -0.80002,-0.16 -1.91999,-0.32001 -0.80001,-0.16 -1.91999,-0.31998 -0.80001,-0.16 -1.91999,-0.32001 -0.79999,-0.16 -1.92001,-0.32001 -0.79999,-0.16 -1.92001,-0.31998 -0.79999,-0.16 L 333.28,356 l -0.79999,-0.16 -1.92001,-0.32001 -0.79999,-0.16 -1.92001,-0.31998 -0.79999,-0.16001 -1.92001,-0.32 -0.79999,-0.16001 -1.92002,-0.32 -0.79998,-0.15998 -1.92002,-0.32 -0.79999,-0.16001 -1.92001,-0.32 -0.79999,-0.16001 -1.92001,-0.31998 -0.79999,-0.16 L 311.51999,352.16 310.72,352 l -2.88,-0.48001 -0.79999,-0.16 -1.92001,-0.31998 -0.79999,-0.16001 -1.92002,-0.32 -0.79998,-0.16001 -1.92002,-0.32 -0.79999,-0.15998 -1.92001,-0.32 -0.79999,-0.16001 -1.92001,-0.32 -0.79999,-0.16001 -1.92001,-0.31998 -0.79999,-0.16 L 288.79999,348.16 288,348 l -1.92001,-0.32001 -0.79999,-0.16 -1.92001,-0.31998 -0.79999,-0.16 -1.91999,-0.32001 -0.80001,-0.16 -1.91999,-0.32001 -0.80001,-0.16 -1.91999,-0.31998 -0.80002,-0.16 -1.91998,-0.32001 -0.80002,-0.16 -1.91998,-0.32001 -0.80002,-0.15998 -1.91998,-0.32 -0.80002,-0.16001 -1.91998,-0.32 -0.80002,-0.16001 -1.91998,-0.32 -0.80002,-0.15998 -2.87998,-0.48001 -0.80001,-0.16 -1.92,-0.32001 -0.80001,-0.16 -1.91999,-0.31998 -0.80001,-0.16 -1.92,-0.32001 -0.79998,-0.16 -1.92002,-0.32001 -0.79999,-0.15998 -1.91999,-0.32 -0.80001,-0.16001 -1.91999,-0.32 -0.80001,-0.16001 -1.92,-0.32 -0.8,-0.15998 -1.92,-0.32001 -0.8,-0.16 -1.92,-0.32001 -0.8,-0.16 -1.92,-0.31998 -0.8,-0.16 -1.92,-0.32001 -0.8,-0.16 -1.92,-0.32001 -0.8,-0.16 -1.92,-0.31998 -0.80001,-0.16 L 219.84,336 l -0.80001,-0.16 -1.92,-0.32001 -0.79998,-0.16 -1.92002,-0.31998 -0.79998,-0.16001 -1.92002,-0.32 -0.79999,-0.16001 -2.88,-0.47998 -0.8,-0.16 -1.92,-0.32001 -0.8,-0.16 -1.92,-0.32001 -0.80001,-0.16 -1.91999,-0.31998 -0.80001,-0.16 -1.92,-0.32001 -0.79998,-0.16 -1.92002,-0.32001 -0.79998,-0.16 -1.92002,-0.31998 -0.79999,-0.16001 -1.91999,-0.32 -0.80001,-0.16001 -1.92,-0.32 -0.8,-0.15998 -1.92,-0.32 -0.8,-0.16001 -1.92,-0.32 -0.8,-0.16001 -1.92,-0.31998 -0.8,-0.16 -1.92,-0.32001 -0.8,-0.16 -1.92,-0.32001 -0.8,-0.16 -1.92,-0.31998 -0.80001,-0.16 L 167.2,326.72 l -0.80001,-0.16 -1.91999,-0.32001 -0.80001,-0.16 -1.92,-0.31998 -0.79998,-0.16 -1.92002,-0.32001 -0.79999,-0.16 -2.88,-0.47999 -0.8,-0.16 -1.92,-0.32001 -0.8,-0.16 -1.92,-0.32001 -0.80001,-0.16 -1.91999,-0.31998 -0.80001,-0.16 -1.91999,-0.32001 -0.80001,-0.16 -1.92,-0.32001 -0.79998,-0.16 -1.92002,-0.31998 -0.79999,-0.16 -1.91999,-0.32001 -0.80001,-0.16 -1.91999,-0.32001 -0.80001,-0.15998 -1.92,-0.32 -0.8,-0.16001 z"
         id="path897"
         style="clip-rule:evenodd" />
    </clipPath>
  </defs>
  <metadata
     id="metadata5">
    <rdf:RDF>
      <cc:Work
         rdf:about="">
        <dc:format>image/svg+xml</dc:format>
        <dc:type
           rdf:resource="http://purl.org/dc/dcmitype/StillImage" />
        <dc:title></dc:title>
      </cc:Work>
    </rdf:RDF>
  </metadata>
  <g
     transform="translate(0,-204.39581)"
     id="layer1">
    <g
       id="g823"
       transform="matrix(0.26458333,0,0,0.26458333,-7.6623276,-20.639094)">
      <g
         transform="translate(5.7142856,747.57871)"
         id="g829">
        <path
           d="M 201.92,391.67999 H 252 v 50.24002 h -50.08 z"
           style="fill:#a52a2a;fill-opacity:1;fill-rule:nonzero;stroke:none"
           id="path831" />
      </g>
      <g
         transform="translate(5.7142856,747.57871)"
         id="g833">
        <g
           id="g835"
           clip-path="url(#clipPath839)">
          <g
             id="g841">
            <path
               d="M 227.00999,146.66 126.94,221.61 h 199.98001 z"
               style="fill:#008000;fill-opacity:1;fill-rule:nonzero;stroke:none"
               id="path843" />
          </g>
          <g
             id="g845">
            <path
               d="M 227.00999,191.66 76.980003,291.60001 H 377.03 Z"
               style="fill:#008000;fill-opacity:1;fill-rule:nonzero;stroke:none"
               id="path847" />
          </g>
          <g
             id="g849">
            <path
               d="M 227.00999,241.63 46.880001,391.70999 H 406.97 Z"
               style="fill:#008000;fill-opacity:1;fill-rule:nonzero;stroke:none"
               id="path851" />
          </g>
          <g
             id="g853"
             transform="translate(221.08,131.92)">
            <path
               d="M 0,0 12.65,-11.05 9.45,5.45 23.860001,13.78 7.21,16.18 3.69,32.360001 -3.68,17.299999 -20.49,18.42 -8.16,7.21 -14.41,-8.33 Z"
               style="fill:#ffa500;fill-opacity:1;fill-rule:nonzero;stroke:none"
               id="path855" />
          </g>
          <g
             id="g857"
             transform="translate(223.81,131.11999)">
            <path
               d="M 0,0 12.64,-10.89 9.44,5.45 23.85,13.78 7.2,16.18 3.84,32.52 -3.69,17.299999 -20.5,18.42 -8.17,7.37 -14.41,-8.33 Z"
               style="fill:#ffa500;fill-opacity:1;fill-rule:nonzero;stroke:none"
               id="path859" />
          </g>
          <g
             id="g861"
             transform="translate(224.45,133.85001)">
            <path
               d="M 0,0 12.64,-10.9 9.6,5.6 23.85,13.77 7.36,16.17 3.84,32.509998 -3.69,17.290001 -20.34,18.41 -8.01,7.36 -14.25,-8.17 Z"
               style="fill:#ffa500;fill-opacity:1;fill-rule:nonzero;stroke:none"
               id="path863" />
          </g>
          <g
             id="g865"
             transform="translate(221.72,134.64999)">
            <path
               d="M 0,0 12.65,-11.06 9.61,5.44 23.860001,13.77 7.37,16.17 3.85,32.349998 -3.68,17.290001 -20.33,18.41 -8,7.36 -14.25,-8.33 Z"
               style="fill:#ffa500;fill-opacity:1;fill-rule:nonzero;stroke:none"
               id="path867" />
          </g>
          <g
             id="g869"
             transform="translate(222.84,132.88)">
            <path
               d="M 0,0 12.65,-11.05 9.45,5.45 23.860001,13.78 7.21,16.18 3.69,32.360001 -3.68,17.299999 -20.49,18.42 -8.16,7.37 -14.41,-8.32 Z"
               style="fill:#ffff00;fill-opacity:1;fill-rule:nonzero;stroke:none"
               id="path871" />
          </g>
        </g>
      </g>
      <g
         transform="translate(5.7142856,747.57871)"
         id="g873">
        <g
           id="g875"
           clip-path="url(#clipPath879)">
          <path
             d="m 187.94,190.38 c -0.16,0.64 -0.32001,1.28 -0.64,1.76 -0.47999,0.64 -0.8,1.13 -1.44,1.45 -0.48,0.32 -1.12,0.64 -1.75999,0.8 -0.64,0.16 -1.28,0.16 -1.92002,0 -0.64,0 -1.28,-0.31999 -1.92999,-0.64 -0.48,-0.32001 -0.96001,-0.8 -1.28,-1.45 -0.48,-0.47999 -0.64,-1.12001 -0.8,-1.76001 -0.16001,-0.64 -0.16001,-1.28 0,-1.92 0,-0.63999 0.32,-1.27999 0.64,-1.75999 0.32,-0.64 0.8,-1.12 1.28,-1.44 0.65,-0.31999 1.13,-0.64 1.93,-0.80001 0.64,-0.15998 1.28,-0.15998 1.92,0 0.64,0 1.28,0.32001 1.76,0.64 0.64,0.32001 0.96,0.80001 1.44,1.44001 0.32001,0.47999 0.64,1.12001 0.8,1.76001 0.16001,0.64 0.16001,1.27999 0,1.91999 z m 19.69,3.53 c -0.16,0.64 -0.32,1.12 -0.64,1.76 -0.48001,0.47999 -0.8,0.96 -1.44,1.44 -0.47999,0.31999 -1.12001,0.64 -1.76001,0.8 -0.64,0.16001 -1.28,0.16001 -1.92,0 -0.63999,-0.16 -1.27999,-0.32 -1.91999,-0.8 -0.48,-0.32001 -0.96,-0.8 -1.28,-1.28 -0.48,-0.47999 -0.64,-1.11999 -0.80001,-1.75999 -0.15998,-0.64002 -0.15998,-1.29001 -0.15998,-1.93001 0.15998,-0.64 0.47999,-1.28 0.79998,-1.92 0.32001,-0.48 0.80001,-0.96001 1.28,-1.28 0.64,-0.47999 1.12001,-0.64 1.76001,-0.8 0.80001,-0.16 1.44,-0.16 2.08,-0.16 0.64,0.16 1.28,0.48001 1.76,0.8 0.47999,0.32001 0.96001,0.8 1.44,1.28 0.31999,0.64 0.64,1.11999 0.8,1.76001 0.15999,0.64 0.15999,1.28999 0,2.08999 z m 19.7,3.36 c -0.16,0.64 -0.32001,1.28 -0.64,1.92 -0.47999,0.48 -0.96,0.95999 -1.44,1.28 -0.48,0.48 -1.12,0.64 -1.77,0.8 -0.64,0.15999 -1.28,0.15999 -1.92,0.15999 -0.64,-0.15999 -1.28,-0.47999 -1.92,-0.79999 -0.48,-0.32 -0.96001,-0.8 -1.28,-1.27999 -0.48,-0.64 -0.64,-1.12001 -0.8,-1.76001 -0.16001,-0.64 -0.16001,-1.44001 -0.16001,-2.08001 0.16001,-0.64 0.48001,-1.11999 0.80001,-1.75999 0.32,-0.48 0.8,-0.97 1.28,-1.45 0.63999,-0.32 1.12001,-0.64 1.76,-0.8 0.64,-0.16 1.43999,-0.16 2.08001,0 0.64999,0.16 1.12999,0.32001 1.76999,0.64 0.48001,0.47999 0.96,0.97 1.44,1.45 0.32001,0.48001 0.64,1.12001 0.8,1.76001 0.16,0.63999 0.16,1.27999 0,1.91999 z m 19.69,3.51999 c -0.16,0.64 -0.32,1.28002 -0.8,1.76001 -0.32001,0.65 -0.8,1.12999 -1.28,1.45 -0.47999,0.32001 -1.11999,0.64 -1.76001,0.8 -0.64,0.16001 -1.28,0.16001 -1.92,0 -0.64,0 -1.27999,-0.32 -1.91999,-0.64 -0.48,-0.32 -0.96,-0.8 -1.28,-1.44999 -0.48999,-0.48001 -0.65,-1.12001 -0.81,-1.76001 -0.16,-0.64 -0.16,-1.28 -0.16,-1.92 0.16,-0.64 0.48001,-1.28 0.8,-1.76 0.33,-0.64 0.81,-1.12001 1.28999,-1.44 0.64002,-0.32001 1.12001,-0.64 1.76001,-0.8 0.64,-0.16001 1.28,-0.16001 2.08,0 0.64,0 1.12,0.32001 1.76,0.64 0.47999,0.32 0.96,0.8 1.44,1.44 0.31999,0.48 0.64,1.12 0.8,1.75999 0.15999,0.64 0.15999,1.28 0,1.92 z m 19.68999,3.53002 c -0.16,0.64 -0.31998,1.11999 -0.79999,1.75999 -0.32,0.48 -0.80001,0.95999 -1.28,1.44 -0.48001,0.32 -1.11999,0.64 -1.76,0.80001 -0.63999,0.15999 -1.28,0.15999 -1.91999,0 C 260.31,208.16 259.67001,208 259.03,207.67999 258.54999,207.2 258.07001,206.72 257.75,206.24 c -0.48001,-0.48001 -0.79999,-1.12001 -0.79999,-1.76 -0.16,-0.64 -0.16,-1.28 -0.16,-1.93 0.16,-0.64 0.47998,-1.28 0.79999,-1.92 0.32,-0.48001 0.80001,-0.96 1.28,-1.27999 0.64001,-0.48002 1.11999,-0.64 1.76,-0.80001 0.63999,-0.16 1.28,-0.16 2.07999,-0.16 0.64002,0.16 1.12,0.47999 1.76001,0.8 0.48001,0.31999 0.95999,0.8 1.44,1.28 0.32001,0.64 0.63999,1.12 0.79999,1.76 0,0.65 0.16001,1.44999 0,2.09001 z m 19.70001,3.35998 c -0.16,0.64002 -0.32,1.28002 -0.80001,1.92002 -0.31998,0.47999 -0.79999,0.95999 -1.28,1.27999 -0.47998,0.48 -1.12,0.64 -1.75998,0.79999 -0.64002,0.16001 -1.29001,0.16001 -1.93,0.16001 -0.64001,-0.16001 -1.28002,-0.48 -1.92001,-0.80001 -0.48001,-0.31999 -0.95999,-0.79999 -1.44,-1.28 -0.32001,-0.64 -0.63999,-1.11999 -0.63999,-1.75999 -0.16,-0.64 -0.16,-1.28 -0.16,-2.08 0.16,-0.64 0.31998,-1.12 0.79999,-1.76 0.32001,-0.48001 0.79999,-0.96 1.28,-1.44999 0.64001,-0.32001 1.11999,-0.64 1.76001,-0.80001 0.63998,-0.16 1.28998,-0.16 1.92999,0 0.79999,0.16001 1.28,0.32 1.92001,0.80001 0.47998,0.32998 0.95999,0.80999 1.43998,1.28999 0.32,0.48 0.64001,1.11999 0.80001,1.75999 0,0.64 0.16001,1.28 0,1.92 z M 306.10001,211.2 c -0.16001,0.64 -0.32001,1.28 -0.80002,1.77 -0.31998,0.64 -0.79999,1.12 -1.28,1.44 -0.47998,0.32 -1.12,0.64 -1.75998,0.80001 -0.64001,0.15998 -1.28,0.15998 -1.92001,0 -0.79999,0 -1.28,-0.32001 -1.91999,-0.64 C 297.94,214.25 297.45999,213.77 296.98001,213.13 296.66,212.64 296.34,212 296.34,211.36 c -0.16001,-0.64 -0.16001,-1.28 -0.16001,-1.92 0.16001,-0.64 0.32001,-1.28 0.80002,-1.76001 0.31998,-0.64 0.79999,-1.11999 1.28,-1.43999 0.47998,-0.32 1.11999,-0.63999 1.75998,-0.8 0.64001,-0.16 1.28,-0.16 1.92001,0 0.63999,0.16001 1.28,0.31999 1.91999,0.64 0.48001,0.31999 0.96002,0.8 1.44,1.44 0.32001,0.48 0.64001,1.12 0.64001,1.76 0.16001,0.64 0.16001,1.28 0.16001,1.92 z m 19.69998,3.53 c -0.15998,0.63999 -0.31998,1.12001 -0.79999,1.76 -0.32001,0.48 -0.81,0.96 -1.29001,1.43999 -0.63998,0.32001 -1.11999,0.64002 -1.75998,0.80001 -0.64001,0.16 -1.28,0.16 -1.92001,0 -0.79999,-0.15999 -1.28,-0.32 -1.92001,-0.64 -0.47999,-0.48 -0.96,-0.80001 -1.43998,-1.44001 C 316.35001,216.17 316.03,215.53 315.87,214.89 c 0,-0.64 -0.16001,-1.28 0,-1.92 0.16,-0.64999 0.32,-1.29001 0.80001,-1.93001 0.31998,-0.47999 0.79999,-0.95999 1.28,-1.28 0.47998,-0.47999 1.12,-0.64 1.75998,-0.79998 0.64002,-0.16001 1.28,-0.16001 1.92001,-0.16001 0.63999,0.16001 1.28,0.48 1.91999,0.80001 0.48001,0.31999 0.96002,0.79998 1.45001,1.27999 0.32001,0.64 0.64001,1.12 0.64001,1.76 0.15998,0.64999 0.15998,1.45 0.15998,2.09 z"
             style="fill:#00ffff;fill-opacity:1;fill-rule:nonzero;stroke:none"
             id="path881" />
        </g>
      </g>
      <g
         transform="translate(5.7142856,747.57871)"
         id="g883">
        <g
           id="g885"
           clip-path="url(#clipPath889)">
          <path
             d="m 168.25,232.83 c -0.16,0.64 -0.48,1.28 -0.8,1.76 -0.32,0.48001 -0.80001,0.96 -1.28,1.44 -0.65,0.32001 -1.13001,0.64 -1.77001,0.8 -0.79998,0.16 -1.43998,0.16 -2.07998,0 -0.64002,-0.16 -1.28002,-0.32001 -1.76001,-0.64 -0.48,-0.47999 -0.95999,-0.8 -1.44001,-1.44 -0.31999,-0.48 -0.63999,-1.12 -0.79998,-1.76 -0.16001,-0.65 -0.16001,-1.29 0,-1.93 0.15999,-0.64 0.31999,-1.28 0.64,-1.92 0.47999,-0.48 0.79998,-0.96001 1.43998,-1.28 0.48001,-0.48 1.12001,-0.64 1.76001,-0.8 0.64,-0.16001 1.28,-0.16001 1.92,-0.16001 0.64,0.16001 1.28,0.48001 1.92999,0.80001 0.48001,0.32 0.96001,0.8 1.28,1.28 0.48001,0.63999 0.64,1.12001 0.80001,1.76 0.16,0.79999 0.16,1.43999 0.16,2.09 z m 18.57001,3.2 c -0.16001,0.64 -0.48001,1.28 -0.80001,1.75999 -0.32,0.64 -0.8,1.12001 -1.28,1.44001 -0.63999,0.48001 -1.12001,0.63999 -1.76,0.8 -0.64,0.16 -1.28,0.16 -2.08001,0 -0.64999,0 -1.12999,-0.31999 -1.76999,-0.64 -0.48001,-0.31999 -0.96,-0.8 -1.44,-1.28 -0.32001,-0.64 -0.64,-1.28 -0.8,-1.92 0,-0.64 -0.16,-1.28 0,-1.92 0.16,-0.64 0.32001,-1.28 0.8,-1.77 0.31999,-0.64 0.8,-1.12 1.28,-1.44 0.48,-0.32 1.12,-0.64 1.77,-0.80001 0.64,-0.15998 1.28,-0.15998 1.92,0 0.64,0.16001 1.28,0.32001 1.92,0.64 0.48,0.48001 0.95999,0.80001 1.28,1.44001 0.48,0.49 0.64,1.13 0.8,1.77 0.16001,0.64 0.16001,1.28 0.16001,1.92 z m 18.56999,3.36 c -0.16,0.64 -0.31999,1.11999 -0.8,1.75999 -0.32,0.48001 -0.80001,0.96001 -1.28,1.45002 -0.48,0.31999 -1.12,0.63999 -1.76,0.79998 -0.64,0.16001 -1.28,0.16001 -1.92,0 -0.64,-0.15999 -1.27999,-0.31999 -1.91999,-0.64 C 197.23,242.27 196.75,241.78999 196.27,241.31 c -0.32,-0.48 -0.64,-1.12 -0.64,-1.76 -0.16,-0.64 -0.16,-1.28 -0.16,-1.92 0.16,-0.64 0.31999,-1.27999 0.8,-1.91999 0.32,-0.48001 0.80001,-0.96001 1.28,-1.28002 0.48,-0.47999 1.12,-0.64 1.76,-0.79999 0.64,-0.16 1.28,-0.16 1.92,-0.16 0.8,0.16 1.27999,0.48 1.91999,0.8 0.48001,0.32 0.96001,0.80001 1.44001,1.28 0.32,0.64 0.64,1.12 0.8,1.76 0,0.64 0,1.44 0,2.08 z m 18.58,3.21001 c -0.16,0.63999 -0.32001,1.27999 -0.81,1.75999 -0.32,0.64 -0.8,1.12 -1.28,1.44 -0.48001,0.48 -1.12001,0.64 -1.76001,0.80001 -0.63999,0.15998 -1.27999,0.15998 -1.91999,0 -0.64,0 -1.28,-0.32001 -1.92,-0.64 -0.48,-0.32001 -0.95999,-0.80001 -1.28,-1.28002 -0.48,-0.64 -0.64,-1.28 -0.8,-1.92 -0.16001,-0.64999 -0.16001,-1.28999 -0.16001,-1.92999 0.16001,-0.64 0.48001,-1.28 0.80001,-1.75999 0.32,-0.64002 0.8,-1.12001 1.27999,-1.44001 0.64,-0.32 1.12001,-0.64 1.76001,-0.8 0.64,-0.16 1.28,-0.16 2.08001,0 0.64,0.16 1.11999,0.31999 1.75999,0.64 0.48,0.48 0.95999,0.8 1.44,1.44 0.32,0.48 0.65,1.12 0.81,1.76 0.16,0.64 0.16,1.28 0,1.93001 z m 18.56999,3.36 c -0.15999,0.64 -0.31999,1.11999 -0.64,1.75999 -0.47999,0.48 -0.79998,0.95999 -1.43998,1.44 -0.48001,0.32 -1.12001,0.64 -1.76001,0.80001 -0.64,0 -1.29,0.15998 -1.93,0 -0.64,-0.16001 -1.28,-0.32001 -1.91999,-0.80001 -0.48002,-0.32 -0.96001,-0.8 -1.28,-1.28 -0.48001,-0.48001 -0.64002,-1.12001 -0.80001,-1.76001 -0.16,-0.63999 -0.16,-1.27999 0,-1.91999 0,-0.64 0.32,-1.28 0.64,-1.93 0.32,-0.48001 0.80001,-0.96 1.28,-1.28 0.64,-0.48001 1.12,-0.63999 1.76,-0.8 0.8,-0.16 1.44,-0.16 2.08999,-0.16 0.64,0.16 1.28002,0.47999 1.76001,0.8 0.64,0.31999 0.95999,0.8 1.44,1.28 0.32,0.64999 0.64,1.13 0.79999,1.77 0.16001,0.64 0.16001,1.28 0,2.08001 z m 18.57,3.19999 c -0.15998,0.64 -0.31998,1.28 -0.63999,1.76 -0.48001,0.64 -0.79999,1.11999 -1.44,1.44999 -0.48001,0.48002 -1.12,0.64 -1.76001,0.80001 -0.63999,0.16 -1.27999,0.16 -1.91998,0 -0.64,0 -1.28,-0.31999 -1.76001,-0.64 -0.64,-0.33 -1.12,-0.81 -1.45,-1.45 -0.48,-0.47999 -0.64,-1.11999 -0.8,-1.75999 -0.16001,-0.64002 -0.16001,-1.28002 0,-1.92002 0,-0.64 0.32,-1.28 0.64,-1.75999 0.32,-0.64 0.80999,-1.12 1.29,-1.44 0.64,-0.32 1.28,-0.64 1.92,-0.80001 0.64,-0.15999 1.28,-0.15999 1.91999,0 0.64001,0.16001 1.28002,0.32001 1.76001,0.64 0.64001,0.32001 1.11999,0.80001 1.44,1.44001 0.32,0.48001 0.64001,1.12001 0.79999,1.76 0.16,0.64 0.16,1.28 0,1.92 z m 18.57,3.20999 c 0,0.80001 -0.32,1.28 -0.63998,1.92 -0.32001,0.48001 -0.80002,0.96001 -1.44,1.44001 -0.48001,0.31999 -1.12,0.64 -1.76001,0.8 -0.63999,0 -1.28,0.16 -1.91999,0 -0.64001,-0.16 -1.28,-0.32001 -1.76001,-0.8 -0.64001,-0.32 -1.11999,-0.80001 -1.44,-1.28 -0.32001,-0.48 -0.64001,-1.12 -0.79999,-1.76 -0.16,-0.65001 -0.16,-1.29001 0,-1.93001 0,-0.64 0.31998,-1.27999 0.63999,-1.91999 0.32,-0.48 0.79999,-0.96 1.44,-1.44001 0.48001,-0.31999 1.12,-0.64 1.76001,-0.64 0.63998,-0.15998 1.28,-0.15998 1.91998,-0.15998 0.64002,0.15998 1.28,0.31999 1.76001,0.79998 0.63999,0.32001 1.12,0.80001 1.44,1.28 0.32001,0.64002 0.63999,1.12001 0.79999,1.76001 0.16001,0.64 0.16001,1.28 0,1.92999 z m 18.58002,3.36001 c 0,0.64 -0.32001,1.28001 -0.64001,1.75999 -0.32001,0.64001 -0.79999,1.12 -1.28,1.44 -0.65,0.32001 -1.29001,0.64002 -1.93,0.80002 -0.64001,0.16 -1.28,0.16 -1.92001,0 -0.63998,0 -1.28,-0.32001 -1.75998,-0.64001 -0.64001,-0.32001 -1.12002,-0.79999 -1.44,-1.44001 -0.32001,-0.47998 -0.64002,-1.11999 -0.80002,-1.75999 -0.16,-0.64 -0.16,-1.28 0,-1.92 0.16,-0.64 0.32001,-1.28 0.64001,-1.77 0.47999,-0.64 0.79999,-1.12 1.44001,-1.44001 0.47998,-0.31999 1.11999,-0.64 1.75998,-0.79998 0.64001,-0.16001 1.28,-0.16001 1.92001,0 0.64001,0 1.28,0.31999 1.76999,0.64 0.64001,0.31999 1.12002,0.79998 1.44,1.43998 0.48001,0.49001 0.64002,1.13001 0.80002,1.77001 0.16,0.64 0.16,1.28 0,1.92 z m 18.56998,3.19999 c 0,0.80002 -0.31998,1.28 -0.63999,1.92002 -0.32,0.47998 -0.79999,0.95999 -1.28,1.44998 -0.64001,0.32001 -1.11999,0.64001 -1.92001,0.64001 -0.63998,0.16001 -1.28,0.16001 -1.91998,0.16001 -0.64002,-0.16001 -1.29001,-0.32001 -1.77002,-0.80002 -0.63999,-0.32999 -0.95999,-0.81 -1.44,-1.28998 -0.31998,-0.48001 -0.63999,-1.12 -0.79999,-1.76001 -0.16001,-0.64001 -0.16001,-1.28 0,-1.92001 0.16,-0.63999 0.32,-1.28 0.64001,-1.91999 0.47998,-0.48001 0.79999,-0.96 1.44,-1.44 0.47999,-0.32001 1.12998,-0.64 1.76999,-0.64 0.63999,-0.16 1.28,-0.16 1.91999,-0.16 0.64001,0.16 1.28,0.32 1.92001,0.8 0.48001,0.31999 0.95999,0.8 1.28,1.28 0.48001,0.48 0.64001,1.12 0.79999,1.76001 0.16,0.63998 0.16,1.28 0,1.91998 z m 18.73001,3.37 c -0.16001,0.64001 -0.48001,1.28 -0.79999,1.76001 -0.32001,0.64001 -0.80002,1.11999 -1.28,1.44 -0.64001,0.32001 -1.12002,0.64001 -1.76001,0.79999 -0.64001,0.16 -1.28,0.16 -2.07999,0 -0.64001,0 -1.12002,-0.31998 -1.76001,-0.63999 -0.48001,-0.32 -0.95999,-0.80001 -1.44,-1.44 -0.32,-0.48001 -0.64001,-1.11999 -0.79999,-1.76001 -0.16,-0.64999 -0.16,-1.28998 0,-1.92999 0.15998,-0.63999 0.31998,-1.28 0.79999,-1.76001 0.32001,-0.63999 0.79999,-1.12 1.28,-1.44 0.48001,-0.31998 1.12,-0.63999 1.76001,-0.79999 0.63999,-0.16 1.28,-0.16 1.91998,0 0.64002,0 1.28,0.32001 1.92002,0.64001 0.47998,0.31998 0.95999,0.79999 1.28,1.43998 0.47998,0.48001 0.63998,1.12002 0.79998,1.76001 0.16001,0.64001 0.16001,1.27999 0.16001,1.92999 z"
             style="fill:#00ffff;fill-opacity:1;fill-rule:nonzero;stroke:none"
             id="path891" />
        </g>
      </g>
      <g
         transform="translate(5.7142856,747.57871)"
         id="g893">
        <g
           id="g895"
           clip-path="url(#clipPath899)">
          <path
             d="m 138.63,326.67999 c 0,0.64002 -0.32,1.28 -0.64,1.92002 -0.32,0.47998 -0.8,0.95999 -1.29,1.27999 -0.64,0.47999 -1.12,0.63999 -1.92,0.79999 -0.64,0.16001 -1.28,0.16001 -1.92,0.16001 -0.64,-0.16001 -1.28,-0.48001 -1.75999,-0.79999 -0.64,-0.32001 -0.96001,-0.80002 -1.44001,-1.28 -0.32,-0.64001 -0.64,-1.12 -0.8,-1.76001 -0.16,-0.79999 -0.16,-1.44 0,-2.07999 0.16,-0.64001 0.31999,-1.28 0.64,-1.76001 0.48,-0.64001 0.8,-0.95999 1.44,-1.44 0.48,-0.32999 1.12,-0.64999 1.76,-0.81 0.64,-0.16 1.28,-0.16 1.91999,0 0.64,0.16001 1.28,0.32001 1.92,0.63999 0.48001,0.49002 0.97,0.81 1.29001,1.45001 0.48,0.48001 0.64,1.12 0.8,1.76001 0.15999,0.63998 0.15999,1.28 0,1.91998 z m 19.69001,3.52002 c 0,0.63999 -0.32001,1.28 -0.64002,1.76999 -0.31999,0.63999 -0.79999,1.12 -1.28,1.44 -0.64,0.32001 -1.28,0.63999 -1.91999,0.79999 -0.64,0.16001 -1.28,0.16001 -1.92,0 -0.64,-0.16 -1.29,-0.31998 -1.77001,-0.63998 -0.64,-0.32001 -1.11999,-0.80002 -1.43998,-1.44001 -0.32001,-0.48001 -0.64,-1.13 -0.80001,-1.77001 -0.16,-0.63999 -0.16,-1.28 0,-1.91999 0.16001,-0.64001 0.31999,-1.28 0.64,-1.76001 0.48,-0.63998 0.8,-1.11999 1.44,-1.44 0.48,-0.47998 1.12999,-0.63998 1.76999,-0.79999 0.64,-0.16 1.28,-0.16 1.92002,0 0.64,0 1.28,0.32001 1.75999,0.63999 0.64,0.32 1.12,0.80001 1.44,1.44 0.48,0.48001 0.64,1.12002 0.80001,1.76001 0.15999,0.64001 0.15999,1.28 0,1.92001 z m 19.68998,3.53 c 0,0.63999 -0.31999,1.12 -0.64,1.75998 -0.31999,0.48001 -0.79998,0.96002 -1.27999,1.44 -0.64,0.32001 -1.28,0.64002 -1.92,0.80002 -0.64,0 -1.28,0.16 -1.92,0 -0.64,-0.16 -1.28,-0.32001 -1.76,-0.80002 -0.63999,-0.32 -1.12001,-0.79999 -1.44,-1.28 -0.32,-0.47998 -0.64,-1.11999 -0.8,-1.75998 -0.16,-0.64001 -0.16,-1.28002 0,-1.92001 0.16,-0.64999 0.32001,-1.29001 0.64,-1.92999 0.47999,-0.48001 0.8,-0.96002 1.44,-1.28 0.48,-0.48001 1.12,-0.64001 1.76,-0.80002 0.64,-0.16 1.27999,-0.16 1.91999,-0.16 0.64,0.16 1.28,0.48001 1.76001,0.80002 0.64,0.32 1.12,0.79998 1.44001,1.27999 0.47999,0.63999 0.64,1.12 0.79998,1.76999 0.16001,0.64002 0.16001,1.28 0,2.08002 z m 19.70002,3.35999 c 0,0.64001 -0.32001,1.28 -0.64,1.92001 -0.32001,0.47998 -0.80001,0.95999 -1.28002,1.28 -0.64,0.47998 -1.28999,0.63998 -1.92999,0.79999 -0.64,0.16 -1.28,0.16 -1.92,0.16 -0.64,-0.16 -1.28,-0.48001 -1.76001,-0.79999 -0.64,-0.32001 -1.11999,-0.80002 -1.43999,-1.28 -0.32,-0.64001 -0.63999,-1.12002 -0.8,-1.76001 -0.16,-0.64001 -0.16,-1.44 0,-2.08001 0.16001,-0.63999 0.31999,-1.12 0.64,-1.75998 0.31999,-0.48001 0.8,-0.96002 1.44,-1.44001 0.48,-0.32 1.12,-0.64999 1.76,-0.80999 0.64,-0.16001 1.28,-0.16001 1.92,0 0.64,0.16 1.29,0.32998 1.77,0.64999 0.64,0.48001 1.12,0.79999 1.44,1.44 0.48,0.48001 0.64,1.12 0.80001,1.76001 0.15998,0.63999 0.15998,1.28 0,1.91999 z m 19.68998,3.51999 c 0,0.64001 -0.31999,1.29 -0.64,1.77001 -0.31999,0.63999 -0.79998,1.12 -1.43998,1.44001 -0.48001,0.32 -1.12001,0.63998 -1.76001,0.79999 -0.64,0.16 -1.28,0.16 -1.92,0 -0.64,-0.16001 -1.28,-0.32001 -1.76,-0.63999 -0.64,-0.32001 -1.13,-0.80002 -1.45001,-1.44 -0.31999,-0.48001 -0.64,-1.12 -0.79999,-1.77002 -0.16,-0.63999 -0.16,-1.28 0,-1.91998 0.15999,-0.64002 0.32,-1.28 0.64,-1.76001 0.32,-0.63999 0.80001,-1.12 1.45,-1.44001 0.48,-0.32 1.12,-0.63998 1.76,-0.79998 0.63999,-0.16001 1.27999,-0.16001 1.91999,0 0.64,0 1.28,0.32 1.76001,0.63998 0.64,0.32001 1.12,0.80002 1.44001,1.44 0.31999,0.48001 0.63999,1.12 0.79998,1.76001 0.16001,0.63999 0.16001,1.28 0,1.91999 z m 19.69001,3.53002 c 0,0.63999 -0.32,1.12 -0.64,1.75998 -0.32,0.48001 -0.80001,0.96 -1.44001,1.44001 -0.47999,0.32 -1.11999,0.64001 -1.75999,0.80001 -0.64,0.15998 -1.28,0.15998 -1.92,0 -0.64,-0.16 -1.28,-0.32 -1.75999,-0.80001 -0.64002,-0.32001 -1.12001,-0.79999 -1.44001,-1.28 -0.32,-0.48001 -0.64,-1.12 -0.8,-1.76001 -0.16,-0.63999 -0.16,-1.28 0,-1.91999 0,-0.64001 0.31999,-1.29 0.64,-1.92999 0.31999,-0.48001 0.8,-0.96002 1.44,-1.28 0.48,-0.48001 1.12,-0.64001 1.76,-0.80001 0.64,-0.16001 1.28,-0.16001 1.92,-0.16001 0.64,0.16001 1.27999,0.48001 1.76001,0.80002 0.63999,0.31998 1.11999,0.79999 1.43998,1.28 0.32001,0.63998 0.64,1.13 0.80001,1.76999 0.16,0.64001 0.16,1.28 0,2.08001 z M 256.79001,347.5 c -0.16001,0.64001 -0.32001,1.28 -0.64002,1.92001 -0.31999,0.47998 -0.79998,0.95999 -1.43998,1.28 -0.48001,0.47998 -1.12001,0.65 -1.76001,0.81 -0.65,0.16 -1.29,0.16 -1.93,0.16 -0.64,-0.16 -1.28,-0.49002 -1.76001,-0.81002 -0.64,-0.31998 -1.11999,-0.79999 -1.43998,-1.28 -0.48001,-0.63999 -0.64002,-1.12 -0.80001,-1.75998 -0.16,-0.64002 -0.16,-1.44001 0,-2.08002 0,-0.63998 0.32,-1.11999 0.64,-1.75998 0.32,-0.48001 0.80001,-0.96002 1.44001,-1.44 0.47999,-0.32001 1.11999,-0.64002 1.75999,-0.80002 0.64,-0.16 1.28,-0.16 1.92999,0 0.64,0.16 1.28002,0.32001 1.76001,0.64001 0.64,0.47999 1.12,0.96 1.44,1.44001 0.32,0.47998 0.64,1.11999 0.80001,1.75998 0.16,0.64001 0.16,1.28 0,1.92001 z m 19.69,3.51999 c -0.16,0.65002 -0.32001,1.29001 -0.64001,1.77002 -0.32001,0.63998 -0.79999,1.11999 -1.44001,1.44 -0.47998,0.31998 -1.11999,0.63999 -1.75998,0.79999 -0.64001,0.16 -1.28002,0.16 -1.92001,0 -0.64001,0 -1.28,-0.32001 -1.76001,-0.63999 -0.63998,-0.32 -1.11999,-0.80001 -1.44,-1.44 -0.47998,-0.48001 -0.64999,-1.12002 -0.81,-1.77002 -0.16,-0.63998 -0.16,-1.28 0,-1.91998 0,-0.64001 0.33002,-1.28 0.65,-1.76001 0.32,-0.64001 0.80001,-1.12 1.28002,-1.44 0.63999,-0.32001 1.28,-0.63999 1.91999,-0.79999 0.64001,-0.16 1.28,-0.16 1.92001,0 0.63999,0 1.28,0.31998 1.75998,0.63998 0.64001,0.32001 1.12,0.80002 1.44,1.44001 0.32001,0.48001 0.64002,1.11999 0.80002,1.76001 0.16,0.63998 0.16,1.27999 0,1.91998 z m 19.69998,3.53 c -0.16,0.64001 -0.32,1.12002 -0.64999,1.76001 -0.48001,0.48001 -0.79999,0.95999 -1.44,1.44 -0.48001,0.32001 -1.12,0.64001 -1.76001,0.79999 -0.63999,0.16 -1.28,0.16 -1.91999,0 -0.64001,-0.15998 -1.28,-0.31998 -1.76001,-0.63999 -0.63998,-0.48001 -1.11999,-0.95999 -1.44,-1.44 -0.47998,-0.48001 -0.63998,-1.11999 -0.79999,-1.76001 -0.16,-0.63998 -0.16,-1.28 0,-1.91998 0,-0.64002 0.32001,-1.28 0.63999,-1.93002 0.32001,-0.47999 0.80002,-0.96 1.28,-1.28 0.64001,-0.47998 1.28,-0.63999 1.92001,-0.79999 0.64001,-0.16 1.28,-0.16 1.92001,-0.16 0.63999,0.16 1.28,0.48001 1.75998,0.80001 0.64002,0.31998 1.12,0.79999 1.44001,1.28 0.32,0.65 0.64999,1.12998 0.80999,1.76999 0.16001,0.63999 0.16001,1.44 0,2.07999 z M 315.87,357.91 c -0.16001,0.63999 -0.32001,1.28 -0.63999,1.91999 -0.48001,0.48001 -0.80002,0.96002 -1.44,1.28 -0.48001,0.49002 -1.12,0.65002 -1.76001,0.81002 -0.63999,0.15998 -1.28,0.15998 -1.92999,0.15998 -0.64002,-0.15998 -1.28,-0.47998 -1.76001,-0.79999 -0.63999,-0.32999 -1.12,-0.81 -1.44001,-1.29001 -0.47998,-0.63998 -0.63998,-1.11999 -0.79998,-1.75998 -0.16001,-0.64001 -0.16001,-1.28 0,-2.08002 0,-0.63998 0.32,-1.11999 0.63998,-1.75998 0.32001,-0.48001 0.80002,-0.96002 1.28,-1.44 0.64001,-0.32001 1.28,-0.64001 1.92001,-0.80002 0.65,-0.16 1.29001,-0.16 1.93,0 0.64001,0.16001 1.27999,0.32001 1.76,0.80002 0.63999,0.31998 1.12,0.79999 1.44001,1.28 0.32,0.47998 0.63998,1.12 0.79999,1.75998 0.16,0.64001 0.16,1.28 0,1.92001 z m 19.69,3.53 c -0.16001,0.63999 -0.32001,1.28 -0.63999,1.76001 -0.48001,0.63999 -0.80001,1.12 -1.44,1.44 C 333,364.95999 332.35999,365.28 331.72,365.44 c -0.64001,0.16001 -1.28,0.16001 -1.92001,0 -0.63999,0 -1.28,-0.32 -1.91999,-0.64001 -0.48001,-0.31998 -0.95999,-0.79999 -1.27999,-1.44 -0.48001,-0.47999 -0.64002,-1.12 -0.80002,-1.75998 -0.15998,-0.65 -0.15998,-1.29001 0,-1.93 0,-0.64001 0.32001,-1.28 0.64001,-1.76001 0.32001,-0.64001 0.79999,-1.11999 1.28,-1.44 0.63999,-0.32001 1.12,-0.64001 1.92001,-0.79999 0.63999,-0.16 1.28,-0.16 1.91999,0 0.64001,0 1.28,0.31998 1.76001,0.63999 0.63998,0.32 0.95999,0.79999 1.44,1.44 0.31998,0.48001 0.63998,1.12 0.79999,1.76001 0.16,0.63998 0.16,1.28 0,1.92999 z m 19.70001,3.51999 c -0.16,0.64002 -0.32001,1.12 -0.64001,1.76001 -0.47999,0.48001 -0.79999,0.95999 -1.44999,1.44 -0.48001,0.32001 -1.12002,0.63999 -1.76001,0.79999 -0.64001,0.16001 -1.28,0.16001 -1.92001,0 -0.63998,-0.16 -1.28,-0.31998 -1.91998,-0.63998 -0.48001,-0.48001 -0.96002,-0.80002 -1.28,-1.44001 -0.48001,-0.48001 -0.64002,-1.11999 -0.80002,-1.76 -0.16,-0.63999 -0.16,-1.28 -0.16,-1.91999 0.16,-0.64001 0.48001,-1.28 0.80001,-1.92001 0.32001,-0.48999 0.79999,-0.97 1.28,-1.29001 0.63999,-0.47998 1.12,-0.63998 1.76001,-0.79999 0.79999,-0.16 1.43998,-0.16 2.07999,-0.16 0.64001,0.16 1.28,0.48001 1.76001,0.79999 0.48999,0.32 0.97,0.80001 1.44998,1.28 0.32001,0.65002 0.64002,1.13 0.80002,1.77001 0.16,0.63999 0.16,1.44001 0,2.07999 z m 19.69,3.36002 c -0.16,0.63998 -0.32001,1.28 -0.64001,1.91998 -0.48001,0.48001 -0.95999,0.97 -1.44,1.29001 -0.47999,0.48001 -1.12,0.64001 -1.76001,0.79999 -0.63999,0.16 -1.28,0.16 -1.91999,0.16 -0.64001,-0.16 -1.28,-0.47998 -1.92999,-0.79999 -0.48001,-0.32 -0.96002,-0.81 -1.28,-1.29001 -0.48001,-0.63998 -0.64001,-1.11999 -0.80002,-1.75998 -0.16,-0.64001 -0.16,-1.28002 -0.16,-2.08001 0.16,-0.63999 0.48001,-1.12 0.80002,-1.76001 0.32,-0.47998 0.79999,-0.95999 1.28,-1.44 0.63998,-0.31998 1.13,-0.63999 1.76999,-0.79999 0.64001,0 1.44,-0.16001 2.08001,0 0.63999,0.16 1.12,0.32 1.75998,0.79999 0.48001,0.32 0.96002,0.80001 1.44,1.28002 0.32001,0.47999 0.64002,1.12 0.80002,1.75998 0.15998,0.64002 0.15998,1.28 0,1.92002 z"
             style="fill:#00ffff;fill-opacity:1;fill-rule:nonzero;stroke:none"
             id="path901" />
        </g>
      </g>
    </g>
  </g>
</svg>
