<?xml version="1.0" encoding="UTF-8" standalone="no"?>
<svg
   xmlns:dc="http://purl.org/dc/elements/1.1/"
   xmlns:cc="http://creativecommons.org/ns#"
   xmlns:rdf="http://www.w3.org/1999/02/22-rdf-syntax-ns#"
   xmlns:svg="http://www.w3.org/2000/svg"
   xmlns="http://www.w3.org/2000/svg"
   id="svg1754"
   version="1.1"
   viewBox="0 0 277.81252 92.604164"
   height="350"
   width="1050">
  <defs
     id="defs1748">
    <clipPath
       clipPathUnits="userSpaceOnUse"
       id="clipPath2323">
      <path
         d="M 0,0.32 V 793.76001 H 1122.5601 V 0.32 Z"
         id="path2321"
         style="clip-rule:evenodd" />
    </clipPath>
    <clipPath
       clipPathUnits="userSpaceOnUse"
       id="clipPath2343">
      <path
         d="M 0,0.32 V 793.76001 H 1122.5601 V 0.32 Z"
         id="path2341"
         style="clip-rule:evenodd" />
    </clipPath>
    <clipPath
       clipPathUnits="userSpaceOnUse"
       id="clipPath2363">
      <path
         d="M 0,0.32 V 793.76001 H 1122.5601 V 0.32 Z"
         id="path2361"
         style="clip-rule:evenodd" />
    </clipPath>
    <clipPath
       clipPathUnits="userSpaceOnUse"
       id="clipPath2383">
      <path
         d="M 0,0.32 V 793.76001 H 1122.5601 V 0.32 Z"
         id="path2381"
         style="clip-rule:evenodd" />
    </clipPath>
    <clipPath
       clipPathUnits="userSpaceOnUse"
       id="clipPath2399">
      <path
         d="M -0.3,-3.19 H 35.380001 V 30.889999 H -0.3 Z"
         id="path2397"
         style="clip-rule:evenodd" />
    </clipPath>
    <clipPath
       clipPathUnits="userSpaceOnUse"
       id="clipPath2409">
      <path
         d="M -0.12,-3.19 H 35.400002 V 30.889999 H -0.12 Z"
         id="path2407"
         style="clip-rule:evenodd" />
    </clipPath>
    <clipPath
       clipPathUnits="userSpaceOnUse"
       id="clipPath2419">
      <path
         d="M -0.1,-3.19 H 35.419998 V 30.889999 H -0.1 Z"
         id="path2417"
         style="clip-rule:evenodd" />
    </clipPath>
    <clipPath
       clipPathUnits="userSpaceOnUse"
       id="clipPath2429">
      <path
         d="M -0.23,-3.19 H 35.450001 V 30.889999 H -0.23 Z"
         id="path2427"
         style="clip-rule:evenodd" />
    </clipPath>
  </defs>
  <metadata
     id="metadata1751">
    <rdf:RDF>
      <cc:Work
         rdf:about="">
        <dc:format>image/svg+xml</dc:format>
        <dc:type
           rdf:resource="http://purl.org/dc/dcmitype/StillImage" />
        <dc:title></dc:title>
      </cc:Work>
    </rdf:RDF>
  </metadata>
  <g
     transform="translate(0,-204.39585)"
     id="layer1">
    <g
       id="g2307"
       transform="matrix(0.26458333,0,0,0.26458333,-33.098621,-3.2128719)">
      <g
         transform="translate(85.714287,764.28572)"
         id="g2313">
        <path
           d="M 820.47998,46.880001 H 1078.08 V 349.44 H 820.47998 Z"
           style="fill:#5f9ea0;fill-opacity:1;fill-rule:nonzero;stroke:none"
           id="path2315" />
      </g>
      <g
         transform="translate(85.714287,764.28572)"
         id="g2317">
        <g
           id="g2319"
           clip-path="url(#clipPath2323)">
          <g
             id="g2325">
            <path
               d="M 821.02002,47.52 H 1077.37 V 348.95999 H 821.02002 Z"
               style="fill:none;stroke:#00008b;stroke-width:1.12100005;stroke-linecap:butt;stroke-linejoin:miter;stroke-miterlimit:4;stroke-dasharray:none;stroke-opacity:1"
               id="path2327" />
          </g>
          <g
             id="g2329"
             transform="translate(846.79999,86.599998)">
            <path
               d="m 0,0 h -14.41 l -2.559999,5.93 C -17.610001,7.37 -17.93,8.33 -17.93,9.13 c 0,0.48 0.319999,1.12 0.800001,1.44 0.639999,0.48 1.759999,0.8 3.519999,0.8 v 1.13 h -11.689999 v -1.13 c 1.609998,-0.16 2.569999,-0.48 3.049999,-0.96 0.959999,-0.96 1.92,-2.72 3.040001,-5.44 L -6.08,-25.459999 h 0.96 L 7.85,5.29 c 0.96,2.56 1.92,4.16 2.72,4.96 0.96,0.64 2.08,1.12 3.52,1.12 V 12.5 H -0.48 v -1.13 c 1.44,0 2.4,-0.32 3.04,-0.64 C 3.04,10.25 3.2,9.77 3.2,9.13 3.2,8.33 2.88,7.05 2.24,5.29 Z m -0.8,-1.92 -6.24,-15.06 -6.57,15.06 z"
               style="fill:#000000;fill-opacity:1;fill-rule:nonzero;stroke:none"
               id="path2331" />
          </g>
        </g>
      </g>
      <g
         transform="translate(85.714287,764.28572)"
         id="g2333">
        <path
           d="M 562.23999,46.880001 H 820.64001 V 349.44 H 562.23999 Z"
           style="fill:#5f9ea0;fill-opacity:1;fill-rule:nonzero;stroke:none"
           id="path2335" />
      </g>
      <g
         transform="translate(85.714287,764.28572)"
         id="g2337">
        <g
           id="g2339"
           clip-path="url(#clipPath2343)">
          <g
             id="g2345">
            <path
               d="M 562.76001,47.52 H 820.06 V 348.95999 H 562.76001 Z"
               style="fill:none;stroke:#00008b;stroke-width:1.12100005;stroke-linecap:butt;stroke-linejoin:miter;stroke-miterlimit:4;stroke-dasharray:none;stroke-opacity:1"
               id="path2347" />
          </g>
          <g
             id="g2349"
             transform="translate(589.17999,80.040001)">
            <path
               d="m 0,0 c 2.56,0.64 4.48,1.44 5.76,2.72 1.76,1.6 2.72,3.68 2.72,6.08 0,1.93 -0.64,3.69 -1.76,5.29 -1.28,1.76 -2.88,3.039999 -4.8,3.84 -2.08,0.64 -5.12,1.129999 -9.45,1.129999 H -24.98 V 17.93 h 1.439999 C -22.1,17.93 -20.98,17.450001 -20.18,16.49 c 0.319999,-0.64 0.639999,-1.92 0.639999,-4 v -24.03 c 0,-2.24 -0.32,-3.68 -0.799999,-4.32 -0.799999,-0.8 -1.76,-1.279999 -3.200001,-1.279999 H -24.98 V -18.1 h 16.01 c 3.04,0 5.45,0.159999 7.21,0.640001 C 0.96,-16.82 3.04,-15.7 4.48,-13.94 c 1.44,1.6 2.24,3.52 2.24,5.77 0,1.76 -0.64,3.52 -1.76,4.96 C 3.84,-1.77 2.24,-0.65 0,0 Z m -14.41,-1.45 c 0.8,0.16 1.44,0.32 2.4,0.32 0.8,0 1.76,0.16 2.88,0.16 2.56,0 4.65,-0.32 5.93,-0.96 1.44,-0.48 2.4,-1.44 3.04,-2.56 0.8,-1.28 1.12,-2.56 1.12,-4 0,-2.09 -0.8,-4.01 -2.56,-5.45 -1.76,-1.6 -4.49,-2.4 -7.85,-2.4 -1.76,0 -3.36,0.32 -4.96,0.64 z m 0,17.78 c 2.24,0.479999 4.32,0.799999 6.4,0.799999 3.21,0 5.77,-0.799999 7.53,-2.239999 1.76,-1.6 2.56,-3.36 2.56,-5.6 C 2.08,7.84 1.76,6.56 0.96,5.12 0.16,3.84 -1.12,2.72 -2.88,2.08 -4.64,1.28 -6.89,0.8 -9.45,0.8 c -1.12,0 -2.08,0.16 -2.88,0.16 -0.8,0 -1.6,0 -2.08,0.16 z"
               style="fill:#000000;fill-opacity:1;fill-rule:nonzero;stroke:none"
               id="path2351" />
          </g>
        </g>
      </g>
      <g
         transform="translate(85.714287,764.28572)"
         id="g2353">
        <path
           d="m 304.79999,46.880001 h 257.44 V 349.44 h -257.44 z"
           style="fill:#5f9ea0;fill-opacity:1;fill-rule:nonzero;stroke:none"
           id="path2355" />
      </g>
      <g
         transform="translate(85.714287,764.28572)"
         id="g2357">
        <g
           id="g2359"
           clip-path="url(#clipPath2363)">
          <g
             id="g2365">
            <path
               d="m 305.45999,47.52 h 256.34 v 301.43999 h -256.34 z"
               style="fill:none;stroke:#00008b;stroke-width:1.12100005;stroke-linecap:butt;stroke-linejoin:miter;stroke-miterlimit:4;stroke-dasharray:none;stroke-opacity:1"
               id="path2367" />
          </g>
          <g
             id="g2369"
             transform="translate(339.23999,61.139999)">
            <path
               d="M 0,0 0.8,12.49 H 0 C -1.12,8.8 -2.72,6.08 -4.8,4.48 -6.88,2.72 -9.45,1.92 -12.49,1.92 c -2.4,0 -4.639999,0.64 -6.559999,1.92 -2.08,1.12 -3.520001,3.2 -4.810002,5.93 -1.119999,2.72 -1.599998,6.08 -1.599998,10.25 0,3.359999 0.479999,6.24 1.599998,8.65 0.960001,2.56 2.730002,4.480002 4.810002,5.76 2.24,1.279999 4.639999,1.919998 7.359999,1.919998 2.4,0 4.65,-0.479999 6.41,-1.599998 1.92,-0.959999 3.84,-3.040001 6.08,-6.08 l 0.96,0.48 c -1.92,3.359998 -4.16,5.76 -6.56,7.359998 -2.56,1.450001 -5.45,2.25 -8.81,2.25 -6.24,0 -11.05,-2.25 -14.41,-6.889997 C -30.42,28.51 -31.700001,24.5 -31.700001,19.860001 -31.700001,16.17 -30.9,12.81 -29.299999,9.77 c 1.759998,-3.21 4,-5.61 6.889999,-7.21 2.879999,-1.76 6.08,-2.56 9.6,-2.56 2.56,0 5.29,0.64 7.85,1.92 0.8,0.32 1.44,0.64 1.76,0.64 0.48,0 0.8,-0.16 1.28,-0.64 C -1.6,1.44 -1.12,0.8 -0.96,0 Z"
               style="fill:#000000;fill-opacity:1;fill-rule:nonzero;stroke:none"
               id="path2371" />
          </g>
        </g>
      </g>
      <g
         transform="translate(85.714287,764.28572)"
         id="g2373">
        <path
           d="M 46.560001,46.880001 H 304.95999 V 349.44 H 46.560001 Z"
           style="fill:#5f9ea0;fill-opacity:1;fill-rule:nonzero;stroke:none"
           id="path2375" />
      </g>
      <g
         transform="translate(85.714287,764.28572)"
         id="g2377">
        <g
           id="g2379"
           clip-path="url(#clipPath2383)">
          <g
             id="g2385">
            <path
               d="M 47.189999,47.52 H 304.5 V 348.95999 H 47.189999 Z"
               style="fill:none;stroke:#00008b;stroke-width:1.12100005;stroke-linecap:butt;stroke-linejoin:miter;stroke-miterlimit:4;stroke-dasharray:none;stroke-opacity:1"
               id="path2387" />
          </g>
          <g
             id="g2389"
             transform="translate(48.630001,99.099998)">
            <path
               d="m 0,0 v -1.13 h 1.45 c 1.44,0 2.56,-0.48 3.2,-1.44 0.48,-0.64 0.64,-1.92 0.64,-4 V -30.6 c 0,-2.24 -0.16,-3.839999 -0.8,-4.319998 -0.64,-0.800003 -1.76,-1.280003 -3.04,-1.280003 H 0 V -37.16 h 15.06 c 5.6,0 9.76,0.64 12.640001,1.919998 C 30.59,-33.959999 32.990002,-31.879999 34.75,-29 c 1.759998,2.889999 2.560001,6.41 2.560001,10.26 0,5.12 -1.440002,9.45 -4.640003,12.97 C 29.15,-1.93 23.860001,0 16.66,0 Z m 10.57,-2.73 c 2.4,0.48 4.33,0.8 5.77,0.8 4.32,0 7.84,-1.44 10.56,-4.48 2.890001,-3.04 4.17,-7.05 4.17,-12.17 0,-5.129999 -1.279999,-9.129999 -4.17,-12.02 -2.72,-3.039999 -6.4,-4.480002 -10.72,-4.480002 -1.61,0 -3.53,0.320004 -5.61,0.800003 z"
               style="fill:#000000;fill-opacity:1;fill-rule:nonzero;stroke:none"
               id="path2391" />
          </g>
        </g>
      </g>
      <g
         id="g2393"
         transform="translate(1017.2143,806.35572)">
        <g
           id="g2395"
           clip-path="url(#clipPath2399)">
          <path
             d="m 0,0 13.93,4.49 3.360001,-14.42 h 0.32 L 20.82,4.49 34.91,0 35.07,0.16 24.18,10.26 35.07,20.35 34.91,20.51 20.82,16.18 17.610001,30.6 h -0.32 L 14.09,16.18 0,20.51 -0.16,20.35 10.73,10.26 -0.16,0.16 Z"
             style="fill:#006400;fill-opacity:1;fill-rule:nonzero;stroke:none"
             id="path2401" />
        </g>
      </g>
      <g
         id="g2403"
         transform="translate(759.27429,806.35572)">
        <g
           id="g2405"
           clip-path="url(#clipPath2409)">
          <path
             d="M 0,0 14.09,4.49 17.450001,-9.93 H 17.77 L 20.969999,4.49 35.060001,0 l 0.16,0.16 -10.880001,10.1 10.880001,10.09 -0.16,0.16 L 20.969999,16.18 17.77,30.6 H 17.450001 L 14.25,16.18 0,20.51 V 20.35 L 10.89,10.26 0,0.16 Z"
             style="fill:#006400;fill-opacity:1;fill-rule:nonzero;stroke:none"
             id="path2411" />
        </g>
      </g>
      <g
         id="g2413"
         transform="translate(501.49429,806.35572)">
        <g
           id="g2415"
           clip-path="url(#clipPath2419)">
          <path
             d="m 0,0 14.09,4.49 3.360001,-14.42 h 0.16 L 20.809999,4.49 35.060001,0 l 0.16,0.16 -10.890001,10.1 10.890001,10.09 -0.16,0.16 -14.250002,-4.33 -3.199998,14.42 h -0.16 L 14.09,16.18 0,20.51 V 20.35 L 10.88,10.26 0,0.16 Z"
             style="fill:#006400;fill-opacity:1;fill-rule:nonzero;stroke:none"
             id="path2421" />
        </g>
      </g>
      <g
         id="g2423"
         transform="translate(243.70429,806.35572)">
        <g
           id="g2425"
           clip-path="url(#clipPath2429)">
          <path
             d="m 0,0 14.09,4.49 3.360001,-14.42 h 0.16 L 20.82,4.49 35.07,0 35.23,0.16 24.18,10.26 35.23,20.35 35.07,20.51 20.82,16.18 17.610001,30.6 h -0.16 L 14.09,16.18 0,20.51 -0.16,20.35 10.89,10.26 -0.16,0.16 Z"
             style="fill:#006400;fill-opacity:1;fill-rule:nonzero;stroke:none"
             id="path2431" />
        </g>
      </g>
    </g>
  </g>
</svg>
