<?xml version="1.0" encoding="UTF-8" standalone="no"?>
<svg
   xmlns:dc="http://purl.org/dc/elements/1.1/"
   xmlns:cc="http://creativecommons.org/ns#"
   xmlns:rdf="http://www.w3.org/1999/02/22-rdf-syntax-ns#"
   xmlns:svg="http://www.w3.org/2000/svg"
   xmlns="http://www.w3.org/2000/svg"
   id="svg3053"
   version="1.1"
   viewBox="0 0 264.58334 105.83334"
   height="400"
   width="1000">
  <defs
     id="defs3047">
    <clipPath
       clipPathUnits="userSpaceOnUse"
       id="clipPath3622">
      <path
         d="M 0,0.32 V 793.76001 H 1122.5601 V 0.32 Z"
         id="path3620"
         style="clip-rule:evenodd" />
    </clipPath>
    <clipPath
       clipPathUnits="userSpaceOnUse"
       id="clipPath3650">
      <path
         d="M 0,0.32 V 793.76001 H 1122.5601 V 0.32 Z"
         id="path3648"
         style="clip-rule:evenodd" />
    </clipPath>
    <clipPath
       clipPathUnits="userSpaceOnUse"
       id="clipPath3678">
      <path
         d="M 0,0.32 V 793.76001 H 1122.5601 V 0.32 Z"
         id="path3676"
         style="clip-rule:evenodd" />
    </clipPath>
  </defs>
  <metadata
     id="metadata3050">
    <rdf:RDF>
      <cc:Work
         rdf:about="">
        <dc:format>image/svg+xml</dc:format>
        <dc:type
           rdf:resource="http://purl.org/dc/dcmitype/StillImage" />
        <dc:title></dc:title>
      </cc:Work>
    </rdf:RDF>
  </metadata>
  <g
     transform="translate(0,-191.16663)"
     id="layer1">
    <g
       id="g3606"
       transform="matrix(0.26458333,0,0,0.26458333,227.70495,208.43262)">
      <g
         transform="translate(-858.62968,-74.751289)"
         id="g3612">
        <path
           d="M 46.560001,46.880001 H 348.95999 V 349.44 H 46.560001 Z"
           style="fill:#5f9ea0;fill-opacity:1;fill-rule:nonzero;stroke:none"
           id="path3614" />
      </g>
      <g
         transform="translate(-858.62968,-74.751289)"
         id="g3616">
        <g
           id="g3618"
           clip-path="url(#clipPath3622)">
          <g
             id="g3624">
            <path
               d="M 47.189999,47.52 H 348.53 V 348.95999 H 47.189999 Z"
               style="fill:none;stroke:#00008b;stroke-width:1.12100005;stroke-linecap:butt;stroke-linejoin:miter;stroke-miterlimit:4;stroke-dasharray:none;stroke-opacity:1"
               id="path3626" />
          </g>
          <g
             id="g3628"
             transform="translate(73.290001,86.599998)">
            <path
               d="m 0,0 h -14.41 l -2.399999,5.93 C -17.450001,7.37 -17.77,8.33 -17.77,9.13 c 0,0.48 0.159999,1.12 0.800001,1.44 0.479999,0.48 1.599999,0.8 3.519999,0.8 v 1.13 h -11.689999 v -1.13 c 1.449998,-0.16 2.569999,-0.48 2.889999,-0.96 0.959999,-0.96 2.08,-2.72 3.200001,-5.44 L -6.08,-25.459999 h 0.96 L 7.85,5.29 c 1.12,2.56 1.92,4.16 2.88,4.96 0.8,0.64 1.92,1.12 3.52,1.12 V 12.5 H -0.48 v -1.13 c 1.6,0 2.56,-0.32 3.04,-0.64 0.48,-0.48 0.8,-0.96 0.8,-1.6 0,-0.8 -0.32,-2.08 -1.12,-3.84 z m -0.8,-1.92 -6.24,-15.06 -6.41,15.06 z"
               style="fill:#000000;fill-opacity:1;fill-rule:nonzero;stroke:none"
               id="path3630" />
          </g>
        </g>
      </g>
      <g
         transform="translate(-858.62968,-74.751289)"
         id="g3632">
        <path
           d="m 194.88,48 h 6.08001 V 348.48001 H 194.88 Z"
           style="fill:#ffff00;fill-opacity:1;fill-rule:nonzero;stroke:none"
           id="path3634" />
      </g>
      <g
         transform="translate(-858.62968,-74.751289)"
         id="g3636">
        <path
           d="M 47.68,195.2 H 348 v 6.08 H 47.68 Z"
           style="fill:#ffff00;fill-opacity:1;fill-rule:nonzero;stroke:none"
           id="path3638" />
      </g>
      <g
         transform="translate(-858.62968,-74.751289)"
         id="g3640">
        <path
           d="M 348.95999,46.880001 H 651.52002 V 349.44 H 348.95999 Z"
           style="fill:#5f9ea0;fill-opacity:1;fill-rule:nonzero;stroke:none"
           id="path3642" />
      </g>
      <g
         transform="translate(-858.62968,-74.751289)"
         id="g3644">
        <g
           id="g3646"
           clip-path="url(#clipPath3650)">
          <g
             id="g3652">
            <path
               d="M 349.48999,47.52 H 650.82001 V 348.95999 H 349.48999 Z"
               style="fill:none;stroke:#00008b;stroke-width:1.12100005;stroke-linecap:butt;stroke-linejoin:miter;stroke-miterlimit:4;stroke-dasharray:none;stroke-opacity:1"
               id="path3654" />
          </g>
          <g
             id="g3656"
             transform="translate(375.91,80.040001)">
            <path
               d="m 0,0 c 2.56,0.64 4.48,1.44 5.76,2.72 1.76,1.6 2.72,3.68 2.72,6.08 0,1.93 -0.64,3.69 -1.76,5.29 -1.12,1.76 -2.72,3.039999 -4.8,3.84 -2.08,0.64 -5.13,1.129999 -9.29,1.129999 H -24.98 V 17.93 h 1.439999 c 1.6,0 2.560001,-0.479999 3.360001,-1.44 0.319999,-0.64 0.639999,-1.92 0.639999,-4 v -24.03 c 0,-2.24 -0.32,-3.68 -0.799999,-4.32 -0.799999,-0.8 -1.76,-1.279999 -3.200001,-1.279999 H -24.98 V -18.1 h 16.01 c 3.04,0 5.44,0.159999 7.21,0.640001 C 0.96,-16.82 3.04,-15.7 4.48,-13.94 c 1.44,1.6 2.24,3.52 2.24,5.77 0,1.76 -0.64,3.52 -1.76,4.96 C 3.84,-1.77 2.24,-0.65 0,0 Z m -14.41,-1.45 c 0.8,0.16 1.44,0.32 2.4,0.32 0.8,0 1.76,0.16 2.88,0.16 2.56,0 4.64,-0.32 5.92,-0.96 1.45,-0.48 2.41,-1.44 3.21,-2.56 0.64,-1.28 0.96,-2.56 0.96,-4 0,-2.09 -0.8,-4.01 -2.56,-5.45 -1.77,-1.6 -4.49,-2.4 -7.85,-2.4 -1.76,0 -3.36,0.32 -4.96,0.64 z m 0,17.78 c 2.24,0.479999 4.32,0.799999 6.4,0.799999 3.2,0 5.77,-0.799999 7.53,-2.239999 1.76,-1.6 2.56,-3.36 2.56,-5.6 C 2.08,7.84 1.76,6.56 0.96,5.12 0.16,3.84 -1.12,2.72 -2.88,2.08 -4.65,1.28 -6.89,0.8 -9.45,0.8 c -1.12,0 -2.08,0.16 -2.88,0.16 -0.8,0 -1.44,0 -2.08,0.16 z"
               style="fill:#000000;fill-opacity:1;fill-rule:nonzero;stroke:none"
               id="path3658" />
          </g>
        </g>
      </g>
      <g
         transform="translate(-858.62968,-74.751289)"
         id="g3660">
        <path
           d="m 497.12,48 h 6.08001 V 348.48001 H 497.12 Z"
           style="fill:#ffff00;fill-opacity:1;fill-rule:nonzero;stroke:none"
           id="path3662" />
      </g>
      <g
         transform="translate(-858.62968,-74.751289)"
         id="g3664">
        <path
           d="m 349.92001,195.2 h 300.48001 v 6.08 H 349.92001 Z"
           style="fill:#ffff00;fill-opacity:1;fill-rule:nonzero;stroke:none"
           id="path3666" />
      </g>
      <g
         transform="translate(-858.62968,-74.751289)"
         id="g3668">
        <path
           d="M 651.35998,46.880001 H 953.76001 V 349.44 H 651.35998 Z"
           style="fill:#5f9ea0;fill-opacity:1;fill-rule:nonzero;stroke:none"
           id="path3670" />
      </g>
      <g
         transform="translate(-858.62968,-74.751289)"
         id="g3672">
        <g
           id="g3674"
           clip-path="url(#clipPath3678)">
          <g
             id="g3680">
            <path
               d="M 651.94,47.52 H 953.28003 V 348.95999 H 651.94 Z"
               style="fill:none;stroke:#00008b;stroke-width:1.12100005;stroke-linecap:butt;stroke-linejoin:miter;stroke-miterlimit:4;stroke-dasharray:none;stroke-opacity:1"
               id="path3682" />
          </g>
          <g
             id="g3684"
             transform="translate(686.21002,61.139999)">
            <path
               d="M 0,0 0.8,12.49 H 0 C -1.12,8.8 -2.72,6.08 -4.97,4.48 -7.05,2.72 -9.45,1.92 -12.49,1.92 c -2.4,0 -4.639999,0.64 -6.729999,1.92 -1.92,1.12 -3.520001,3.2 -4.640002,5.93 -1.119999,2.72 -1.76,6.08 -1.76,10.25 0,3.359999 0.640001,6.24 1.76,8.65 0.960001,2.56 2.560002,4.480002 4.800002,5.76 2.09,1.279999 4.649999,1.919998 7.369999,1.919998 2.4,0 4.48,-0.479999 6.4,-1.599998 1.77,-0.959999 3.85,-3.040001 6.09,-6.08 l 0.8,0.48 c -1.76,3.359998 -4,5.76 -6.41,7.359998 -2.56,1.450001 -5.44,2.25 -8.96,2.25 -6.090001,0 -10.89,-2.25 -14.25,-6.889997 C -30.58,28.51 -31.860001,24.5 -31.860001,19.860001 -31.860001,16.17 -30.9,12.81 -29.299999,9.77 c 1.599998,-3.21 4,-5.61 6.879999,-7.21 2.879999,-1.76 6.09,-2.56 9.45,-2.56 2.72,0 5.44,0.64 8,1.92 0.8,0.32 1.29,0.64 1.61,0.64 0.48,0 0.96,-0.16 1.28,-0.64 C -1.6,1.44 -1.28,0.8 -0.96,0 Z"
               style="fill:#000000;fill-opacity:1;fill-rule:nonzero;stroke:none"
               id="path3686" />
          </g>
        </g>
      </g>
      <g
         transform="translate(-858.62968,-74.751289)"
         id="g3688">
        <path
           d="m 799.52002,48 h 6.07996 v 300.48001 h -6.07996 z"
           style="fill:#ffff00;fill-opacity:1;fill-rule:nonzero;stroke:none"
           id="path3690" />
      </g>
      <g
         transform="translate(-858.62968,-74.751289)"
         id="g3692">
        <path
           d="m 652.47998,195.2 h 300.32001 v 6.08 H 652.47998 Z"
           style="fill:#ffff00;fill-opacity:1;fill-rule:nonzero;stroke:none"
           id="path3694" />
      </g>
    </g>
  </g>
</svg>
