<?xml version="1.0" encoding="UTF-8" standalone="no"?>
<svg
   xmlns:dc="http://purl.org/dc/elements/1.1/"
   xmlns:cc="http://creativecommons.org/ns#"
   xmlns:rdf="http://www.w3.org/1999/02/22-rdf-syntax-ns#"
   xmlns:svg="http://www.w3.org/2000/svg"
   xmlns="http://www.w3.org/2000/svg"
   id="svg8"
   version="1.1"
   viewBox="0 0 210 80.041658"
   height="302.51965"
   width="793.70081">
  <defs
     id="defs2">
    <clipPath
       clipPathUnits="userSpaceOnUse"
       id="clipPath835">
      <path
         d="M 0.32,0 V 1122.5601 H 793.76001 V 0 Z"
         id="path833"
         style="clip-rule:evenodd" />
    </clipPath>
    <clipPath
       clipPathUnits="userSpaceOnUse"
       id="clipPath855">
      <path
         d="M 0.32,0 V 1122.5601 H 793.76001 V 0 Z"
         id="path853"
         style="clip-rule:evenodd" />
    </clipPath>
    <clipPath
       clipPathUnits="userSpaceOnUse"
       id="clipPath875">
      <path
         d="M 0.32,0 V 1122.5601 H 793.76001 V 0 Z"
         id="path873"
         style="clip-rule:evenodd" />
    </clipPath>
    <clipPath
       clipPathUnits="userSpaceOnUse"
       id="clipPath943">
      <path
         d="M 0.32,0 V 1122.5601 H 793.76001 V 0 Z"
         id="path941"
         style="clip-rule:evenodd" />
    </clipPath>
    <clipPath
       clipPathUnits="userSpaceOnUse"
       id="clipPath1099">
      <path
         d="M 0.32,0 V 1122.5601 H 793.76001 V 0 Z"
         id="path1097"
         style="clip-rule:evenodd" />
    </clipPath>
    <clipPath
       clipPathUnits="userSpaceOnUse"
       id="clipPath1179">
      <path
         d="M 0.32,0 V 1122.5601 H 793.76001 V 0 Z"
         id="path1177"
         style="clip-rule:evenodd" />
    </clipPath>
    <clipPath
       clipPathUnits="userSpaceOnUse"
       id="clipPath1203">
      <path
         d="M 0.32,0 V 1122.5601 H 793.76001 V 0 Z"
         id="path1201"
         style="clip-rule:evenodd" />
    </clipPath>
    <clipPath
       clipPathUnits="userSpaceOnUse"
       id="clipPath1227">
      <path
         d="m 65.279999,133.75999 -0.159996,0.16001 -3.360005,3.36 0.16,0.16 0.320004,0.16001 0.959999,0.95999 0.319999,0.16 1.119999,1.12 0.32,0.16 0.639999,0.64 0.32,0.16 0.32,0.31999 0.32,0.16001 0.319999,0.32001 0.32,0.15998 0.32,0.32001 0.319999,0.16 0.160004,0.15999 0.32,0.16001 0.160003,0.16 0.32,0.16 0.159996,0.15999 0.32,0.16001 0.160003,0.16 0.32,0.16 0.159996,0.15999 0.32,0.16001 0.160004,0.16 0.319999,0.16 0.159996,0.16001 0.64,0.31999 0.160003,0.16 0.959999,0.48 0.160004,0.16 2.559998,1.28 0.479995,0.16 1.920006,0.96 0.479996,0.16 0.32,0.16 0.959999,0.32 0.319999,0.16 1.440003,0.47999 0.319999,0.16001 1.440003,0.47999 4.479996,1.12001 2.240005,0.32 0.959999,0.16 1.119995,0.16 2.400002,0.15999 563.679982,0.16001 v -0.16001 L 653.12,146.88 94.720001,146.72 l -2.239998,-0.16 -2.880005,-0.48 -1.119995,-0.16 -0.640007,-0.16001 -0.799995,-0.15998 L 85.760002,145.28 84.959999,145.11999 84.32,144.96001 81.919998,144.16 81.279999,143.84 80.800003,143.67999 80.160004,143.36 79.68,143.2 l -0.959999,-0.48 -0.480003,-0.16 -0.959999,-0.48 -0.479996,-0.16 -1.600006,-0.80001 -0.159996,-0.15998 -0.959999,-0.48001 -0.160004,-0.15999 -0.32,-0.16001 -0.159996,-0.16 -0.319999,-0.16 -0.160004,-0.16001 -0.32,-0.15999 -0.159996,-0.16 -0.319999,-0.16 -0.320008,-0.32 -0.319999,-0.16 -0.159996,-0.16 -0.32,-0.16001 -0.32,-0.31999 -0.319999,-0.16 -0.160004,-0.16001 -0.32,-0.15998 -0.32,-0.32001 -0.319999,-0.16001 -0.159996,-0.15998 -0.32,-0.16001 -0.639999,-0.64 -0.320008,-0.16 -0.639999,-0.64 -0.32,-0.16 -1.439995,-1.44001 z"
         id="path1225"
         style="clip-rule:evenodd" />
    </clipPath>
    <clipPath
       clipPathUnits="userSpaceOnUse"
       id="clipPath1237">
      <path
         d="M 47.200001,46.880001 V 104 h 0.16 v 2.88 H 47.52 V 108 h 0.16 v 0.96 h 0.16 v 1.12 H 48 v 1.12 h 0.16 v 0.8 h 0.16 v 0.64 h 0.16 v 0.64 h 0.159999 v 0.64 h 0.16 v 0.64 h 0.16 v 0.64 h 0.16 v 0.64 h 0.16 v 0.64 h 0.16 v 0.48 h 0.159999 v 0.48 h 0.16 v 0.48 h 0.16 v 0.48 h 0.160004 v 0.48 h 0.16 v 0.48 h 0.16 v 0.48 h 0.159999 v 0.48 h 0.16 v 0.48 h 0.16 v 0.32 h 0.16 v 0.32 h 0.16 v 0.48 h 0.16 v 0.32 H 51.52 v 0.32 h 0.16 v 0.32 h 0.16 v 0.32 H 52 v 0.32 h 0.16 v 0.32 h 0.16 v 0.32 h 0.16 v 0.32 h 0.159999 v 0.32 h 0.16 v 0.32 h 0.16 v 0.32 h 0.16 v 0.32 h 0.16 v 0.32 h 0.16 l 0.159999,0.16 v 0.32 h 0.16 v 0.32 h 0.16 l 0.160004,0.16 v 0.32 h 0.16 v 0.32 h 0.16 l 0.159999,0.16 v 0.32 h 0.16 v 0.32 h 0.16 l 0.16,0.16 v 0.32001 h 0.16 V 129.28 h 0.16 v 0.32001 H 55.52 l 0.32,0.31999 v 0.32 H 56 l 0.32,0.32 v 0.32 h 0.16 l 0.319999,0.32 v 0.32 h 0.16 l 0.48,0.48 v 0.32001 h 0.159999 l 0.32,0.31999 v 0.32001 h 0.160004 l 0.32,0.31999 v 0.32001 h 0.159999 l 0.8,0.79998 V 134.72 H 59.52 l 0.96,0.95999 V 136 h 0.159999 l 0.8,0.8 v 0.31999 h 0.159999 l 0.32,0.32001 0.320004,0.16001 0.959999,0.95999 0.319999,0.16 1.119999,1.12 0.32,0.16 0.639999,0.64 0.32,0.16 0.32,0.31999 0.32,0.16001 0.319999,0.32001 0.32,0.15998 0.32,0.32001 0.319999,0.16 0.160004,0.15999 0.32,0.16001 0.160003,0.16 0.32,0.16 0.159996,0.15999 0.32,0.16001 0.160003,0.16 0.32,0.16 0.159996,0.15999 0.32,0.16001 0.160004,0.16 0.319999,0.16 0.159996,0.16001 0.64,0.31999 0.160003,0.16 0.959999,0.48 0.160004,0.16 2.559998,1.28 0.479995,0.16 1.920006,0.96 0.479996,0.16 0.32,0.16 0.959999,0.32 0.319999,0.16 1.440003,0.47999 0.319999,0.16001 1.440003,0.47999 4.479996,1.12001 2.240005,0.32 0.959999,0.16 1.119995,0.16 2.400002,0.15999 L 658.08002,151.84 V 46.880001 H 653.12 V 146.88 l -558.399999,-0.16 -2.239998,-0.16 -2.880005,-0.48 -1.119995,-0.16 -0.640007,-0.16001 -0.799995,-0.15998 L 85.760002,145.28 84.959999,145.11999 84.32,144.96001 81.919998,144.16 81.279999,143.84 80.800003,143.67999 80.160004,143.36 79.68,143.2 l -0.959999,-0.48 -0.480003,-0.16 -0.959999,-0.48 -0.479996,-0.16 -1.600006,-0.80001 -0.159996,-0.15998 -0.959999,-0.48001 -0.160004,-0.15999 -0.32,-0.16001 -0.159996,-0.16 -0.319999,-0.16 -0.160004,-0.16001 -0.32,-0.15999 -0.159996,-0.16 -0.319999,-0.16 -0.320008,-0.32 -0.319999,-0.16 -0.159996,-0.16 -0.32,-0.16001 -0.32,-0.31999 -0.319999,-0.16 -0.160004,-0.16001 -0.32,-0.15998 -0.32,-0.32001 -0.319999,-0.16001 -0.159996,-0.15998 -0.32,-0.16001 -0.639999,-0.64 -0.320008,-0.16 -0.639999,-0.64 -0.32,-0.16 -1.759994,-1.76 h -0.160004 v -0.32001 L 63.68,131.84 h -0.16 v -0.32 l -1.119998,-1.12001 h -0.16 V 130.08 l -0.320004,-0.32001 h -0.16 V 129.44 l -0.479999,-0.47999 h -0.16 V 128.64 l -0.32,-0.31999 h -0.16 V 128 L 60.32,127.68 h -0.16 v -0.32 l -0.32,-0.32 h -0.16 v -0.32 l -0.16,-0.16 h -0.159999 v -0.32 h -0.16 v -0.32 l -0.16,-0.16 h -0.16 v -0.32 h -0.16 v -0.32 h -0.16 v -0.32 l -0.159999,-0.16 h -0.16 v -0.32 h -0.16 V 124 l -0.160004,-0.16 h -0.16 v -0.32 h -0.16 v -0.32 h -0.159999 v -0.32 h -0.16 v -0.32 h -0.16 v -0.32 h -0.16 v -0.32 h -0.16 v -0.32 h -0.16 v -0.32 H 56.48 v -0.32 h -0.16 v -0.32 h -0.16 v -0.32 H 56 V 120 h -0.16 v -0.48 h -0.16 v -0.32 h -0.16 v -0.32 h -0.159999 v -0.48 h -0.16 v -0.48 h -0.16 v -0.48 h -0.16 v -0.32 h -0.16 v -0.48 h -0.16 v -0.48 h -0.159999 v -0.48 h -0.16 v -0.48 h -0.16 v -0.48 h -0.160004 v -0.64 h -0.16 v -0.64 h -0.16 v -0.64 h -0.159999 v -0.64 h -0.16 v -0.64 h -0.16 v -0.64 h -0.16 v -0.8 h -0.16 v -1.28 h -0.16 v -1.12 H 52.48 v -1.12 h -0.16 v -2.88 H 52.16 V 46.880001 Z"
         id="path1235"
         style="clip-rule:evenodd" />
    </clipPath>
    <clipPath
       clipPathUnits="userSpaceOnUse"
       id="clipPath1247">
      <path
         d="M 47.200001,46.880001 V 104 h 0.16 v 2.88 H 47.52 V 108 h 0.16 v 0.96 h 0.16 v 1.12 H 48 v 1.12 h 0.16 v 0.8 h 0.16 v 0.64 h 0.16 v 0.64 h 0.159999 v 0.64 h 0.16 v 0.64 h 0.16 v 0.64 h 0.16 v 0.64 h 0.16 v 0.64 h 0.16 v 0.48 h 0.159999 v 0.48 h 0.16 v 0.48 h 0.16 v 0.48 h 0.160004 v 0.48 h 0.16 v 0.48 h 0.16 v 0.48 h 0.159999 v 0.48 h 0.16 v 0.48 h 0.16 v 0.32 h 0.16 v 0.32 h 0.16 v 0.48 h 0.16 v 0.32 H 51.52 v 0.32 h 0.16 v 0.32 h 0.16 v 0.32 H 52 v 0.32 h 0.16 v 0.32 h 0.16 v 0.32 h 0.16 v 0.32 h 0.159999 v 0.32 h 0.16 v 0.32 h 0.16 v 0.32 h 0.16 v 0.32 h 0.16 v 0.32 h 0.16 l 0.159999,0.16 v 0.32 h 0.16 v 0.32 h 0.16 l 0.160004,0.16 v 0.32 h 0.16 v 0.32 h 0.16 l 0.159999,0.16 v 0.32 h 0.16 v 0.32 h 0.16 l 0.16,0.16 v 0.32001 h 0.16 V 129.28 h 0.16 v 0.32001 H 55.52 l 0.32,0.31999 v 0.32 H 56 l 0.32,0.32 v 0.32 h 0.16 l 0.319999,0.32 v 0.32 h 0.16 l 0.48,0.48 v 0.32001 h 0.159999 l 0.32,0.31999 v 0.32001 h 0.160004 l 0.32,0.31999 v 0.32001 h 0.159999 l 0.8,0.79998 V 134.72 H 59.52 l 0.96,0.95999 V 136 h 0.159999 l 0.8,0.8 v 0.31999 h 0.159999 l 0.32,0.32001 v -0.16 l 3.520004,-3.52001 -0.319999,-0.31999 h -0.160004 v -0.32001 L 63.68,131.84 h -0.16 v -0.32 l -1.119998,-1.12001 h -0.16 V 130.08 l -0.320004,-0.32001 h -0.16 V 129.44 l -0.479999,-0.47999 h -0.16 V 128.64 l -0.32,-0.31999 h -0.16 V 128 L 60.32,127.68 h -0.16 v -0.32 l -0.32,-0.32 h -0.16 v -0.32 l -0.16,-0.16 h -0.159999 v -0.32 h -0.16 v -0.32 l -0.16,-0.16 h -0.16 v -0.32 h -0.16 v -0.32 h -0.16 v -0.32 l -0.159999,-0.16 h -0.16 v -0.32 h -0.16 V 124 l -0.160004,-0.16 h -0.16 v -0.32 h -0.16 v -0.32 h -0.159999 v -0.32 h -0.16 v -0.32 h -0.16 v -0.32 h -0.16 v -0.32 h -0.16 v -0.32 h -0.16 v -0.32 H 56.48 v -0.32 h -0.16 v -0.32 h -0.16 v -0.32 H 56 V 120 h -0.16 v -0.48 h -0.16 v -0.32 h -0.16 v -0.32 h -0.159999 v -0.48 h -0.16 v -0.48 h -0.16 v -0.48 h -0.16 v -0.32 h -0.16 v -0.48 h -0.16 v -0.48 h -0.159999 v -0.48 h -0.16 v -0.48 h -0.16 v -0.48 h -0.160004 v -0.64 h -0.16 v -0.64 h -0.16 v -0.64 h -0.159999 v -0.64 h -0.16 v -0.64 h -0.16 v -0.64 h -0.16 v -0.8 h -0.16 v -1.28 h -0.16 v -1.12 H 52.48 v -1.12 h -0.16 v -2.88 H 52.16 V 46.880001 Z"
         id="path1245"
         style="clip-rule:evenodd" />
    </clipPath>
    <clipPath
       clipPathUnits="userSpaceOnUse"
       id="clipPath1261">
      <path
         d="m 47.200001,178.24 v 0.48 l 0.16,-0.48 z m 600.640029,0.32 v 0.47999 L 648,178.56 Z m -600.480029,0.32 v 0.79999 H 47.52 V 180.48 h 0.16 v 0.63999 h 0.16 v 0.48002 H 48 V 182.08 h 0.16 v 0.48 h 0.16 v 0.32 h 0.16 v 0.32 h 0.159999 v 0.47999 h 0.16 V 184 h 0.16 l 0.16,0.16 v 0.32 h 0.16 l 0.16,0.16 v 0.32001 h 0.159999 V 185.28 h 0.16 l 0.16,0.16 v 0.31999 h 0.160004 l 0.16,0.16001 v 0.32 h 0.16 l 0.319999,0.32 v 0.32 h 0.16 l 0.32,0.32 v 0.32 h 0.16 L 52,188.16 v 0.32 h 0.16 l 2.080002,2.08 0.319999,0.16 0.48,0.48 0.32,0.16 0.479999,0.48 0.32,0.16 0.479999,0.48 0.32,0.16 0.48,0.47999 0.319999,0.16001 0.320004,0.32001 0.32,0.15998 0.159999,0.16001 0.32,0.16 0.32,0.31999 0.319999,0.16001 0.16,0.16 0.32,0.16 0.16,0.15999 0.32,0.16001 0.159999,0.16 0.64,0.31999 0.16,0.16001 0.319999,0.16 0.16,0.16 1.280003,0.64 0.16,0.16001 3.839996,1.91999 0.160004,0.15999 0.479995,0.16001 1.280007,0.64 0.479995,0.16 0.64,0.32001 0.480003,0.15999 0.64,0.32 0.479995,0.16001 0.320008,0.15998 0.479995,0.16001 0.32,0.16 1.440003,0.48 0.319999,0.16 4.799996,1.59999 0.319999,0.16001 0.640007,0.16 1.439995,0.48 0.64,0.16 0.959999,0.32001 1.280006,0.31999 0.479996,0.16 1.279999,0.31999 0.480003,0.16001 3.839996,0.96 0.800003,0.15999 1.279999,0.32001 0.800003,0.16 0.64,0.15999 2.400001,0.48001 0.959999,0.16001 4.799998,0.95999 1.28,0.16 1.12,0.16001 2.56,0.31999 1.12,0.16 2.56,0.31999 1.6,0.16001 1.76,0.16 3.2,0.31999 1.76,0.16001 2.56,0.16 5.44,0.31999 7.84,0.16001 424.48003,0.16 v -0.16 l 7.83996,-0.16001 2.72003,-0.15999 2.88001,-0.16 2.56,-0.16 3.19995,-0.32 1.76001,-0.16 3.20001,-0.32001 1.28003,-0.15999 1.11999,-0.16 2.56,-0.32001 1.12,-0.15998 1.27996,-0.16001 1.12,-0.16 0.80005,-0.16001 0.95996,-0.15998 4,-0.80001 0.96002,-0.16 0.79999,-0.16 0.64001,-0.16001 0.79999,-0.15999 1.91998,-0.48001 0.79999,-0.15999 1.28003,-0.32 0.79999,-0.16001 2.56,-0.64 0.48004,-0.15998 0.63995,-0.16001 0.96002,-0.32001 0.64002,-0.15998 L 612,204.8 l 0.64001,-0.16 0.47999,-0.16 0.64001,-0.15999 0.47998,-0.16001 0.64001,-0.16 3.83997,-1.28 0.32001,-0.16 1.44,-0.48 0.32001,-0.16 0.96002,-0.31999 0.32001,-0.16001 0.47998,-0.16 0.32,-0.16001 0.47998,-0.15998 0.32001,-0.16001 0.47998,-0.16 0.32001,-0.16 0.48004,-0.15999 1.27997,-0.64002 0.47998,-0.15999 3.84003,-1.91999 0.15997,-0.16001 2.24005,-1.11999 0.15998,-0.16001 0.64001,-0.32 0.15997,-0.16001 0.32001,-0.15999 0.16003,-0.16 0.63996,-0.32001 0.16003,-0.15999 0.32001,-0.16 0.15997,-0.16 0.32001,-0.16001 0.32001,-0.31999 0.32,-0.16 0.15998,-0.16001 0.32001,-0.15998 0.16003,-0.16001 0.31995,-0.16 0.32,-0.31999 0.32001,-0.16001 0.47998,-0.47999 0.32001,-0.16001 0.48004,-0.48001 0.32001,-0.15999 0.79998,-0.8 0.32001,-0.16 1.91998,-1.92 0.15998,-0.31999 0.80005,-0.80001 0.15997,-0.32 0.32001,-0.32 0.15997,-0.32 0.32001,-0.32 0.16003,-0.32 0.15998,-0.16001 0.16003,-0.31999 0.15997,-0.16 0.32001,-0.64 0.15997,-0.16 0.79999,-1.6 0.16003,-0.48001 0.15998,-0.31999 0.48004,-1.44 0.15997,-0.64 0.16004,-0.96001 h -0.16004 L 647.35998,180 l -0.47998,0.96001 -0.16003,0.15998 -0.15997,0.32001 -0.15998,0.16001 -0.16003,0.31999 -0.32001,0.32 -0.15997,0.32 -2.08002,2.08 -0.32001,0.16 -0.47998,0.48 -0.32,0.16 -0.32001,0.31999 -0.32001,0.16001 -0.15997,0.16 -0.32001,0.16 -0.15997,0.15999 -0.32001,0.16001 -0.16003,0.16 -0.32001,0.16 -0.15997,0.15999 L 640,187.2 l -0.15997,0.16 -0.64002,0.31999 -0.16003,0.16001 -1.27997,0.64 -0.16003,0.16 -0.31995,0.16 -0.48004,0.16001 -1.91999,0.95999 -0.47998,0.16 -0.64001,0.31999 -0.47998,0.16001 -0.32001,0.16 -0.48004,0.16 -0.32001,0.15999 -0.95996,0.32001 -0.32001,0.16 -0.47998,0.15999 -0.32,0.16001 -0.48004,0.16 -0.31995,0.16 -0.96002,0.32 -0.32001,0.16 -2.88,0.96001 -0.64002,0.15998 L 624,193.92 l -0.64002,0.16 -0.47998,0.16 -0.64001,0.15999 -0.47998,0.16001 -1.28003,0.32 L 620,195.03999 616.79999,195.84 616,196 l -0.64002,0.16 -7.20001,1.44001 -0.95996,0.15998 -0.79999,0.16001 -3.84002,0.64 -0.79999,0.16 -0.96002,0.16 -1.12,0.15999 -1.27997,0.16001 -2.24005,0.32 -1.27997,0.15999 -1.11999,0.16001 -1.28003,0.16 -1.44,0.16 -6.39997,0.64 -1.92004,0.16001 -2.39996,0.15998 -4.47998,0.32001 -3.68006,0.16001 -3.83996,0.15998 -8.96003,0.16001 -423.67999,0.16 v -0.16 l -8.63999,-0.16001 -3.84,-0.15998 -3.68,-0.16001 -2.4,-0.16 -2.24,-0.16001 -2.4,-0.15998 -1.92,-0.16001 -8,-0.8 -2.24,-0.32001 -1.279999,-0.15999 -1.120003,-0.16 -1.279999,-0.16 -2.239997,-0.32 -3.840004,-0.64 -0.799996,-0.16 -0.959999,-0.16 L 88,197.75999 87.040001,197.60001 86.239998,197.44 l -0.959999,-0.16 -0.799996,-0.16001 -0.960006,-0.15998 -0.64,-0.16001 -1.599998,-0.32 -0.64,-0.15999 L 79.839996,196.16 72.800003,194.39999 72.32,194.24 71.68,194.08 71.199997,193.92 70.559998,193.75999 66.720001,192.48 66.400002,192.32001 65.919998,192.16 65.599998,192 64.639999,191.67999 64.32,191.52 l -0.48,-0.16 -0.32,-0.16 -0.959999,-0.32 -0.640003,-0.32 -0.479999,-0.16001 -0.64,-0.31999 L 60.32,189.92 57.119999,188.32001 56.959999,188.16 56,187.67999 55.84,187.52 l -0.639999,-0.32 -0.16,-0.16001 -0.639999,-0.31999 -0.16,-0.16 -0.640004,-0.32 -0.319999,-0.32 -0.32,-0.16001 -0.16,-0.15998 L 52.48,185.44 52,184.96001 51.68,184.8 49.279999,182.39999 h -0.16 V 182.08 l -0.32,-0.32001 h -0.16 V 181.44 L 48.48,181.28 h -0.16 v -0.31999 H 48.16 V 180.64 H 48 v -0.31999 H 47.84 V 179.84 h -0.16 v -0.32 h -0.16 v -0.64 z"
         id="path1259"
         style="clip-rule:evenodd" />
    </clipPath>
  </defs>
  <metadata
     id="metadata5">
    <rdf:RDF>
      <cc:Work
         rdf:about="">
        <dc:format>image/svg+xml</dc:format>
        <dc:type
           rdf:resource="http://purl.org/dc/dcmitype/StillImage" />
        <dc:title></dc:title>
      </cc:Work>
    </rdf:RDF>
  </metadata>
  <g
     id="layer1">
    <g
       id="g823"
       transform="matrix(0.26458333,0,0,0.26458333,0.78316667,0.32798864)">
      <g
         id="g869" />
      <g
         id="g1221">
        <g
           id="g1223"
           clip-path="url(#clipPath1227)">
          <path
             d="M 61.759998,133.75999 H 657.91998 V 151.84 H 61.759998 Z"
             style="fill:#ff0000;fill-opacity:1;fill-rule:nonzero;stroke:none"
             id="path1229" />
        </g>
      </g>
      <g
         id="g1231">
        <g
           id="g1233"
           clip-path="url(#clipPath1237)">
          <path
             d="m 652.96002,46.880001 h 5.12 V 151.84 h -5.12 z"
             style="fill:#ff0000;fill-opacity:1;fill-rule:nonzero;stroke:none"
             id="path1239" />
        </g>
      </g>
      <g
         id="g1241">
        <g
           id="g1243"
           clip-path="url(#clipPath1247)">
          <path
             d="M 47.200001,46.880001 H 65.440002 V 137.44 H 47.200001 Z"
             style="fill:#ff0000;fill-opacity:1;fill-rule:nonzero;stroke:none"
             id="path1249" />
        </g>
      </g>
      <g
         id="g1251">
        <path
           d="M 557.91998,151.84 H 568 v 50.08 h -10.08002 z m -410.71998,0 h 10.08 v 50.08 H 147.2 Z"
           style="fill:#808080;fill-opacity:1;fill-rule:evenodd;stroke:none"
           id="path1253" />
      </g>
      <g
         id="g1255">
        <g
           id="g1257"
           clip-path="url(#clipPath1261)">
          <path
             d="M 47.200001,178.24 H 648 v 33.6 H 47.200001 Z"
             style="fill:#808080;fill-opacity:1;fill-rule:nonzero;stroke:none"
             id="path1263" />
        </g>
      </g>
    </g>
  </g>
</svg>
