<?xml version="1.0" encoding="UTF-8" standalone="no"?>
<svg
   xmlns:dc="http://purl.org/dc/elements/1.1/"
   xmlns:cc="http://creativecommons.org/ns#"
   xmlns:rdf="http://www.w3.org/1999/02/22-rdf-syntax-ns#"
   xmlns:svg="http://www.w3.org/2000/svg"
   xmlns="http://www.w3.org/2000/svg"
   id="svg8"
   version="1.1"
   viewBox="0 0 119.0625 26.458332"
   height="100"
   width="450">
  <defs
     id="defs2">
    <clipPath
       clipPathUnits="userSpaceOnUse"
       id="clipPath835">
      <path
         d="M 0,0.32 V 793.76001 H 1122.5601 V 0.32 Z"
         id="path833"
         style="clip-rule:evenodd" />
    </clipPath>
  </defs>
  <metadata
     id="metadata5">
    <rdf:RDF>
      <cc:Work
         rdf:about="">
        <dc:format>image/svg+xml</dc:format>
        <dc:type
           rdf:resource="http://purl.org/dc/dcmitype/StillImage" />
        <dc:title></dc:title>
      </cc:Work>
    </rdf:RDF>
  </metadata>
  <g
     transform="translate(0,-270.54169)"
     id="layer1">
    <g
       id="g823"
       transform="matrix(0.26458333,0,0,0.26458333,-42.925998,43.635005)">
      <g
         transform="translate(120.71323,822.26418)"
         id="g829">
        <g
           id="g831"
           clip-path="url(#clipPath835)">
          <g
             id="g837"
             transform="translate(124.21,87.559998)">
            <path
               d="m 0,0 c 0,1.12 0,2.41 -0.16,3.53 -0.16,1.12 -0.32,2.4 -0.48,3.52 -0.16,1.12 -0.48,2.24 -0.8,3.36 -0.48,1.13 -0.8,2.25 -1.28,3.37 -0.48,1.12 -0.96,2.08 -1.44,3.2 -0.65,0.960001 -1.29,2.079999 -1.93,3.04 -0.64,0.97 -1.28,1.930001 -2.08,2.89 -0.8,0.799999 -1.44,1.76 -2.4,2.559999 -0.8,0.800001 -1.6,1.600001 -2.56,2.400002 -0.96,0.799999 -1.92,1.439998 -2.88,2.08 C -16.969999,30.6 -17.93,31.24 -19.059999,31.719999 -20.02,32.360001 -21.139999,32.84 -22.26,33.32 c -1.119999,0.479999 -2.08,0.799999 -3.199999,1.119999 -1.280001,0.319999 -2.400002,0.640003 -3.520001,0.960003 -1.12,0.159999 -2.239999,0.319999 -3.52,0.479999 -1.130001,0.16 -2.25,0.16 -3.529999,0.16 -1.120003,0 -2.400001,0 -3.52,-0.16 -1.119999,-0.16 -2.400002,-0.32 -3.520001,-0.479999 -1.119999,-0.32 -2.240001,-0.640004 -3.36,-0.960003 -1.130001,-0.32 -2.25,-0.64 -3.369999,-1.119999 C -50.919998,32.84 -51.880001,32.360001 -53,31.719999 -53.959999,31.24 -55.080002,30.6 -56.040001,29.950001 -57,29.309999 -57.959999,28.67 -58.919998,27.870001 -59.720001,27.07 -60.68,26.27 -61.490002,25.469999 -62.290001,24.67 -63.09,23.709999 -63.889999,22.91 c -0.800003,-0.959999 -1.440003,-1.92 -2.080002,-2.89 -0.64,-0.960001 -1.279999,-2.079999 -1.760002,-3.04 -0.64,-1.12 -1.119995,-2.08 -1.599999,-3.2 -0.479996,-1.12 -0.799995,-2.24 -1.119995,-3.37 -0.32,-1.12 -0.639999,-2.24 -0.960007,-3.36 C -71.57,5.93 -71.730003,4.65 -71.889999,3.53 -72.050003,2.41 -72.050003,1.12 -72.050003,0 c 0,-1.12 0,-2.4 0.160004,-3.52 0.159996,-1.28 0.319999,-2.4 0.479995,-3.52 0.320008,-1.13 0.640007,-2.25 0.960007,-3.37 0.32,-1.28 0.639999,-2.24 1.119995,-3.36 0.480004,-1.12 0.959999,-2.24 1.599999,-3.199999 0.480003,-1.130001 1.120002,-2.09 1.760002,-3.050001 0.639999,-0.96 1.279999,-1.920001 2.080002,-2.88 0.799999,-0.960001 1.599998,-1.76 2.399997,-2.559999 0.810002,-0.960001 1.770001,-1.610001 2.570004,-2.410002 0.959999,-0.799999 1.919998,-1.439998 2.879997,-2.08 0.959999,-0.639999 2.080002,-1.279999 3.040001,-1.92 1.119999,-0.479997 2.080002,-0.960001 3.200001,-1.44 1.119999,-0.48 2.239998,-0.8 3.369999,-1.279999 1.119999,-0.32 2.240001,-0.48 3.36,-0.799999 1.119999,-0.16 2.400002,-0.32 3.520001,-0.490002 1.119999,-0.16 2.399997,-0.16 3.52,-0.16 1.279999,0 2.399998,0 3.529999,0.16 1.280001,0.170002 2.4,0.330002 3.52,0.490002 1.119999,0.319999 2.24,0.479999 3.520001,0.799999 1.119999,0.479999 2.08,0.799999 3.199999,1.279999 1.120001,0.479999 2.24,0.960003 3.200001,1.44 1.129999,0.640001 2.09,1.280001 3.049999,1.92 0.96,0.640002 1.92,1.280001 2.88,2.08 0.96,0.800001 1.76,1.450001 2.56,2.410002 0.96,0.799999 1.6,1.599998 2.4,2.559999 0.8,0.959999 1.44,1.92 2.08,2.88 0.64,0.960001 1.28,1.92 1.93,3.050001 0.48,0.959999 0.96,2.079999 1.44,3.199999 0.48,1.12 0.8,2.08 1.28,3.36 0.32,1.12 0.64,2.24 0.8,3.37 0.16,1.12 0.32,2.24 0.48,3.52 C 0,-2.4 0,-1.12 0,0 Z"
               style="fill:none;stroke:#a52a2a;stroke-width:3.04200006;stroke-linecap:butt;stroke-linejoin:miter;stroke-miterlimit:4;stroke-dasharray:none;stroke-opacity:1"
               id="path839" />
          </g>
          <g
             id="g841"
             transform="translate(210.35001,87.559998)">
            <path
               d="m 0,0 c 0,1.12 0,2.41 -0.16,3.53 -0.16,1.12 -0.32,2.4 -0.48,3.52 -0.32,1.12 -0.64,2.24 -0.96,3.36 -0.32,1.13 -0.64,2.25 -1.12,3.37 -0.48,1.12 -0.96,2.08 -1.6,3.2 -0.48,0.960001 -1.12,2.079999 -1.76,3.04 -0.65,0.97 -1.29,1.930001 -2.09,2.89 -0.8,0.799999 -1.6,1.76 -2.4,2.559999 -0.8,0.800001 -1.76,1.600001 -2.56,2.400002 -0.96,0.799999 -1.92,1.439998 -2.88,2.08 C -16.969999,30.6 -17.93,31.24 -19.049999,31.719999 -20.01,32.360001 -21.139999,32.84 -22.26,33.32 c -1.119999,0.479999 -2.24,0.799999 -3.360001,1.119999 -1.119999,0.319999 -2.24,0.640003 -3.359999,0.960003 -1.12,0.159999 -2.399999,0.319999 -3.52,0.479999 -1.119999,0.16 -2.41,0.16 -3.529999,0.16 -1.120003,0 -2.400001,0 -3.52,-0.16 -1.119999,-0.16 -2.400002,-0.32 -3.520001,-0.479999 -1.119999,-0.32 -2.240001,-0.640004 -3.36,-0.960003 -1.119999,-0.32 -2.25,-0.64 -3.369999,-1.119999 C -50.919998,32.84 -52.040001,32.360001 -53,31.719999 -54.119999,31.24 -55.080002,30.6 -56.040001,29.950001 -57,29.309999 -57.959999,28.67 -58.919998,27.870001 -59.880001,27.07 -60.68,26.27 -61.48,25.469999 -62.279999,24.67 -63.09,23.709999 -63.889999,22.91 c -0.800003,-0.959999 -1.440003,-1.92 -2.080002,-2.89 -0.64,-0.960001 -1.279999,-2.079999 -1.919998,-3.04 -0.480004,-1.12 -0.959999,-2.08 -1.440003,-3.2 -0.479996,-1.12 -0.799995,-2.24 -1.119995,-3.37 C -70.93,9.29 -71.089996,8.17 -71.410004,7.05 -71.57,5.93 -71.730003,4.65 -71.889999,3.53 -72.050003,2.41 -72.050003,1.12 -72.050003,0 c 0,-1.12 0,-2.4 0.160004,-3.52 0.159996,-1.28 0.319999,-2.4 0.479995,-3.52 0.320008,-1.13 0.480004,-2.25 0.960007,-3.37 0.32,-1.28 0.639999,-2.24 1.119995,-3.36 0.480004,-1.12 0.959999,-2.24 1.440003,-3.199999 0.639999,-1.130001 1.279998,-2.09 1.919998,-3.050001 0.639999,-0.96 1.279999,-1.920001 2.080002,-2.88 0.799999,-0.960001 1.61,-1.76 2.409999,-2.559999 0.8,-0.960001 1.599999,-1.610001 2.560002,-2.410002 0.959999,-0.799999 1.919998,-1.439998 2.879997,-2.08 0.959999,-0.639999 1.920002,-1.279999 3.040001,-1.92 0.959999,-0.479997 2.080002,-0.960001 3.200001,-1.44 1.119999,-0.48 2.25,-0.8 3.369999,-1.279999 1.119999,-0.32 2.240001,-0.48 3.36,-0.799999 1.119999,-0.16 2.400002,-0.32 3.520001,-0.490002 1.119999,-0.16 2.399997,-0.16 3.52,-0.16 1.119999,0 2.41,0 3.529999,0.16 1.120001,0.170002 2.4,0.330002 3.52,0.490002 1.119999,0.319999 2.24,0.479999 3.359999,0.799999 1.120001,0.479999 2.240002,0.799999 3.360001,1.279999 1.120001,0.479999 2.25,0.960003 3.210001,1.44 1.119999,0.640001 2.08,1.280001 3.039999,1.92 0.96,0.640002 1.92,1.280001 2.88,2.08 0.8,0.800001 1.76,1.450001 2.56,2.410002 0.8,0.799999 1.6,1.599998 2.4,2.559999 0.8,0.959999 1.44,1.92 2.09,2.88 0.64,0.960001 1.28,1.92 1.76,3.050001 0.64,0.959999 1.12,2.079999 1.6,3.199999 0.48,1.12 0.8,2.08 1.12,3.36 0.32,1.12 0.64,2.24 0.96,3.37 0.16,1.12 0.32,2.24 0.48,3.52 C 0,-2.4 0,-1.12 0,0 Z"
               style="fill:#ff0000;fill-opacity:1;fill-rule:nonzero;stroke:none"
               id="path843" />
          </g>
          <g
             id="g845"
             transform="translate(210.35001,87.559998)">
            <path
               d="m 0,0 c 0,1.12 0,2.41 -0.16,3.53 -0.16,1.12 -0.32,2.4 -0.48,3.52 -0.32,1.12 -0.64,2.24 -0.96,3.36 -0.32,1.13 -0.64,2.25 -1.12,3.37 -0.48,1.12 -0.96,2.08 -1.6,3.2 -0.48,0.960001 -1.12,2.079999 -1.76,3.04 -0.65,0.97 -1.29,1.930001 -2.09,2.89 -0.8,0.799999 -1.6,1.76 -2.4,2.559999 -0.8,0.800001 -1.76,1.600001 -2.56,2.400002 -0.96,0.799999 -1.92,1.439998 -2.88,2.08 C -16.969999,30.6 -17.93,31.24 -19.049999,31.719999 -20.01,32.360001 -21.139999,32.84 -22.26,33.32 c -1.119999,0.479999 -2.24,0.799999 -3.360001,1.119999 -1.119999,0.319999 -2.24,0.640003 -3.359999,0.960003 -1.12,0.159999 -2.399999,0.319999 -3.52,0.479999 -1.119999,0.16 -2.41,0.16 -3.529999,0.16 -1.120003,0 -2.400001,0 -3.52,-0.16 -1.119999,-0.16 -2.400002,-0.32 -3.520001,-0.479999 -1.119999,-0.32 -2.240001,-0.640004 -3.36,-0.960003 -1.119999,-0.32 -2.25,-0.64 -3.369999,-1.119999 C -50.919998,32.84 -52.040001,32.360001 -53,31.719999 -54.119999,31.24 -55.080002,30.6 -56.040001,29.950001 -57,29.309999 -57.959999,28.67 -58.919998,27.870001 -59.880001,27.07 -60.68,26.27 -61.48,25.469999 -62.279999,24.67 -63.09,23.709999 -63.889999,22.91 c -0.800003,-0.959999 -1.440003,-1.92 -2.080002,-2.89 -0.64,-0.960001 -1.279999,-2.079999 -1.919998,-3.04 -0.480004,-1.12 -0.959999,-2.08 -1.440003,-3.2 -0.479996,-1.12 -0.799995,-2.24 -1.119995,-3.37 C -70.93,9.29 -71.089996,8.17 -71.410004,7.05 -71.57,5.93 -71.730003,4.65 -71.889999,3.53 -72.050003,2.41 -72.050003,1.12 -72.050003,0 c 0,-1.12 0,-2.4 0.160004,-3.52 0.159996,-1.28 0.319999,-2.4 0.479995,-3.52 0.320008,-1.13 0.480004,-2.25 0.960007,-3.37 0.32,-1.28 0.639999,-2.24 1.119995,-3.36 0.480004,-1.12 0.959999,-2.24 1.440003,-3.199999 0.639999,-1.130001 1.279998,-2.09 1.919998,-3.050001 0.639999,-0.96 1.279999,-1.920001 2.080002,-2.88 0.799999,-0.960001 1.61,-1.76 2.409999,-2.559999 0.8,-0.960001 1.599999,-1.610001 2.560002,-2.410002 0.959999,-0.799999 1.919998,-1.439998 2.879997,-2.08 0.959999,-0.639999 1.920002,-1.279999 3.040001,-1.92 0.959999,-0.479997 2.080002,-0.960001 3.200001,-1.44 1.119999,-0.48 2.25,-0.8 3.369999,-1.279999 1.119999,-0.32 2.240001,-0.48 3.36,-0.799999 1.119999,-0.16 2.400002,-0.32 3.520001,-0.490002 1.119999,-0.16 2.399997,-0.16 3.52,-0.16 1.119999,0 2.41,0 3.529999,0.16 1.120001,0.170002 2.4,0.330002 3.52,0.490002 1.119999,0.319999 2.24,0.479999 3.359999,0.799999 1.120001,0.479999 2.240002,0.799999 3.360001,1.279999 1.120001,0.479999 2.25,0.960003 3.210001,1.44 1.119999,0.640001 2.08,1.280001 3.039999,1.92 0.96,0.640002 1.92,1.280001 2.88,2.08 0.8,0.800001 1.76,1.450001 2.56,2.410002 0.8,0.799999 1.6,1.599998 2.4,2.559999 0.8,0.959999 1.44,1.92 2.09,2.88 0.64,0.960001 1.28,1.92 1.76,3.050001 0.64,0.959999 1.12,2.079999 1.6,3.199999 0.48,1.12 0.8,2.08 1.12,3.36 0.32,1.12 0.64,2.24 0.96,3.37 0.16,1.12 0.32,2.24 0.48,3.52 C 0,-2.4 0,-1.12 0,0 Z"
               style="fill:none;stroke:#a52a2a;stroke-width:3.04200006;stroke-linecap:butt;stroke-linejoin:miter;stroke-miterlimit:4;stroke-dasharray:none;stroke-opacity:1"
               id="path847" />
          </g>
          <g
             id="g849"
             transform="translate(296.48999,87.559998)">
            <path
               d="m 0,0 c 0,1.12 -0.16,2.41 -0.16,3.53 -0.16,1.12 -0.32,2.4 -0.64,3.52 -0.16,1.12 -0.48,2.24 -0.8,3.36 -0.32,1.13 -0.8,2.25 -1.12,3.37 -0.48,1.12 -0.96,2.08 -1.6,3.2 -0.48,0.960001 -1.12,2.079999 -1.76,3.04 -0.64,0.97 -1.44,1.930001 -2.09,2.89 -0.8,0.799999 -1.6,1.76 -2.4,2.559999 -0.8,0.800001 -1.76,1.600001 -2.56,2.400002 -0.96,0.799999 -1.92,1.439998 -2.88,2.08 C -16.969999,30.6 -18.09,31.24 -19.049999,31.719999 -20.17,32.360001 -21.129999,32.84 -22.26,33.32 c -1.119999,0.479999 -2.24,0.799999 -3.360001,1.119999 -1.119999,0.319999 -2.24,0.640003 -3.359999,0.960003 -1.28,0.159999 -2.399999,0.319999 -3.52,0.479999 -1.279999,0.16 -2.400002,0.16 -3.52,0.16 -1.290001,0 -2.41,0 -3.529999,-0.16 -1.280003,-0.16 -2.400002,-0.32 -3.520001,-0.479999 -1.119999,-0.32 -2.400001,-0.640004 -3.52,-0.960003 -1.119999,-0.32 -2.240002,-0.64 -3.200001,-1.119999 C -50.919998,32.84 -52.040001,32.360001 -53,31.719999 -54.119999,31.24 -55.080002,30.6 -56.040001,29.950001 -57.16,29.309999 -57.959999,28.67 -58.919998,27.870001 -59.880001,27.07 -60.68,26.27 -61.48,25.469999 -62.439999,24.67 -63.240002,23.709999 -63.880001,22.91 c -0.810001,-0.959999 -1.450001,-1.92 -2.09,-2.89 -0.799996,-0.960001 -1.279999,-2.079999 -1.919998,-3.04 -0.480004,-1.12 -0.959999,-2.08 -1.440003,-3.2 -0.479996,-1.12 -0.959999,-2.24 -1.279999,-3.37 C -70.93,9.29 -71.25,8.17 -71.410004,7.05 -71.730003,5.93 -71.889999,4.65 -71.889999,3.53 -72.050003,2.41 -72.050003,1.12 -72.050003,0 c 0,-1.12 0,-2.4 0.160004,-3.52 0,-1.28 0.159996,-2.4 0.479995,-3.52 0.160004,-1.13 0.480004,-2.25 0.800003,-3.37 0.32,-1.28 0.800003,-2.24 1.279999,-3.36 0.480004,-1.12 0.959999,-2.24 1.440003,-3.199999 0.639999,-1.130001 1.120002,-2.09 1.919998,-3.050001 0.639999,-0.96 1.279999,-1.920001 2.09,-2.88 0.639999,-0.960001 1.440002,-1.76 2.400001,-2.559999 0.8,-0.960001 1.599999,-1.610001 2.560002,-2.410002 0.959999,-0.799999 1.759998,-1.439998 2.879997,-2.08 0.959999,-0.639999 1.920002,-1.279999 3.040001,-1.92 0.959999,-0.479997 2.080002,-0.960001 3.209999,-1.44 0.959999,-0.48 2.080002,-0.8 3.200001,-1.279999 1.119999,-0.32 2.400001,-0.48 3.52,-0.799999 1.119999,-0.16 2.239998,-0.32 3.520001,-0.490002 1.119999,-0.16 2.239998,-0.16 3.529999,-0.16 1.119998,0 2.240001,0 3.52,0.16 1.120001,0.170002 2.24,0.330002 3.52,0.490002 1.119999,0.319999 2.24,0.479999 3.359999,0.799999 1.120001,0.479999 2.240002,0.799999 3.360001,1.279999 1.130001,0.479999 2.09,0.960003 3.210001,1.44 0.959999,0.640001 2.08,1.280001 3.039999,1.92 0.96,0.640002 1.92,1.280001 2.88,2.08 0.8,0.800001 1.76,1.450001 2.56,2.410002 0.8,0.799999 1.6,1.599998 2.4,2.559999 0.65,0.959999 1.45,1.92 2.09,2.88 0.64,0.960001 1.28,1.92 1.76,3.050001 0.64,0.959999 1.12,2.079999 1.6,3.199999 0.32,1.12 0.8,2.08 1.12,3.36 0.32,1.12 0.64,2.24 0.8,3.37 0.32,1.12 0.48,2.24 0.64,3.52 C -0.16,-2.4 0,-1.12 0,0 Z"
               style="fill:none;stroke:#cccccc;stroke-width:3.04200006;stroke-linecap:butt;stroke-linejoin:miter;stroke-miterlimit:4;stroke-dasharray:none;stroke-opacity:1"
               id="path851" />
          </g>
          <g
             id="g853"
             transform="translate(382.63,87.559998)">
            <path
               d="m 0,0 c 0,1.12 -0.16,2.41 -0.32,3.53 0,1.12 -0.16,2.4 -0.48,3.52 -0.16,1.12 -0.48,2.24 -0.8,3.36 -0.32,1.13 -0.8,2.25 -1.28,3.37 -0.32,1.12 -0.96,2.08 -1.44,3.2 -0.48,0.960001 -1.12,2.079999 -1.76,3.04 -0.64,0.97 -1.44,1.930001 -2.24,2.89 -0.64,0.799999 -1.44,1.76 -2.25,2.559999 -0.96,0.800001 -1.76,1.600001 -2.72,2.400002 -0.8,0.799999 -1.76,1.439998 -2.72,2.08 C -17.129999,30.6 -18.09,31.24 -19.049999,31.719999 -20.17,32.360001 -21.290001,32.84 -22.25,33.32 c -1.120001,0.479999 -2.25,0.799999 -3.370001,1.119999 -1.119999,0.319999 -2.24,0.640003 -3.519998,0.960003 -1.120001,0.159999 -2.24,0.319999 -3.360001,0.479999 -1.279999,0.16 -2.400002,0.16 -3.68,0.16 -1.119999,0 -2.25,0 -3.529999,-0.16 -1.120003,-0.16 -2.240002,-0.32 -3.360001,-0.479999 -1.279998,-0.32 -2.400001,-0.640004 -3.52,-0.960003 -1.119999,-0.32 -2.240002,-0.64 -3.360001,-1.119999 C -50.91,32.84 -52.029999,32.360001 -53.16,31.719999 -54.119999,31.24 -55.080002,30.6 -56.200001,29.950001 -57.16,29.309999 -58.119999,28.67 -58.919998,27.870001 -59.880001,27.07 -60.84,26.27 -61.639999,25.469999 c -0.8,-0.799999 -1.600003,-1.76 -2.400002,-2.559999 -0.639999,-0.959999 -1.440002,-1.92 -2.080002,-2.89 -0.649994,-0.960001 -1.290001,-2.079999 -1.769996,-3.04 -0.64,-1.12 -1.120003,-2.08 -1.599999,-3.2 -0.32,-1.12 -0.800003,-2.24 -1.120003,-3.37 C -70.93,9.29 -71.25,8.17 -71.410004,7.05 c -0.319999,-1.12 -0.479995,-2.4 -0.639999,-3.52 0,-1.12 -0.159996,-2.41 -0.159996,-3.53 0,-1.12 0.159996,-2.4 0.159996,-3.52 0.160004,-1.28 0.32,-2.4 0.639999,-3.52 0.160004,-1.13 0.480004,-2.25 0.800003,-3.37 0.32,-1.28 0.800003,-2.24 1.120003,-3.36 0.479996,-1.12 0.959999,-2.24 1.599999,-3.199999 0.479995,-1.130001 1.120002,-2.09 1.769996,-3.050001 0.64,-0.96 1.440003,-1.920001 2.080002,-2.88 0.799999,-0.960001 1.600002,-1.76 2.400002,-2.559999 0.799999,-0.960001 1.759998,-1.610001 2.720001,-2.410002 0.799999,-0.799999 1.759998,-1.439998 2.719997,-2.08 1.119999,-0.639999 2.080002,-1.279999 3.040001,-1.92 1.130001,-0.479997 2.25,-0.960001 3.209999,-1.44 1.119999,-0.48 2.240002,-0.8 3.360001,-1.279999 1.119999,-0.32 2.240002,-0.48 3.52,-0.799999 1.119999,-0.16 2.239998,-0.32 3.360001,-0.490002 1.279999,-0.16 2.41,-0.16 3.529999,-0.16 1.279998,0 2.400001,0 3.68,0.16 1.120001,0.170002 2.24,0.330002 3.360001,0.490002 1.279998,0.319999 2.399999,0.479999 3.519998,0.799999 1.120001,0.479999 2.25,0.799999 3.370001,1.279999 0.959999,0.479999 2.08,0.960003 3.200001,1.44 0.959999,0.640001 1.92,1.280001 3.039999,1.92 0.96,0.640002 1.92,1.280001 2.72,2.08 0.96,0.800001 1.76,1.450001 2.72,2.410002 0.81,0.799999 1.61,1.599998 2.25,2.559999 0.8,0.959999 1.6,1.92 2.24,2.88 0.64,0.960001 1.28,1.92 1.76,3.050001 0.48,0.959999 1.12,2.079999 1.44,3.199999 0.48,1.12 0.96,2.08 1.28,3.36 0.32,1.12 0.64,2.24 0.8,3.37 0.32,1.12 0.48,2.24 0.48,3.52 C -0.16,-2.4 0,-1.12 0,0 Z"
               style="fill:none;stroke:#a52a2a;stroke-width:3.04200006;stroke-linecap:butt;stroke-linejoin:miter;stroke-miterlimit:4;stroke-dasharray:none;stroke-opacity:1"
               id="path855" />
          </g>
          <g
             id="g857"
             transform="translate(468.60999,87.559998)">
            <path
               d="m 0,0 c 0,1.12 0,2.41 -0.16,3.53 0,1.12 -0.32,2.4 -0.48,3.52 -0.16,1.12 -0.48,2.24 -0.8,3.36 -0.32,1.13 -0.8,2.25 -1.28,3.37 -0.48,1.12 -0.96,2.08 -1.44,3.2 -0.64,0.960001 -1.28,2.079999 -1.92,3.04 -0.64,0.97 -1.28,1.930001 -2.08,2.89 -0.64,0.799999 -1.44,1.76 -2.4,2.559999 -0.8,0.800001 -1.61,1.600001 -2.57,2.400002 -0.96,0.799999 -1.92,1.439998 -2.88,2.08 C -16.969999,30.6 -17.93,31.24 -19.049999,31.719999 -20.01,32.360001 -21.129999,32.84 -22.25,33.32 c -0.959999,0.479999 -2.08,0.799999 -3.200001,1.119999 -1.129999,0.319999 -2.41,0.640003 -3.529999,0.960003 -1.12,0.159999 -2.239999,0.319999 -3.52,0.479999 -1.119999,0.16 -2.240002,0.16 -3.52,0.16 -1.119999,0 -2.399998,0 -3.520001,-0.16 -1.129997,-0.16 -2.25,-0.32 -3.529999,-0.479999 -1.119999,-0.32 -2.240001,-0.640004 -3.36,-0.960003 -1.119999,-0.32 -2.239998,-0.64 -3.360001,-1.119999 C -50.91,32.84 -51.869999,32.360001 -52.990002,31.719999 -53.959999,31.24 -55.080002,30.6 -56.040001,29.950001 -57,29.309999 -57.959999,28.67 -58.919998,27.870001 -59.720001,27.07 -60.68,26.27 -61.48,25.469999 -62.279999,24.67 -63.080002,23.709999 -63.880001,22.91 -64.519997,21.950001 -65.32,20.99 -65.959999,20.02 c -0.639999,-0.960001 -1.279999,-2.079999 -1.760002,-3.04 -0.650002,-1.12 -1.129997,-2.08 -1.610001,-3.2 -0.479996,-1.12 -0.799995,-2.24 -1.119995,-3.37 -0.32,-1.12 -0.639999,-2.24 -0.960007,-3.36 C -71.57,5.93 -71.730003,4.65 -71.889999,3.53 -72.050003,2.41 -72.050003,1.12 -72.050003,0 c 0,-1.12 0,-2.4 0.160004,-3.52 0.159996,-1.28 0.319999,-2.4 0.479995,-3.52 0.320008,-1.13 0.640007,-2.25 0.960007,-3.37 0.32,-1.28 0.639999,-2.24 1.119995,-3.36 0.480004,-1.12 0.959999,-2.24 1.610001,-3.199999 0.480003,-1.130001 1.120003,-2.09 1.760002,-3.050001 0.639999,-0.96 1.440002,-1.920001 2.079998,-2.88 0.799999,-0.960001 1.600002,-1.76 2.400001,-2.559999 0.8,-0.960001 1.759999,-1.610001 2.560002,-2.410002 0.959999,-0.799999 1.919998,-1.439998 2.879997,-2.08 0.959999,-0.639999 2.080002,-1.279999 3.049999,-1.92 1.120003,-0.479997 2.080002,-0.960001 3.200001,-1.44 1.120003,-0.48 2.240002,-0.8 3.360001,-1.279999 1.119999,-0.32 2.240001,-0.48 3.36,-0.799999 1.279999,-0.16 2.400002,-0.32 3.529999,-0.490002 1.120003,-0.16 2.400002,-0.16 3.520001,-0.16 1.279998,0 2.400001,0 3.52,0.16 1.280001,0.170002 2.4,0.330002 3.52,0.490002 1.119999,0.319999 2.4,0.479999 3.529999,0.799999 1.120001,0.479999 2.240002,0.799999 3.200001,1.279999 1.120001,0.479999 2.24,0.960003 3.200001,1.44 1.119999,0.640001 2.08,1.280001 3.039999,1.92 0.96,0.640002 1.92,1.280001 2.88,2.08 0.96,0.800001 1.77,1.450001 2.57,2.410002 0.96,0.799999 1.76,1.599998 2.4,2.559999 0.8,0.959999 1.44,1.92 2.08,2.88 0.64,0.960001 1.28,1.92 1.92,3.050001 0.48,0.959999 0.96,2.079999 1.44,3.199999 0.48,1.12 0.96,2.08 1.28,3.36 0.32,1.12 0.64,2.24 0.8,3.37 0.16,1.12 0.48,2.24 0.48,3.52 C 0,-2.4 0,-1.12 0,0 Z"
               style="fill:#ff0000;fill-opacity:1;fill-rule:nonzero;stroke:none"
               id="path859" />
          </g>
          <g
             id="g861"
             transform="translate(468.60999,87.559998)">
            <path
               d="m 0,0 c 0,1.12 0,2.41 -0.16,3.53 0,1.12 -0.32,2.4 -0.48,3.52 -0.16,1.12 -0.48,2.24 -0.8,3.36 -0.32,1.13 -0.8,2.25 -1.28,3.37 -0.48,1.12 -0.96,2.08 -1.44,3.2 -0.64,0.960001 -1.28,2.079999 -1.92,3.04 -0.64,0.97 -1.28,1.930001 -2.08,2.89 -0.64,0.799999 -1.44,1.76 -2.4,2.559999 -0.8,0.800001 -1.61,1.600001 -2.57,2.400002 -0.96,0.799999 -1.92,1.439998 -2.88,2.08 C -16.969999,30.6 -17.93,31.24 -19.049999,31.719999 -20.01,32.360001 -21.129999,32.84 -22.25,33.32 c -0.959999,0.479999 -2.08,0.799999 -3.200001,1.119999 -1.129999,0.319999 -2.41,0.640003 -3.529999,0.960003 -1.12,0.159999 -2.239999,0.319999 -3.52,0.479999 -1.119999,0.16 -2.240002,0.16 -3.52,0.16 -1.119999,0 -2.399998,0 -3.520001,-0.16 -1.129997,-0.16 -2.25,-0.32 -3.529999,-0.479999 -1.119999,-0.32 -2.240001,-0.640004 -3.36,-0.960003 -1.119999,-0.32 -2.239998,-0.64 -3.360001,-1.119999 C -50.91,32.84 -51.869999,32.360001 -52.990002,31.719999 -53.959999,31.24 -55.080002,30.6 -56.040001,29.950001 -57,29.309999 -57.959999,28.67 -58.919998,27.870001 -59.720001,27.07 -60.68,26.27 -61.48,25.469999 -62.279999,24.67 -63.080002,23.709999 -63.880001,22.91 -64.519997,21.950001 -65.32,20.99 -65.959999,20.02 c -0.639999,-0.960001 -1.279999,-2.079999 -1.760002,-3.04 -0.650002,-1.12 -1.129997,-2.08 -1.610001,-3.2 -0.479996,-1.12 -0.799995,-2.24 -1.119995,-3.37 -0.32,-1.12 -0.639999,-2.24 -0.960007,-3.36 C -71.57,5.93 -71.730003,4.65 -71.889999,3.53 -72.050003,2.41 -72.050003,1.12 -72.050003,0 c 0,-1.12 0,-2.4 0.160004,-3.52 0.159996,-1.28 0.319999,-2.4 0.479995,-3.52 0.320008,-1.13 0.640007,-2.25 0.960007,-3.37 0.32,-1.28 0.639999,-2.24 1.119995,-3.36 0.480004,-1.12 0.959999,-2.24 1.610001,-3.199999 0.480003,-1.130001 1.120003,-2.09 1.760002,-3.050001 0.639999,-0.96 1.440002,-1.920001 2.079998,-2.88 0.799999,-0.960001 1.600002,-1.76 2.400001,-2.559999 0.8,-0.960001 1.759999,-1.610001 2.560002,-2.410002 0.959999,-0.799999 1.919998,-1.439998 2.879997,-2.08 0.959999,-0.639999 2.080002,-1.279999 3.049999,-1.92 1.120003,-0.479997 2.080002,-0.960001 3.200001,-1.44 1.120003,-0.48 2.240002,-0.8 3.360001,-1.279999 1.119999,-0.32 2.240001,-0.48 3.36,-0.799999 1.279999,-0.16 2.400002,-0.32 3.529999,-0.490002 1.120003,-0.16 2.400002,-0.16 3.520001,-0.16 1.279998,0 2.400001,0 3.52,0.16 1.280001,0.170002 2.4,0.330002 3.52,0.490002 1.119999,0.319999 2.4,0.479999 3.529999,0.799999 1.120001,0.479999 2.240002,0.799999 3.200001,1.279999 1.120001,0.479999 2.24,0.960003 3.200001,1.44 1.119999,0.640001 2.08,1.280001 3.039999,1.92 0.96,0.640002 1.92,1.280001 2.88,2.08 0.96,0.800001 1.77,1.450001 2.57,2.410002 0.96,0.799999 1.76,1.599998 2.4,2.559999 0.8,0.959999 1.44,1.92 2.08,2.88 0.64,0.960001 1.28,1.92 1.92,3.050001 0.48,0.959999 0.96,2.079999 1.44,3.199999 0.48,1.12 0.96,2.08 1.28,3.36 0.32,1.12 0.64,2.24 0.8,3.37 0.16,1.12 0.48,2.24 0.48,3.52 C 0,-2.4 0,-1.12 0,0 Z"
               style="fill:none;stroke:#a52a2a;stroke-width:3.04200006;stroke-linecap:butt;stroke-linejoin:miter;stroke-miterlimit:4;stroke-dasharray:none;stroke-opacity:1"
               id="path863" />
          </g>
        </g>
      </g>
    </g>
  </g>
</svg>
