<?xml version="1.0" encoding="UTF-8" standalone="no"?>
<svg
   xmlns:dc="http://purl.org/dc/elements/1.1/"
   xmlns:cc="http://creativecommons.org/ns#"
   xmlns:rdf="http://www.w3.org/1999/02/22-rdf-syntax-ns#"
   xmlns:svg="http://www.w3.org/2000/svg"
   xmlns="http://www.w3.org/2000/svg"
   id="svg8"
   version="1.1"
   viewBox="0 0 343.95832 171.97918"
   height="650"
   width="1300">
  <defs
     id="defs2">
    <clipPath
       clipPathUnits="userSpaceOnUse"
       id="clipPath1054">
      <path
         d="M 0.32,0 V 971.35998 H 1375.6801 V 0 Z"
         id="path1052"
         style="clip-rule:evenodd" />
    </clipPath>
    <clipPath
       clipPathUnits="userSpaceOnUse"
       id="clipPath1086">
      <path
         d="M 0.32,0 V 971.35998 H 1375.6801 V 0 Z"
         id="path1084"
         style="clip-rule:evenodd" />
    </clipPath>
    <clipPath
       clipPathUnits="userSpaceOnUse"
       id="clipPath1110">
      <path
         d="M 0.32,0 V 971.35998 H 1375.6801 V 0 Z"
         id="path1108"
         style="clip-rule:evenodd" />
    </clipPath>
    <clipPath
       clipPathUnits="userSpaceOnUse"
       id="clipPath1146">
      <path
         d="M 0.32,0 V 971.35998 H 1375.6801 V 0 Z"
         id="path1144"
         style="clip-rule:evenodd" />
    </clipPath>
  </defs>
  <metadata
     id="metadata5">
    <rdf:RDF>
      <cc:Work
         rdf:about="">
        <dc:format>image/svg+xml</dc:format>
        <dc:type
           rdf:resource="http://purl.org/dc/dcmitype/StillImage" />
        <dc:title></dc:title>
      </cc:Work>
    </rdf:RDF>
  </metadata>
  <g
     transform="translate(0,-125.02074)"
     id="layer1">
    <g
       id="g1038"
       transform="matrix(0.26458333,0,0,0.26458333,-10.308165,-12.450614)">
      <g
         transform="translate(-2.2857143,445.71429)"
         id="g1044">
        <path
           d="M 99.839996,94.720001 H 192.8 V 578.08002 H 99.839996 Z"
           style="fill:#876400;fill-opacity:1;fill-rule:nonzero;stroke:none"
           id="path1046" />
      </g>
      <g
         transform="translate(-2.2857143,445.71429)"
         id="g1048">
        <g
           id="g1050"
           clip-path="url(#clipPath1054)">
          <g
             id="g1056">
            <path
               d="M 69.459999,134.17 144.71001,177.73 120.53,219.53999 45.279999,175.97 Z"
               style="fill:#876400;fill-opacity:1;fill-rule:nonzero;stroke:none"
               id="path1058" />
          </g>
          <g
             id="g1060"
             transform="translate(143.27,152.75)">
            <path
               d="m 0,0 c 0,0.48 0,0.96 -0.16,1.44 0,0.48 -0.16,0.8 -0.48,1.28 -0.16,0.48 -0.48,0.96 -0.8,1.44 -0.32,0.48 -0.8,0.96 -1.28,1.28 -0.48,0.48 -0.96,0.96 -1.44,1.28 -0.64,0.48 -1.28,0.96 -1.92,1.29 -0.65,0.32 -1.29,0.8 -2.09,1.12 -0.8,0.32 -1.6,0.8 -2.4,1.12 -0.8,0.32 -1.76,0.64 -2.56,0.96 -0.96,0.32 -1.92,0.48 -2.88,0.8 -0.959999,0.32 -2.08,0.48 -3.039999,0.8 -1.120001,0.16 -2.09,0.32 -3.210001,0.48 -1.119999,0.16 -2.24,0.32 -3.360001,0.48 -1.119999,0.16 -2.24,0.32 -3.519998,0.48 -1.120001,0 -2.24,0.16 -3.520001,0.16 -1.119999,0 -2.400001,0 -3.529999,0 -1.120002,0 -2.400001,0 -3.52,0 -1.120003,0 -2.400002,-0.16 -3.520001,-0.16 -1.119998,-0.16 -2.400001,-0.32 -3.52,-0.48 -1.119999,-0.16 -2.240002,-0.32 -3.369999,-0.48 -0.960003,-0.16 -2.080002,-0.32 -3.200001,-0.48 -0.959999,-0.32 -2.080002,-0.48 -3.040001,-0.8 -0.959999,-0.32 -1.919998,-0.48 -2.880001,-0.8 -0.799999,-0.32 -1.759998,-0.64 -2.559997,-0.96 -0.799999,-0.32 -1.600003,-0.8 -2.41,-1.12 -0.800003,-0.32 -1.440003,-0.8 -2.080002,-1.12 C -66.93,7.68 -67.57,7.2 -68.209999,6.72 -68.690002,6.4 -69.169998,5.92 -69.650002,5.44 -70.129997,5.12 -70.449997,4.64 -70.93,4.16 -71.25,3.68 -71.410004,3.2 -71.730003,2.72 c -0.159996,-0.48 -0.32,-0.8 -0.479996,-1.28 -0.160004,-0.48 -0.160004,-0.96 -0.160004,-1.44 0,-0.48 0,-0.96 0.160004,-1.44 0.159996,-0.48 0.32,-0.97 0.479996,-1.45 0.319999,-0.48 0.480003,-0.96 0.800003,-1.44 0.480003,-0.32 0.800003,-0.8 1.279998,-1.28 0.480004,-0.48 0.96,-0.8 1.440003,-1.28 0.639999,-0.48 1.279999,-0.8 1.919998,-1.28 0.639999,-0.32 1.279999,-0.64 2.080002,-1.12 0.809997,-0.32 1.610001,-0.64 2.41,-0.96 0.799999,-0.32 1.759998,-0.64 2.559997,-0.96 0.960003,-0.32 1.920002,-0.65 2.880001,-0.97 0.959999,-0.16 2.080002,-0.48 3.040001,-0.64 1.119999,-0.32 2.239998,-0.48 3.200001,-0.64 1.129997,-0.16 2.25,-0.32 3.369999,-0.48 1.119999,-0.16 2.400002,-0.32 3.52,-0.32 1.119999,-0.16 2.399998,-0.16 3.520001,-0.16 1.119999,-0.16 2.399998,-0.16 3.52,-0.16 1.129998,0 2.41,0 3.529999,0.16 1.280001,0 2.4,0 3.520001,0.16 1.279998,0 2.399999,0.16 3.519998,0.32 1.120001,0.16 2.240002,0.32 3.360001,0.48 1.120001,0.16 2.09,0.32 3.210001,0.64 0.959999,0.16 2.08,0.48 3.039999,0.64 0.96,0.32 1.92,0.65 2.88,0.97 0.8,0.32 1.76,0.64 2.56,0.96 0.8,0.32 1.6,0.64 2.4,0.96 0.8,0.48 1.44,0.8 2.09,1.12 0.64,0.48 1.28,0.8 1.92,1.28 0.48,0.48 0.96,0.8 1.44,1.28 0.48,0.48 0.96,0.96 1.28,1.28 0.32,0.48 0.64,0.96 0.8,1.44 0.32,0.48 0.48,0.97 0.48,1.45 C 0,-0.96 0,-0.48 0,0 Z"
               style="fill:#ffff00;fill-opacity:1;fill-rule:nonzero;stroke:none"
               id="path1062" />
          </g>
          <g
             id="g1064"
             transform="translate(231.33,239.72)">
            <path
               d="M 0,0 C 0,0.48 -0.16,0.96 -0.16,1.44 -0.32,1.92 -0.48,2.4 -0.8,2.88 -0.96,3.36 -1.28,3.68 -1.6,4.16 -1.92,4.64 -2.4,5.12 -2.72,5.6 -3.2,5.92 -3.68,6.4 -4.32,6.88 -4.8,7.2 -5.44,7.68 -6.08,8 c -0.64,0.49 -1.44,0.81 -2.25,1.13 -0.64,0.48 -1.44,0.8 -2.4,1.12 -0.8,0.32 -1.6,0.64 -2.56,0.96 -0.96,0.32 -1.92,0.64 -2.88,0.8 -0.959999,0.32 -1.92,0.48 -3.039999,0.8 -0.960001,0.16 -2.080002,0.32 -3.210001,0.64 -1.120001,0.16 -2.24,0.32 -3.360001,0.48 -1.119999,0 -2.239999,0.16 -3.359998,0.32 -1.280001,0 -2.400002,0.16 -3.520001,0.16 -1.279999,0 -2.400001,0 -3.68,0 -1.130001,0 -2.25,0 -3.529999,0 -1.120003,0 -2.240002,-0.16 -3.52,-0.16 -1.119999,-0.16 -2.240002,-0.32 -3.360001,-0.32 -1.119999,-0.16 -2.240002,-0.32 -3.360001,-0.48 -1.130001,-0.32 -2.25,-0.48 -3.209999,-0.64 -1.119999,-0.32 -2.080002,-0.48 -3.040001,-0.8 C -57.48,11.85 -58.279999,11.53 -59.240002,11.21 -60.200001,10.89 -61,10.57 -61.959999,10.25 -62.759998,9.93 -63.560001,9.61 -64.360001,9.13 -65,8.81 -65.809998,8.49 -66.449997,8 -67.089996,7.68 -67.730003,7.2 -68.209999,6.88 -68.849998,6.4 -69.330002,5.92 -69.809998,5.6 -70.290001,5.12 -70.610001,4.64 -70.93,4.16 c -0.32,-0.48 -0.64,-0.8 -0.959999,-1.28 -0.160004,-0.48 -0.32,-0.96 -0.480004,-1.44 -0.159996,-0.48 -0.159996,-0.96 -0.159996,-1.44 0,-0.48 0,-0.96 0.159996,-1.45 0.160004,-0.48 0.32,-0.96 0.480004,-1.44 C -71.57,-3.37 -71.25,-3.85 -70.93,-4.17 c 0.319999,-0.48 0.639999,-0.96 1.120002,-1.44 0.479996,-0.32 0.96,-0.8 1.599999,-1.28 0.479996,-0.32 1.120003,-0.8 1.760002,-1.12 0.639999,-0.48 1.449997,-0.8 2.089996,-1.12 0.8,-0.48 1.600003,-0.8 2.400002,-1.12 0.959999,-0.32 1.759998,-0.64 2.719997,-0.97 0.960003,-0.32 1.760002,-0.64 2.880001,-0.8 0.959999,-0.32 1.920002,-0.64 3.040001,-0.8 0.959999,-0.16 2.079998,-0.48 3.209999,-0.64 1.119999,-0.16 2.240002,-0.32 3.360001,-0.48 1.119999,-0.16 2.240002,-0.16 3.360001,-0.32 1.279998,0 2.399997,-0.16 3.52,-0.16 1.279999,0 2.399998,-0.16 3.529999,-0.16 1.279999,0 2.400001,0.16 3.68,0.16 1.119999,0 2.24,0.16 3.520001,0.16 1.119999,0.16 2.239999,0.16 3.359998,0.32 1.120001,0.16 2.24,0.32 3.360001,0.48 1.129999,0.16 2.25,0.48 3.210001,0.64 1.119999,0.16 2.08,0.48 3.039999,0.8 0.96,0.16 1.92,0.48 2.88,0.8 0.96,0.33 1.76,0.65 2.56,0.97 0.96,0.32 1.76,0.64 2.4,1.12 0.81,0.32 1.61,0.64 2.25,1.12 0.64,0.32 1.28,0.8 1.76,1.12 0.64,0.48 1.12,0.96 1.6,1.28 0.32,0.48 0.8,0.96 1.12,1.44 0.32,0.32 0.64,0.8 0.8,1.28 0.32,0.48 0.48,0.96 0.64,1.44 C -0.16,-0.96 0,-0.48 0,0 Z"
               style="fill:#ffff00;fill-opacity:1;fill-rule:nonzero;stroke:none"
               id="path1066" />
          </g>
          <g
             id="g1068">
            <path
               d="M 143.91,392.67001 246.38,290.01001 270.39999,314.03 167.77,416.54001 Z"
               style="fill:#876400;fill-opacity:1;fill-rule:nonzero;stroke:none"
               id="path1070" />
          </g>
        </g>
      </g>
      <g
         transform="translate(-2.2857143,445.71429)"
         id="g1072">
        <path
           d="m 224.48,626.40002 h 483.36003 v 93.75995 H 224.48 Z"
           style="fill:#876400;fill-opacity:1;fill-rule:nonzero;stroke:none"
           id="path1074" />
      </g>
      <g
         transform="translate(-2.2857143,445.71429)"
         id="g1076">
        <path
           d="m 398.56,143.03999 h 92.79999 V 626.40002 H 398.56 Z"
           style="fill:#876400;fill-opacity:1;fill-rule:nonzero;stroke:none"
           id="path1078" />
      </g>
      <g
         transform="translate(-2.2857143,445.71429)"
         id="g1080">
        <g
           id="g1082"
           clip-path="url(#clipPath1086)">
          <g
             id="g1088">
            <path
               d="m 368.07001,182.53999 75.41,43.56002 -24.18002,41.80999 -75.40998,-43.57 z"
               style="fill:#876400;fill-opacity:1;fill-rule:nonzero;stroke:none"
               id="path1090" />
          </g>
          <g
             id="g1092"
             transform="translate(456.45001,222.25999)">
            <path
               d="m 0,0 c 0,0.48 0,0.96 -0.16,1.44 0,0.48 -0.32,0.96 -0.48,1.44 -0.16,0.48 -0.48,0.96 -0.8,1.44 -0.48,0.32 -0.81,0.8 -1.29,1.28 -0.48,0.48 -0.96,0.81 -1.44,1.29 -0.64,0.48 -1.28,0.8 -1.92,1.28 -0.64,0.32 -1.28,0.64 -2.08,1.12 -0.8,0.32 -1.6,0.64 -2.4,0.96 -0.8,0.32 -1.76,0.64 -2.56,0.96 -0.96,0.32 -1.92,0.64 -2.88,0.96 -0.97,0.16 -2.09,0.48 -3.049999,0.64 -1.120001,0.32 -2.24,0.48 -3.200001,0.64 -1.119999,0.16 -2.24,0.32 -3.360001,0.48 -1.119999,0.16 -2.399999,0.32 -3.519998,0.32 -1.120001,0.16 -2.25,0.16 -3.529999,0.16 -1.120003,0.16 -2.400002,0.16 -3.520001,0.16 -1.120002,0 -2.400001,0 -3.52,-0.16 -1.280003,0 -2.400002,0 -3.520001,-0.16 -1.119998,0 -2.409999,-0.16 -3.529998,-0.32 C -47.880001,13.77 -49,13.61 -50.119999,13.45 -51.240002,13.29 -52.200001,13.13 -53.32,12.81 c -0.959999,-0.16 -2.080002,-0.48 -3.040001,-0.64 -0.959999,-0.32 -1.919998,-0.64 -2.880001,-0.96 -0.809997,-0.32 -1.769996,-0.64 -2.569999,-0.96 -0.8,-0.32 -1.599999,-0.64 -2.399998,-0.96 -0.800003,-0.48 -1.440003,-0.8 -2.080002,-1.12 C -66.93,7.69 -67.57,7.37 -68.209999,6.89 -68.690002,6.41 -69.169998,6.08 -69.650002,5.6 -70.129997,5.12 -70.610001,4.64 -70.93,4.32 c -0.32,-0.48 -0.64,-0.96 -0.800003,-1.44 -0.32,-0.48 -0.479996,-0.96 -0.479996,-1.44 -0.160004,-0.48 -0.160004,-0.96 -0.160004,-1.44 0,-0.48 0,-0.96 0.160004,-1.44 0,-0.48 0.159996,-0.8 0.479996,-1.28 C -71.57,-3.2 -71.25,-3.69 -70.93,-4.17 c 0.319999,-0.48 0.800003,-0.96 1.279998,-1.28 0.480004,-0.48 0.96,-0.96 1.440003,-1.28 0.639999,-0.48 1.279999,-0.96 1.919998,-1.28 0.639999,-0.32 1.279999,-0.8 2.080002,-1.12 0.799999,-0.32 1.599998,-0.8 2.399998,-1.12 0.800003,-0.32 1.760002,-0.64 2.569999,-0.96 0.960003,-0.32 1.920002,-0.48 2.880001,-0.8 0.959999,-0.32 2.080002,-0.48 3.040001,-0.8 1.119999,-0.16 2.079998,-0.33 3.200001,-0.49 1.119999,-0.16 2.239998,-0.32 3.360001,-0.48 1.119999,-0.16 2.41,-0.32 3.529998,-0.48 1.119999,0 2.239998,-0.16 3.520001,-0.16 1.119999,0 2.399998,0 3.52,0 1.119999,0 2.399998,0 3.520001,0 1.279999,0 2.409998,0.16 3.529999,0.16 1.119999,0.16 2.399999,0.32 3.519998,0.48 1.120001,0.16 2.240002,0.32 3.360001,0.48 0.960001,0.16 2.08,0.33 3.200001,0.49 0.959999,0.32 2.079999,0.48 3.049999,0.8 0.96,0.32 1.92,0.48 2.88,0.8 0.8,0.32 1.76,0.64 2.56,0.96 0.8,0.32 1.6,0.8 2.4,1.12 0.8,0.32 1.44,0.8 2.08,1.12 0.64,0.32 1.28,0.8 1.92,1.28 0.48,0.32 0.96,0.8 1.44,1.28 0.48,0.32 0.81,0.8 1.29,1.28 0.32,0.48 0.64,0.97 0.8,1.45 0.16,0.48 0.48,0.8 0.48,1.28 C 0,-0.96 0,-0.48 0,0 Z"
               style="fill:#9acd32;fill-opacity:1;fill-rule:nonzero;stroke:none"
               id="path1094" />
          </g>
          <g
             id="g1096">
            <path
               d="M 442.51999,440.88 545.15002,338.38 569,362.39999 466.53,464.91 Z"
               style="fill:#876400;fill-opacity:1;fill-rule:nonzero;stroke:none"
               id="path1098" />
          </g>
        </g>
      </g>
      <g
         transform="translate(-2.2857143,445.71429)"
         id="g1100">
        <path
           d="m 610.08002,70.559998 h 92.95996 V 553.91998 h -92.95996 z"
           style="fill:#876400;fill-opacity:1;fill-rule:nonzero;stroke:none"
           id="path1102" />
      </g>
      <g
         transform="translate(-2.2857143,445.71429)"
         id="g1104">
        <g
           id="g1106"
           clip-path="url(#clipPath1110)">
          <g
             id="g1112">
            <path
               d="m 579.72998,109.98 75.41003,43.57 -24.17004,41.80001 L 555.56,151.95 Z"
               style="fill:#876400;fill-opacity:1;fill-rule:nonzero;stroke:none"
               id="path1114" />
          </g>
          <g
             id="g1116"
             transform="translate(629.53003,142.98)">
            <path
               d="m 0,0 c 0,0.48 0,0.96 -0.16,1.44 -0.16,0.48 -0.32,0.96 -0.48,1.44 -0.32,0.48 -0.64,0.96 -0.96,1.44 -0.32,0.32 -0.65,0.8 -1.13,1.28 -0.48,0.48 -0.96,0.8 -1.6,1.28 -0.48,0.48 -1.12,0.8 -1.76,1.29 -0.64,0.32 -1.44,0.64 -2.08,1.12 -0.8,0.32 -1.6,0.64 -2.4,0.96 -0.96,0.32 -1.76,0.64 -2.72,0.96 -0.96,0.32 -1.92,0.64 -2.88,0.96 -0.969999,0.16 -1.93,0.48 -3.049999,0.64 -0.960001,0.32 -2.08,0.48 -3.200001,0.64 -1.120001,0.16 -2.24,0.32 -3.360001,0.48 -1.119999,0.16 -2.239999,0.32 -3.359998,0.32 -1.280001,0.16 -2.41,0.16 -3.529999,0.16 -1.280003,0.16 -2.400002,0.16 -3.520001,0.16 -1.280002,0 -2.400001,0 -3.68,-0.16 -1.120003,0 -2.240002,0 -3.52,-0.16 -1.119999,0 -2.25,-0.16 -3.369999,-0.32 C -47.880001,13.77 -49,13.61 -50.119999,13.45 -51.240002,13.29 -52.360001,13.13 -53.32,12.81 c -1.119999,-0.16 -2.080002,-0.48 -3.040001,-0.64 -0.959999,-0.32 -1.919998,-0.64 -2.880001,-0.96 -0.969997,-0.32 -1.769996,-0.64 -2.729999,-0.96 C -62.77,9.93 -63.57,9.61 -64.209999,9.29 -65.010002,8.81 -65.809998,8.49 -66.449997,8.17 -67.089996,7.68 -67.730003,7.36 -68.209999,6.88 -68.849998,6.4 -69.330002,6.08 -69.809998,5.6 -70.129997,5.12 -70.610001,4.64 -70.93,4.32 c -0.32,-0.48 -0.64,-0.96 -0.800003,-1.44 -0.32,-0.48 -0.479996,-0.96 -0.64,-1.44 0,-0.48 -0.159996,-0.96 -0.159996,-1.44 0,-0.48 0.159996,-0.96 0.159996,-1.44 0.160004,-0.32 0.32,-0.81 0.64,-1.29 C -71.57,-3.21 -71.25,-3.69 -70.93,-4.17 c 0.319999,-0.48 0.800003,-0.96 1.120002,-1.28 0.479996,-0.48 0.96,-0.96 1.599999,-1.28 0.479996,-0.48 1.120003,-0.8 1.760002,-1.28 0.639999,-0.32 1.439995,-0.8 2.239998,-1.12 0.639999,-0.32 1.439999,-0.8 2.239998,-1.12 0.960003,-0.32 1.760002,-0.64 2.729999,-0.96 0.960003,-0.32 1.920002,-0.49 2.880001,-0.81 0.959999,-0.32 1.920002,-0.48 3.040001,-0.8 0.959999,-0.16 2.079998,-0.32 3.200001,-0.48 1.119999,-0.16 2.239998,-0.32 3.360001,-0.48 1.119999,-0.16 2.25,-0.32 3.369999,-0.32 1.279998,-0.16 2.399997,-0.16 3.52,-0.32 1.279999,0 2.399998,0 3.68,0 1.119999,0 2.239998,0 3.520001,0 1.119999,0.16 2.249998,0.16 3.529999,0.32 1.119999,0 2.239999,0.16 3.359998,0.32 1.120001,0.16 2.24,0.32 3.360001,0.48 1.120001,0.16 2.24,0.32 3.200001,0.48 1.119999,0.32 2.08,0.48 3.049999,0.8 0.96,0.32 1.92,0.49 2.88,0.81 0.96,0.32 1.76,0.64 2.72,0.96 0.8,0.32 1.6,0.8 2.4,1.12 0.64,0.32 1.44,0.8 2.08,1.12 0.64,0.48 1.28,0.8 1.76,1.28 0.64,0.32 1.12,0.8 1.6,1.28 0.48,0.32 0.81,0.8 1.13,1.28 0.32,0.48 0.64,0.96 0.96,1.44 0.16,0.48 0.32,0.97 0.48,1.29 C 0,-0.96 0,-0.48 0,0 Z"
               style="fill:#ffff00;fill-opacity:1;fill-rule:nonzero;stroke:none"
               id="path1118" />
          </g>
          <g
             id="g1120"
             transform="translate(709.73999,215.53)">
            <path
               d="m 0,0 c 0,0.48 0,0.96 -0.16,1.44 -0.16,0.48 -0.32,0.96 -0.48,1.44 -0.32,0.48 -0.64,0.81 -0.96,1.29 -0.32,0.48 -0.64,0.96 -1.12,1.44 -0.48,0.32 -0.96,0.8 -1.6,1.28 -0.48,0.32 -1.12,0.8 -1.76,1.12 -0.64,0.48 -1.44,0.8 -2.08,1.12 -0.8,0.48 -1.6,0.8 -2.41,1.12 -0.96,0.32 -1.76,0.64 -2.72,0.96 -0.96,0.32 -1.76,0.64 -2.88,0.8 -0.959999,0.32 -1.92,0.48 -3.039999,0.8 -0.960001,0.16 -2.080002,0.49 -3.200001,0.65 -1.120001,0.16 -2.25,0.32 -3.370001,0.48 C -26.9,14.1 -28.02,14.1 -29.139999,14.26 c -1.280001,0 -2.400002,0.16 -3.520001,0.16 -1.279999,0 -2.400001,0.16 -3.52,0.16 -1.279999,0 -2.400002,-0.16 -3.689999,-0.16 -1.120003,0 -2.240002,-0.16 -3.52,-0.16 -1.119999,-0.16 -2.240002,-0.16 -3.360001,-0.32 -1.119999,-0.16 -2.240002,-0.32 -3.360001,-0.48 -1.119999,-0.16 -2.239997,-0.49 -3.2,-0.65 -1.129998,-0.32 -2.090001,-0.48 -3.05,-0.8 C -57.32,11.85 -58.279999,11.53 -59.240002,11.21 -60.200001,10.89 -61,10.57 -61.799999,10.25 -62.759998,9.93 -63.560001,9.61 -64.199997,9.13 -65,8.81 -65.800003,8.49 -66.440002,8.01 c -0.64,-0.32 -1.279999,-0.8 -1.769997,-1.12 -0.639999,-0.48 -1.120003,-0.96 -1.599999,-1.28 -0.319999,-0.48 -0.800003,-0.96 -1.120002,-1.44 -0.32,-0.48 -0.64,-0.81 -0.800003,-1.29 -0.32,-0.48 -0.479996,-0.96 -0.64,-1.44 0,-0.48 -0.159996,-0.96 -0.159996,-1.44 0,-0.48 0.159996,-0.96 0.159996,-1.44 0.160004,-0.48 0.32,-0.96 0.64,-1.44 C -71.57,-3.36 -71.25,-3.68 -70.93,-4.16 c 0.319999,-0.48 0.800003,-0.96 1.120002,-1.44 0.479996,-0.32 0.96,-0.81 1.599999,-1.29 0.489998,-0.32 1.129997,-0.8 1.769997,-1.12 0.639999,-0.48 1.440002,-0.8 2.240005,-1.12 0.639996,-0.48 1.439999,-0.8 2.399998,-1.12 0.799999,-0.32 1.599998,-0.64 2.559997,-0.96 0.960003,-0.32 1.920002,-0.64 2.880001,-0.8 0.959999,-0.32 1.920002,-0.48 3.05,-0.8 0.960003,-0.16 2.080001,-0.32 3.2,-0.64 1.119999,-0.16 2.240002,-0.32 3.360001,-0.48 1.119999,0 2.240002,-0.16 3.360001,-0.32 1.279998,0 2.399997,-0.16 3.52,-0.16 1.289997,0 2.41,0 3.689999,0 1.119999,0 2.240001,0 3.52,0 1.119999,0 2.24,0.16 3.520001,0.16 1.119999,0.16 2.239999,0.32 3.359998,0.32 1.120001,0.16 2.25,0.32 3.370001,0.48 1.119999,0.32 2.24,0.48 3.200001,0.64 1.119999,0.32 2.08,0.48 3.039999,0.8 1.12,0.16 1.92,0.48 2.88,0.8 0.96,0.32 1.76,0.64 2.72,0.96 0.81,0.32 1.61,0.64 2.41,1.12 0.64,0.32 1.44,0.64 2.08,1.12 0.64,0.32 1.28,0.8 1.76,1.12 0.64,0.48 1.12,0.97 1.6,1.29 0.48,0.48 0.8,0.96 1.12,1.44 0.32,0.48 0.64,0.8 0.96,1.28 0.16,0.48 0.32,0.96 0.48,1.44 C 0,-0.96 0,-0.48 0,0 Z"
               style="fill:#ffff00;fill-opacity:1;fill-rule:nonzero;stroke:none"
               id="path1122" />
          </g>
          <g
             id="g1124"
             transform="translate(732,317.07999)">
            <path
               d="M 0,0 C 0,0.48 -0.16,0.96 -0.16,1.44 -0.32,1.92 -0.48,2.4 -0.8,2.72 -0.96,3.2 -1.28,3.68 -1.6,4.16 -1.92,4.64 -2.4,5.12 -2.72,5.44 -3.2,5.92 -3.69,6.4 -4.33,6.72 -4.81,7.2 -5.45,7.68 -6.09,8 c -0.64,0.48 -1.44,0.8 -2.24,1.13 -0.64,0.48 -1.44,0.8 -2.4,1.12 -0.8,0.32 -1.6,0.64 -2.56,0.96 -0.96,0.32 -1.92,0.48 -2.88,0.8 -0.959999,0.32 -1.93,0.48 -3.049999,0.8 -0.960001,0.16 -2.08,0.32 -3.200001,0.48 -1.120001,0.32 -2.24,0.48 -3.360001,0.48 -1.119999,0.16 -2.239999,0.32 -3.359998,0.48 -1.280001,0 -2.400002,0.16 -3.529999,0.16 -1.280003,0 -2.400002,0 -3.68,0 -1.120003,0 -2.240002,0 -3.520001,0 -1.120003,0 -2.240002,-0.16 -3.52,-0.16 -1.119999,-0.16 -2.240002,-0.32 -3.369999,-0.48 -1.120003,0 -2.240002,-0.16 -3.360001,-0.48 -1.120003,-0.16 -2.240002,-0.32 -3.200001,-0.48 -1.119999,-0.32 -2.080002,-0.48 -3.040001,-0.8 C -57.48,11.69 -58.279999,11.53 -59.240002,11.21 -60.200001,10.89 -61,10.57 -61.970001,10.25 -62.77,9.93 -63.57,9.61 -64.370003,9.13 -65.010002,8.8 -65.809998,8.48 -66.449997,8 -67.089996,7.68 -67.730003,7.2 -68.209999,6.72 -68.849998,6.4 -69.330002,5.92 -69.809998,5.44 -70.290001,5.12 -70.610001,4.64 -70.93,4.16 -71.25,3.68 -71.57,3.2 -71.889999,2.72 c -0.160004,-0.32 -0.32,-0.8 -0.480004,-1.28 -0.159996,-0.48 -0.159996,-0.96 -0.159996,-1.44 0,-0.48 0,-0.97 0.159996,-1.45 0.160004,-0.48 0.32,-0.96 0.480004,-1.44 C -71.57,-3.37 -71.25,-3.85 -70.93,-4.17 c 0.319999,-0.48 0.639999,-0.96 1.120002,-1.44 0.479996,-0.48 0.96,-0.8 1.599999,-1.28 0.479996,-0.32 1.120003,-0.8 1.760002,-1.12 0.639999,-0.48 1.439995,-0.8 2.079994,-1.28 0.800003,-0.32 1.600003,-0.64 2.400002,-0.96 0.970001,-0.33 1.77,-0.65 2.729999,-0.97 0.960003,-0.32 1.760002,-0.64 2.880001,-0.8 0.959999,-0.32 1.920002,-0.64 3.040001,-0.8 0.959999,-0.16 2.079998,-0.48 3.200001,-0.64 1.119999,-0.16 2.239998,-0.32 3.360001,-0.48 1.129997,-0.16 2.25,-0.16 3.369999,-0.32 1.279998,-0.16 2.399997,-0.16 3.52,-0.16 1.279999,-0.16 2.399998,-0.16 3.520001,-0.16 1.279998,0 2.399997,0 3.68,0.16 1.129997,0 2.249998,0 3.529999,0.16 1.119999,0.16 2.239999,0.16 3.359998,0.32 1.120001,0.16 2.24,0.32 3.360001,0.48 1.120001,0.16 2.24,0.48 3.200001,0.64 1.119999,0.16 2.09,0.48 3.049999,0.8 0.96,0.16 1.92,0.48 2.88,0.8 0.96,0.32 1.76,0.64 2.56,0.97 0.96,0.32 1.76,0.64 2.4,0.96 0.8,0.48 1.6,0.8 2.24,1.28 0.64,0.32 1.28,0.8 1.76,1.12 0.64,0.48 1.13,0.8 1.61,1.28 0.32,0.48 0.8,0.96 1.12,1.44 0.32,0.32 0.64,0.8 0.8,1.28 0.32,0.48 0.48,0.96 0.64,1.44 C -0.16,-0.97 0,-0.48 0,0 Z"
               style="fill:#ffff00;fill-opacity:1;fill-rule:nonzero;stroke:none"
               id="path1126" />
          </g>
          <g
             id="g1128">
            <path
               d="M 654.17999,368.48999 756.81,265.82001 l 23.85998,24.03 -102.46997,102.5 z"
               style="fill:#876400;fill-opacity:1;fill-rule:nonzero;stroke:none"
               id="path1130" />
          </g>
        </g>
      </g>
      <g
         transform="translate(-2.2857143,445.71429)"
         id="g1132">
        <path
           d="M 883.67999,626.40002 H 1339.04 v 93.75995 H 883.67999 Z"
           style="fill:#876400;fill-opacity:1;fill-rule:nonzero;stroke:none"
           id="path1134" />
      </g>
      <g
         transform="translate(-2.2857143,445.71429)"
         id="g1136">
        <path
           d="m 1082.88,143.03999 h 92.8001 V 626.40002 H 1082.88 Z"
           style="fill:#876400;fill-opacity:1;fill-rule:nonzero;stroke:none"
           id="path1138" />
      </g>
      <g
         transform="translate(-2.2857143,445.71429)"
         id="g1140">
        <g
           id="g1142"
           clip-path="url(#clipPath1146)">
          <g
             id="g1148">
            <path
               d="m 1052.38,182.53999 75.41,43.56002 -24.18,41.80999 -75.41,-43.57 z"
               style="fill:#876400;fill-opacity:1;fill-rule:nonzero;stroke:none"
               id="path1150" />
          </g>
          <g
             id="g1152"
             transform="translate(1140.76,176.92999)">
            <path
               d="m 0,0 c 0,0.48 0,0.96 -0.16,1.28 -0.16,0.48 -0.32,0.96 -0.48,1.44 -0.16,0.49 -0.48,0.97 -0.8,1.45 -0.48,0.48 -0.8,0.96 -1.28,1.28 -0.48,0.48 -0.96,0.96 -1.44,1.28 -0.64,0.48 -1.28,0.8 -1.92,1.28 -0.64,0.32 -1.28,0.8 -2.08,1.12 -0.81,0.32 -1.61,0.8 -2.41,1.12 -0.8,0.32 -1.76,0.64 -2.56,0.96 -0.96,0.16 -1.92,0.48 -2.88,0.8 -0.959999,0.32 -2.08,0.48 -3.039999,0.64 -1.120001,0.33 -2.240002,0.49 -3.200001,0.65 -1.129999,0.16 -2.25,0.32 -3.370001,0.48 -1.119999,0.16 -2.399999,0.32 -3.519998,0.32 -1.120001,0.16 -2.24,0.16 -3.520001,0.32 -1.119999,0 -2.400001,0 -3.52,0 -1.130001,0 -2.41,0 -3.529999,0 -1.280003,-0.16 -2.400002,-0.16 -3.520001,-0.32 -1.279998,0 -2.400001,-0.16 -3.52,-0.32 -1.119999,-0.16 -2.240002,-0.32 -3.360001,-0.48 -1.119999,-0.16 -2.09,-0.32 -3.209999,-0.65 -0.959999,-0.16 -2.080002,-0.32 -3.040001,-0.64 C -57.32,11.69 -58.279999,11.37 -59.240002,11.21 -60.040001,10.89 -61,10.57 -61.799999,10.25 -62.599998,9.93 -63.400002,9.45 -64.199997,9.13 -65,8.81 -65.639999,8.33 -66.290001,8.01 -66.93,7.53 -67.57,7.21 -68.209999,6.73 -68.690002,6.41 -69.169998,5.93 -69.650002,5.45 -70.129997,5.13 -70.610001,4.65 -70.93,4.17 c -0.32,-0.48 -0.64,-0.96 -0.800003,-1.45 -0.32,-0.48 -0.479996,-0.96 -0.479996,-1.44 -0.160004,-0.32 -0.160004,-0.8 -0.160004,-1.28 0,-0.48 0,-0.96 0.160004,-1.44 0,-0.48 0.159996,-0.96 0.479996,-1.44 C -71.57,-3.36 -71.25,-3.84 -70.93,-4.32 c 0.319999,-0.48 0.800003,-0.8 1.279998,-1.28 0.480004,-0.48 0.96,-0.8 1.440003,-1.29 0.639999,-0.48 1.279999,-0.8 1.919998,-1.28 0.650002,-0.32 1.290001,-0.8 2.090004,-1.12 0.799995,-0.32 1.599999,-0.64 2.399998,-0.96 0.799999,-0.48 1.759998,-0.8 2.559997,-0.96 0.960003,-0.32 1.920002,-0.64 2.880001,-0.96 0.959999,-0.16 2.080002,-0.48 3.040001,-0.64 1.119999,-0.32 2.09,-0.48 3.209999,-0.64 1.119999,-0.16 2.240002,-0.32 3.360001,-0.48 1.119999,-0.16 2.240002,-0.32 3.52,-0.32 1.119999,-0.16 2.239998,-0.16 3.520001,-0.16 1.119999,-0.16 2.399998,-0.16 3.529999,-0.16 1.119999,0 2.400001,0 3.52,0.16 1.280001,0 2.4,0 3.520001,0.16 1.119999,0 2.399999,0.16 3.519998,0.32 1.120001,0.16 2.240002,0.32 3.370001,0.48 0.959999,0.16 2.08,0.32 3.200001,0.64 0.959999,0.16 2.08,0.48 3.039999,0.64 0.96,0.32 1.92,0.64 2.88,0.96 0.8,0.16 1.76,0.48 2.56,0.96 0.8,0.32 1.6,0.64 2.41,0.96 0.8,0.32 1.44,0.8 2.08,1.12 0.64,0.48 1.28,0.8 1.92,1.28 0.48,0.49 0.96,0.81 1.44,1.29 0.48,0.48 0.8,0.8 1.28,1.28 0.32,0.48 0.64,0.96 0.8,1.44 0.16,0.48 0.32,0.96 0.48,1.44 C 0,-0.96 0,-0.48 0,0 Z"
               style="fill:#9acd32;fill-opacity:1;fill-rule:nonzero;stroke:none"
               id="path1154" />
          </g>
          <g
             id="g1156"
             transform="translate(1233.63,326.69)">
            <path
               d="m 0,0 c 0,0.48 -0.17,0.96 -0.17,1.44 -0.16,0.48 -0.32,0.96 -0.64,1.44 -0.16,0.48 -0.48,0.96 -0.8,1.28 -0.32,0.48 -0.8,0.96 -1.12,1.44 -0.48,0.48 -0.96,0.8 -1.6,1.28 -0.48,0.32 -1.12,0.8 -1.76,1.12 -0.64,0.48 -1.44,0.8 -2.24,1.29 -0.64,0.32 -1.44,0.64 -2.24,0.96 -0.96,0.32 -1.76,0.64 -2.72,0.96 -0.96,0.32 -1.93,0.64 -2.89,0.8 -0.959999,0.32 -1.92,0.64 -3.039999,0.8 -0.960001,0.16 -2.08,0.48 -3.200001,0.64 -1.120001,0.16 -2.24,0.32 -3.360001,0.48 C -26.9,14.09 -28.02,14.09 -29.15,14.25 c -1.28,0.16 -2.399999,0.16 -3.519998,0.16 -1.280003,0.16 -2.400002,0.16 -3.68,0.16 -1.120003,0 -2.240002,0 -3.520001,-0.16 -1.120003,0 -2.240002,0 -3.530003,-0.16 C -44.52,14.09 -45.639999,14.09 -46.759998,13.93 -47.880001,13.77 -49,13.61 -50.119999,13.45 -51.240002,13.29 -52.360001,12.97 -53.32,12.81 c -1.119999,-0.16 -2.080002,-0.48 -3.040001,-0.8 -0.959999,-0.16 -1.93,-0.48 -2.889999,-0.8 -0.959999,-0.32 -1.759998,-0.64 -2.720001,-0.96 C -62.77,9.93 -63.57,9.61 -64.370003,9.29 -65.010002,8.8 -65.809998,8.48 -66.449997,8 -67.089996,7.68 -67.730003,7.2 -68.209999,6.88 -68.849998,6.4 -69.330002,6.08 -69.809998,5.6 -70.290001,5.12 -70.610001,4.64 -70.93,4.16 c -0.32,-0.32 -0.64,-0.8 -0.959999,-1.28 -0.160004,-0.48 -0.32,-0.96 -0.489998,-1.44 -0.160004,-0.48 -0.160004,-0.96 -0.160004,-1.44 0,-0.48 0,-0.97 0.160004,-1.45 0.169998,-0.48 0.329994,-0.96 0.489998,-1.28 C -71.57,-3.21 -71.25,-3.69 -70.93,-4.17 c 0.319999,-0.48 0.639999,-0.96 1.120002,-1.28 0.479996,-0.48 0.96,-0.96 1.599999,-1.44 0.479996,-0.32 1.120003,-0.8 1.760002,-1.12 0.639999,-0.48 1.439995,-0.8 2.079994,-1.12 0.800003,-0.48 1.600003,-0.8 2.400002,-1.12 0.960003,-0.33 1.760002,-0.65 2.720001,-0.97 0.959999,-0.32 1.93,-0.48 2.889999,-0.8 0.959999,-0.32 1.920002,-0.48 3.040001,-0.8 0.959999,-0.16 2.079998,-0.32 3.200001,-0.48 1.119999,-0.32 2.239998,-0.48 3.360001,-0.48 1.119999,-0.16 2.239998,-0.32 3.359996,-0.48 1.290001,0 2.41,-0.16 3.530003,-0.16 1.279999,0 2.399998,0 3.520001,0 1.279998,0 2.399997,0 3.68,0 1.119999,0 2.239998,0.16 3.519998,0.16 1.13,0.16 2.25,0.32 3.369999,0.48 1.120001,0 2.24,0.16 3.360001,0.48 1.120001,0.16 2.24,0.32 3.200001,0.48 1.119999,0.32 2.08,0.48 3.039999,0.8 0.96,0.32 1.93,0.48 2.89,0.8 0.96,0.32 1.76,0.64 2.72,0.97 0.8,0.32 1.6,0.64 2.24,1.12 0.8,0.32 1.6,0.64 2.24,1.12 0.64,0.32 1.28,0.8 1.76,1.12 0.64,0.48 1.12,0.96 1.6,1.44 0.32,0.32 0.8,0.8 1.12,1.28 0.32,0.48 0.64,0.96 0.8,1.44 0.32,0.32 0.48,0.8 0.64,1.28 C -0.17,-0.97 0,-0.48 0,0 Z"
               style="fill:#9acd32;fill-opacity:1;fill-rule:nonzero;stroke:none"
               id="path1158" />
          </g>
          <g
             id="g1160">
            <path
               d="m 1126.83,440.88 102.63,-102.5 23.8599,24.01999 L 1150.85,464.91 Z"
               style="fill:#876400;fill-opacity:1;fill-rule:nonzero;stroke:none"
               id="path1162" />
          </g>
        </g>
      </g>
    </g>
  </g>
</svg>
